<svg width="407" height="580" xmlns="http://www.w3.org/2000/svg" preserveAspectRatio="xMidYMid meet">
 <metadata>Created by potrace 1.15, written by Peter Selinger 2001-2017</metadata>

 <g>
  <title>background</title>
  <rect fill="none" id="canvas_background" height="402" width="582" y="-1" x="-1"/>
 </g>
 <g>
  <title>Layer 1</title>
  <g id="svg_1" fill="#000000" transform="translate(0,580) scale(0.10000000149011612,-0.10000000149011612) ">
   <path id="svg_2" d="m1660,5711c-62,-22 -67,-26 -90,-73c-15,-30 -18,-54 -15,-94c4,-52 4,-54 -20,-54c-13,0 -27,5 -30,10c-9,15 -110,12 -169,-5c-98,-29 -123,-81 -64,-136c18,-16 39,-29 48,-29c26,0 60,-29 53,-46c-7,-18 -62,-10 -79,12c-14,18 -44,18 -44,1c0,-8 20,-22 45,-33l45,-18l0,-67c0,-47 4,-70 15,-79c8,-7 15,-16 15,-21c0,-5 -7,-9 -15,-9c-8,0 -15,-4 -15,-10c0,-5 -6,-10 -13,-10c-7,0 -29,-9 -50,-20c-20,-11 -40,-20 -43,-20c-12,0 40,47 75,68c28,17 32,22 18,28c-31,11 -167,-92 -152,-116c8,-12 59,-13 83,-1c9,4 35,16 57,26c22,9 48,22 58,27c11,5 21,7 25,4c6,-7 -27,-46 -39,-46c-4,0 -27,-18 -50,-40c-24,-22 -47,-40 -51,-40c-17,0 -7,-29 12,-35c32,-10 91,7 163,46c49,27 12,-25 -48,-67c-15,-11 -16,-17 -7,-26c9,-9 23,-9 63,0c67,16 80,15 73,-3c-5,-11 1,-15 22,-15c48,0 73,-11 76,-33c4,-25 23,-33 31,-13c10,25 -4,53 -31,65l-26,12l34,32c50,47 0,51 -110,8c-30,-11 -58,-21 -63,-21c-4,0 13,19 38,43c25,24 45,49 45,57c0,18 -56,7 -122,-24c-55,-26 -88,-33 -88,-18c0,8 36,42 44,42c3,0 19,13 37,29c27,25 35,28 55,19c25,-11 34,-9 106,28c14,8 33,14 41,14c9,0 17,3 19,8c5,11 85,52 102,52c9,0 16,4 16,10c0,10 68,26 76,17c7,-7 -26,-86 -55,-132c-14,-22 -28,-49 -31,-60c-3,-11 -18,-26 -33,-33c-28,-13 -34,-36 -17,-62c7,-12 35,-15 132,-16c178,-2 170,-1 159,-22c-5,-10 -28,-27 -50,-38c-23,-10 -41,-22 -41,-26c0,-5 -5,-8 -11,-8c-16,0 -48,-42 -49,-62c0,-12 8,-18 21,-18c25,0 102,45 144,84c33,30 77,38 54,9c-26,-33 -49,-53 -59,-53c-5,0 -10,-9 -10,-19c0,-14 9,-20 38,-24c44,-5 74,7 66,28c-4,9 7,28 25,47c17,17 31,37 31,43c0,18 -39,45 -65,45c-18,0 -25,5 -25,20c0,34 -34,42 -171,39c-71,-1 -131,0 -134,3c-3,3 41,28 97,56c67,33 124,71 163,107c33,30 68,58 78,61c11,3 28,15 39,26c14,14 27,18 49,13c22,-5 29,-3 29,8c0,8 -7,17 -15,21c-32,12 -13,26 35,26c37,0 55,-5 71,-21c21,-21 29,-76 13,-87c-21,-15 -54,-66 -54,-83c0,-29 27,-23 65,15c26,24 35,42 35,66c0,18 6,41 14,49c17,20 32,101 18,101c-6,0 -13,-13 -17,-29c-7,-33 -33,-49 -42,-25c-7,18 -66,44 -100,44c-24,0 -25,2 -18,43c13,75 13,84 3,133c-22,112 -56,136 -190,133c-79,-2 -93,1 -96,15c-2,9 -8,16 -13,16c-5,0 -9,5 -9,11c0,5 -14,32 -31,58c-47,72 -113,92 -199,62zm160,-51c17,-17 30,-37 30,-45c0,-8 4,-15 8,-15c10,0 33,-61 26,-71c-3,-5 -11,-9 -19,-9c-17,0 -153,-69 -161,-81c-12,-21 -83,3 -106,36c-4,5 -8,43 -8,83c0,68 2,76 29,103c27,27 35,29 101,29c66,0 73,-2 100,-30zm290,-145c41,-21 70,-89 70,-164c0,-78 -22,-119 -70,-126c-19,-4 -42,-10 -51,-15c-9,-4 -53,-6 -98,-3c-80,6 -82,7 -77,29c4,13 20,37 36,54c33,34 36,46 17,69c-11,13 -11,21 -2,39c12,23 13,23 31,5c20,-20 74,-47 81,-40c9,10 -11,37 -28,37c-21,0 -61,56 -56,80c1,9 14,15 31,15c16,1 34,9 40,18c13,21 38,22 76,2zm-192,-92c-12,-48 -37,-73 -75,-73c-14,0 -136,-45 -166,-61c-24,-13 -31,-6 -18,18c5,10 12,26 15,35c4,13 13,16 39,11c19,-3 37,-1 40,4c6,10 -13,38 -31,44c-13,4 112,71 163,87c40,12 48,-3 33,-65zm-398,48c0,-5 13,-12 28,-16c15,-3 33,-14 40,-25c11,-17 8,-20 -26,-26c-20,-4 -64,-24 -98,-44l-60,-38l-62,29c-84,40 -93,58 -44,98c35,29 41,30 130,31c50,0 92,-4 92,-9zm329,-192c-17,-22 -43,-48 -58,-57c-14,-9 -28,-19 -31,-22c-3,-4 -12,-9 -20,-13c-8,-4 -22,-11 -30,-15c-8,-5 -33,-17 -55,-28c-22,-10 -52,-31 -66,-46c-14,-15 -35,-28 -45,-28c-11,0 -25,-5 -31,-11c-6,-6 -16,-10 -22,-8c-10,4 9,32 59,85c11,12 20,25 20,28c0,13 63,76 76,76c7,0 25,5 41,12c41,17 177,66 186,67c5,1 -6,-17 -24,-40zm-421,-65c27,-25 46,-27 110,-8c59,17 -17,-70 -84,-95c-28,-11 -56,-16 -62,-12c-19,12 -21,141 -2,141c6,0 23,-12 38,-26z"/>
   <path id="svg_3" d="m2618,4330c-33,-33 -64,-60 -68,-60c-14,0 -90,-80 -90,-95c0,-9 9,-15 24,-15c39,0 55,10 73,47c9,19 23,38 32,41c15,6 32,22 76,74c12,13 34,33 50,45l30,22l-34,1c-28,0 -44,-10 -93,-60z"/>
   <path id="svg_4" d="m2708,4289c-32,-32 -60,-59 -63,-59c-8,0 -38,-32 -64,-68c-39,-55 3,-75 67,-34c17,11 22,22 19,39c-3,19 8,34 60,80c45,40 63,62 61,76c-5,35 -21,28 -80,-34z"/>
   <path id="svg_5" d="m2816,4293c-8,-16 -29,-44 -46,-63c-17,-19 -38,-47 -48,-62c-9,-16 -20,-28 -24,-28c-4,0 -8,-12 -8,-26c0,-17 6,-28 19,-31c11,-3 22,-12 25,-21c7,-22 26,-50 54,-81c12,-14 22,-29 22,-33c0,-4 25,-26 56,-48c30,-23 57,-47 58,-53c19,-67 42,-135 52,-147c7,-8 15,-57 19,-108l7,-93l-118,3l-118,3l-8,32c-9,34 -115,153 -136,153c-7,0 -12,4 -12,9c0,5 -33,18 -72,31c-40,12 -85,27 -101,32c-25,10 -49,8 -172,-9c-22,-3 -60,-19 -84,-36c-60,-41 -131,-112 -131,-131c0,-9 -4,-16 -10,-16c-5,0 -10,-7 -10,-16c0,-8 -7,-22 -15,-30c-8,-9 -15,-33 -15,-54c0,-36 -2,-39 -32,-45c-49,-8 -108,-2 -108,11c0,25 -38,94 -85,157c-44,58 -61,72 -140,112c-49,25 -97,45 -105,45c-9,0 -21,5 -27,11c-11,11 -122,8 -178,-6c-62,-15 -203,-93 -214,-119c-2,-5 -11,-16 -20,-25c-9,-9 -29,-41 -45,-71c-39,-75 -44,-79 -107,-91c-30,-5 -66,-13 -82,-16c-15,-3 -27,-3 -27,0c0,18 67,174 80,187c9,9 50,83 66,118c12,26 20,32 45,32c28,0 30,2 18,16c-11,14 -2,26 69,95c49,47 82,87 82,99c0,13 7,20 20,20c15,0 20,7 20,29c0,16 -7,36 -15,45c-8,8 -15,21 -15,30c0,8 -16,42 -35,75c-19,32 -35,64 -35,70c0,6 -13,11 -30,11c-36,0 -36,-4 -6,-55c41,-67 76,-143 83,-177c6,-32 6,-32 -14,-12c-21,20 -47,64 -58,99c-5,16 -8,17 -15,5c-5,-8 -5,-21 -1,-29c5,-9 11,-27 14,-41l6,-25l-80,-1c-44,-1 -82,-4 -86,-7c-3,-3 -2,-18 1,-33c6,-21 11,-25 29,-19c12,4 56,9 97,12l75,5l-21,-20c-17,-16 -41,-21 -117,-27c-88,-7 -97,-9 -97,-28c0,-18 4,-19 53,-13c28,3 62,9 75,12c22,6 22,6 5,-25c-22,-38 -62,-55 -108,-47c-31,6 -35,4 -35,-14c0,-15 6,-20 25,-20c28,0 29,-3 15,-30c-6,-11 -17,-17 -24,-14c-20,7 -30,-14 -16,-31c13,-16 6,-50 -8,-41c-4,3 -9,-13 -11,-35c-2,-38 -65,-174 -98,-211c-11,-12 -31,-16 -90,-15c-53,2 -78,-2 -80,-10c-3,-7 -10,-13 -17,-13c-7,0 -21,-9 -31,-20c-10,-11 -24,-20 -32,-20c-7,0 -13,-5 -13,-11c0,-6 -13,-31 -30,-56c-16,-24 -30,-53 -30,-64c0,-11 -4,-28 -10,-38c-6,-12 -5,-45 3,-97c13,-81 44,-134 79,-134c8,0 19,-5 26,-12c16,-16 126,-16 146,1c9,8 18,12 20,10c2,-2 11,-41 20,-86c9,-44 23,-94 31,-110c8,-15 15,-32 15,-38c1,-5 14,-21 30,-35c17,-13 30,-29 30,-35c0,-7 13,-25 29,-41l29,-29l-32,-10l-31,-10l0,-73c0,-40 5,-76 10,-80c6,-4 16,-18 23,-32c24,-48 39,-71 66,-100c14,-16 26,-34 26,-40c0,-5 31,-40 70,-78l69,-69l-10,-89c-5,-48 -13,-93 -18,-98c-5,-6 -11,-27 -15,-47c-3,-20 -19,-50 -34,-67c-46,-52 -62,-72 -62,-77c0,-9 -40,-45 -50,-45c-6,0 -10,-6 -10,-13c0,-13 -35,-60 -72,-99c-10,-10 -18,-22 -18,-28c0,-5 -4,-10 -9,-10c-5,0 -13,-12 -19,-28c-5,-15 -21,-39 -35,-52c-15,-14 -27,-28 -27,-32c0,-8 -68,-107 -80,-118c-3,-3 -23,-40 -44,-82c-30,-59 -44,-78 -60,-78c-12,0 -75,-7 -141,-15c-66,-8 -139,-15 -161,-15c-46,0 -73,-20 -52,-37c13,-10 304,7 338,20c8,3 45,8 81,11l65,6l1,-52c0,-29 6,-54 12,-56c6,-2 11,-13 11,-24c0,-24 27,-84 53,-118c17,-23 17,-25 1,-37c-10,-7 -34,-13 -55,-13c-35,0 -69,-23 -55,-37c4,-4 27,-12 51,-18c34,-9 47,-9 57,1c7,7 56,15 113,18c212,14 293,34 279,70c-2,6 9,19 25,29c31,18 91,88 91,105c0,6 6,17 12,24c13,14 42,69 51,100c7,21 39,25 302,38c116,6 302,17 415,25c113,9 266,18 340,21c74,4 140,10 146,15c9,7 13,-3 17,-33c3,-24 12,-68 21,-98c8,-30 18,-68 21,-84c4,-16 14,-30 25,-33c24,-6 25,-19 4,-41c-24,-24 -10,-25 133,-12c71,6 169,14 218,17c50,3 95,9 100,13c6,4 22,10 38,14c15,3 27,10 27,14c-1,22 -22,35 -59,35c-23,0 -41,4 -41,8c0,5 4,9 9,9c6,0 18,13 27,29c12,20 32,35 63,45c45,14 215,30 336,31l60,0l22,-45c13,-25 23,-55 23,-67c0,-13 5,-23 10,-23c6,0 10,-5 10,-11c0,-14 49,-118 70,-149c10,-14 21,-36 25,-48c4,-13 16,-33 26,-43c10,-10 19,-26 19,-34c0,-8 4,-15 8,-15c4,0 16,-25 27,-55c10,-30 22,-55 26,-55c4,0 10,-16 13,-35c4,-19 11,-35 15,-35c5,0 12,-12 16,-27c3,-16 17,-51 31,-80c13,-28 25,-62 27,-75c2,-20 -3,-23 -38,-24c-329,-13 -604,-22 -840,-28c-110,-3 -227,-10 -260,-16c-53,-8 -211,-20 -470,-35c-131,-8 -142,-9 -390,-55c-33,-6 -69,-15 -80,-20c-11,-5 -58,-14 -105,-19c-47,-5 -93,-13 -103,-17c-16,-6 -18,-3 -16,17c2,13 -4,35 -14,49c-9,13 -17,36 -17,50c0,14 -5,31 -11,37c-7,7 -15,58 -20,115c-4,57 -12,121 -18,143c-6,22 -11,75 -11,117c0,42 -4,88 -10,102c-5,14 -12,54 -16,88l-6,63l63,13c100,21 148,30 234,41c44,7 107,16 140,22c33,6 121,15 195,19c74,5 167,13 205,18c39,6 109,14 158,17c76,6 87,9 87,25c0,10 -4,22 -10,25c-12,8 -204,-13 -244,-26c-17,-5 -86,-12 -155,-15c-69,-3 -137,-7 -151,-9c-14,-2 -56,-8 -95,-14c-71,-11 -272,-39 -312,-44c-12,-2 -26,-6 -29,-10c-4,-4 -23,-7 -43,-7c-84,0 -83,0 -78,-119c4,-103 17,-219 38,-351c6,-36 13,-101 16,-145c2,-44 9,-85 14,-91c4,-6 11,-36 15,-67c4,-33 12,-58 20,-61c8,-3 14,-17 14,-31c0,-23 4,-25 44,-25c25,0 57,5 73,11c15,6 55,15 88,19c33,5 78,13 100,18c154,39 313,64 455,73c204,11 399,29 495,44c64,10 234,16 585,20c476,5 590,13 590,38c0,5 -8,21 -18,35c-10,15 -27,53 -37,85c-11,31 -23,57 -27,57c-4,0 -8,6 -8,13c0,7 -9,30 -20,52c-11,22 -20,44 -20,49c0,5 -6,17 -13,25c-7,9 -19,34 -26,55c-12,34 -36,78 -89,161c-6,11 -16,29 -21,40c-5,11 -27,58 -50,105c-22,47 -41,91 -41,99c0,21 -34,90 -44,91c-5,0 -14,7 -20,16c-11,14 -22,14 -122,1c-60,-9 -155,-18 -211,-22l-103,-6l-1,61c-1,33 -2,66 -3,73c-1,7 14,13 39,14c22,1 112,8 200,17c212,21 397,34 578,42c136,6 147,8 147,26c0,18 -7,19 -157,12c-87,-3 -162,-9 -166,-11c-4,-3 -103,-9 -220,-14c-117,-5 -239,-11 -273,-14l-60,-5l-16,48c-9,26 -20,62 -23,79c-4,18 -11,33 -16,33c-5,0 -9,9 -9,20c0,11 -4,20 -9,20c-5,0 -12,11 -15,25c-4,14 -22,49 -41,79c-19,29 -37,65 -41,80c-3,14 -10,26 -15,26c-5,0 -9,9 -9,20c0,11 -14,32 -32,47c-69,61 -78,71 -78,86c0,9 -6,20 -13,24c-18,11 -61,134 -50,142c5,3 22,31 37,61c45,88 54,103 78,134c24,31 107,116 173,178c43,40 49,47 83,95c24,34 30,82 10,84c-7,0 -23,2 -36,3c-26,3 -122,-40 -122,-54c0,-6 -4,-10 -9,-10c-6,0 6,27 25,61c38,68 44,113 15,128c-23,13 -76,-5 -111,-37l-25,-22l-3,35c-4,49 -32,63 -82,40c-21,-9 -48,-31 -61,-49c-48,-65 -109,-161 -109,-173c0,-7 -4,-13 -10,-13c-5,0 -10,17 -10,38c-1,42 -28,82 -58,82c-45,0 -102,-90 -102,-163c0,-18 -4,-37 -9,-43c-5,-5 -15,-45 -21,-89c-28,-202 -33,-218 -64,-235c-30,-15 -58,-35 -81,-58c-8,-6 -21,-12 -30,-12c-9,0 -32,-7 -51,-16c-32,-15 -36,-15 -53,0c-25,23 -38,20 -53,-11l-13,-28l-140,1c-249,1 -435,54 -435,125c0,16 -5,48 -12,72c-9,36 -7,64 11,167c24,142 20,183 -20,188c-27,3 -97,-55 -119,-101c-19,-38 -30,-17 -30,63c-1,85 -15,163 -29,168c-6,2 -11,10 -11,17c0,20 -52,35 -76,22c-35,-20 -53,-51 -54,-92c0,-23 -5,-46 -10,-51c-8,-8 -8,-19 0,-38c12,-32 13,-69 2,-62c-4,2 -24,38 -45,79c-45,90 -83,127 -132,127c-23,0 -39,-6 -46,-19c-8,-11 -19,-16 -31,-13c-23,6 -106,105 -125,150c-7,17 -18,32 -23,32c-6,0 -10,12 -10,28c-1,52 -30,167 -46,179c-15,11 -43,7 -54,-7c-14,-19 -67,-26 -110,-15c-66,16 -90,56 -90,149c0,49 6,83 18,106c20,40 71,100 84,100c5,0 16,7 24,15c9,8 33,15 56,15c35,0 41,-4 51,-30c13,-36 31,-44 51,-25c11,11 39,15 105,15l91,0l0,-40c0,-25 7,-46 19,-57c24,-24 41,-57 41,-82c0,-12 5,-21 10,-21c6,0 10,-6 10,-13c0,-7 16,-30 35,-52c19,-22 35,-43 35,-47c0,-5 6,-8 14,-8c8,0 16,-7 20,-15c3,-8 12,-15 19,-15c8,0 20,-7 27,-15c7,-8 22,-15 34,-15c12,0 27,-5 33,-11c15,-15 112,-39 160,-39c107,0 261,66 324,140c21,25 39,52 39,61c0,8 5,20 11,26c6,6 17,41 25,78c17,80 40,104 100,105c43,0 54,-11 69,-70c10,-38 29,-80 36,-80c4,0 9,-10 13,-22c5,-23 96,-128 110,-128c3,0 25,-12 49,-27c39,-26 49,-28 142,-27c92,0 105,3 163,32c51,27 152,111 152,127c0,2 14,24 30,48c17,25 30,54 30,66c0,12 4,21 9,21c6,0 15,26 22,59c6,32 14,63 18,69c4,6 58,14 124,18c65,4 120,11 123,15c3,5 18,9 33,9c21,0 28,-5 27,-17c-2,-26 34,-29 41,-4c3,14 13,21 28,21c12,0 28,7 35,15c13,15 50,21 50,7c0,-4 10,-12 22,-17c35,-16 67,-107 68,-192c0,-121 -30,-165 -125,-181c-33,-5 -69,-13 -79,-17c-16,-7 -18,-5 -14,13c4,12 2,24 -3,27c-17,11 -51,-37 -58,-85c-4,-27 -12,-55 -18,-62c-6,-7 -13,-24 -16,-38c-4,-14 -20,-40 -37,-58c-38,-42 -40,-72 -5,-72c15,0 25,6 25,14c0,8 6,16 14,19c15,6 86,146 86,170c0,10 17,17 53,21c111,15 197,59 197,102c0,7 4,14 8,14c19,0 29,103 18,188c-5,48 -12,89 -15,92c-4,3 -15,22 -25,43c-31,61 -153,102 -186,62c-7,-8 -21,-15 -31,-15c-11,0 -19,7 -19,15c0,8 -9,15 -20,15c-14,0 -21,9 -25,38c-4,20 -9,44 -11,54c-3,9 5,23 17,32c19,13 20,18 9,31c-7,8 -19,15 -26,15c-8,0 -14,7 -14,15c0,8 5,15 10,15c6,0 10,9 10,20c0,15 -7,20 -26,20c-31,0 -28,23 4,28c34,5 27,32 -8,32c-37,0 -38,13 -5,42c14,12 25,32 25,44c0,20 -2,21 -25,11c-14,-7 -25,-18 -25,-24c0,-7 -4,-13 -10,-13c-21,0 -9,37 20,60c16,14 29,33 30,43c0,19 -24,23 -43,7c-42,-35 -61,-50 -64,-50c-9,0 -63,34 -63,40c0,8 90,40 111,40c9,0 23,8 33,19c16,17 15,19 -20,24c-42,7 -137,-9 -142,-23c-2,-6 -8,-10 -13,-10c-43,0 73,78 130,88c43,7 73,33 58,49c-4,4 -17,2 -27,-5c-11,-7 -28,-12 -37,-12c-10,0 -31,-7 -47,-15c-15,-8 -36,-15 -46,-15c-9,0 -29,-9 -43,-20c-47,-37 -38,-3 11,40c26,23 59,53 74,66c14,13 31,24 36,24c8,0 22,22 22,36c0,2 -11,4 -23,4c-14,0 -42,-17 -67,-40c-24,-22 -46,-40 -49,-40c-4,0 -13,-9 -21,-21c-8,-11 -23,-25 -32,-30c-14,-8 -16,-6 -11,8c4,10 15,27 26,38c10,11 25,31 32,45c7,14 25,36 39,49c33,31 33,51 1,51c-17,0 -29,-9 -39,-27zm-1294,-611c56,-13 114,-49 148,-91c26,-32 69,-141 70,-176c1,-32 26,-98 42,-109c18,-13 10,-90 -15,-146c-24,-55 -75,-120 -102,-130c-14,-5 -25,-14 -25,-20c0,-5 -9,-10 -20,-10c-12,0 -35,-7 -52,-16c-44,-23 -231,-23 -254,0c-8,9 -21,16 -29,16c-29,0 -145,83 -145,104c0,3 -13,25 -30,49c-16,25 -30,52 -30,60c0,9 -5,19 -11,23c-11,6 -4,87 9,108c3,5 6,21 8,35c4,43 27,121 36,121c4,0 8,6 8,13c0,8 9,22 20,32c11,10 20,22 20,27c0,15 73,77 110,93c19,9 42,20 50,25c18,12 127,7 192,-8zm970,0c37,-10 47,-16 102,-67c31,-29 45,-72 72,-212c3,-14 14,-25 29,-29c29,-7 34,-46 10,-78c-8,-11 -15,-27 -15,-35c0,-18 -62,-112 -100,-151c-38,-40 -92,-76 -125,-84c-60,-16 -174,-16 -210,0c-19,8 -35,19 -35,24c0,6 -6,10 -12,10c-31,1 -138,134 -138,172c0,9 -4,19 -9,23c-18,11 -24,66 -8,83c7,9 27,56 42,104c15,48 36,96 46,107c11,11 19,24 19,28c0,10 95,73 109,73c6,0 11,4 11,9c0,12 109,39 145,35c17,-2 46,-7 67,-12zm396,-1016c-8,-6 -19,-22 -23,-36c-4,-13 -32,-60 -61,-104c-30,-44 -54,-89 -54,-102c0,-12 -7,-24 -15,-28c-19,-7 -21,-76 -2,-76c14,0 35,23 73,80c15,22 30,40 33,40c4,0 17,20 31,45c14,25 28,45 32,45c5,0 8,4 8,9c0,20 113,141 131,141c6,0 3,-10 -5,-22c-9,-12 -16,-30 -16,-40c0,-10 -4,-18 -9,-18c-5,0 -13,-10 -16,-22c-4,-11 -33,-47 -64,-78c-66,-67 -91,-109 -91,-156c0,-27 4,-34 20,-34c22,0 27,5 113,103c52,59 108,106 167,137c43,23 17,-13 -80,-110c-55,-56 -100,-103 -100,-105c0,-3 -8,-13 -17,-24c-44,-47 -71,-85 -103,-147c-19,-37 -47,-80 -62,-96c-31,-32 -36,-56 -14,-64c8,-3 18,-19 21,-35c4,-16 10,-29 14,-29c5,0 11,-21 14,-46c2,-26 9,-49 14,-53c12,-7 73,-136 73,-154c0,-6 7,-21 15,-31c8,-11 15,-27 15,-37c0,-9 7,-30 15,-45c8,-16 15,-36 15,-45c0,-9 7,-19 15,-23c8,-3 15,-15 15,-27c0,-11 6,-35 13,-52c53,-125 67,-271 32,-344c-11,-23 -23,-43 -27,-43c-4,0 -18,-11 -32,-24c-17,-15 -49,-27 -88,-35c-35,-6 -83,-16 -108,-20c-57,-12 -136,12 -143,44c-3,11 -13,47 -22,80c-28,105 -56,219 -65,265c-12,66 -59,258 -76,311c-16,54 -19,130 -4,145c7,7 -1,22 -25,47c-28,29 -35,44 -35,76c0,22 5,43 10,46c6,3 10,15 10,26c0,10 4,19 9,19c23,0 44,61 62,178c10,70 26,155 34,189c8,34 15,71 15,82c0,12 5,31 12,44c6,12 14,29 18,37c4,8 15,17 24,18c16,3 17,-4 13,-65c-3,-37 -8,-83 -12,-100c-6,-28 -5,-33 12,-33c11,0 26,6 35,13c15,11 108,160 108,172c0,9 83,118 104,138c19,17 20,17 29,1c7,-12 5,-20 -5,-28zm-1567,-43c12,-21 17,-64 18,-178c2,-97 7,-158 16,-175c7,-14 15,-41 19,-62c7,-38 24,-52 47,-38c9,6 15,39 19,102c5,89 16,123 53,171c8,9 20,17 26,17c7,0 10,-8 7,-17c-3,-10 -8,-36 -12,-58c-4,-22 -11,-46 -16,-52c-20,-25 10,-303 36,-332c18,-20 23,-135 6,-161c-5,-9 -26,-14 -57,-15l-48,0l-1,-57c-1,-32 -6,-70 -12,-85c-6,-16 -13,-64 -17,-107c-3,-44 -9,-85 -13,-90c-6,-9 -28,-130 -34,-188c-1,-10 -6,-18 -10,-18c-4,0 -8,-12 -8,-28c0,-15 -9,-43 -20,-62c-11,-19 -34,-64 -51,-100c-54,-113 -105,-176 -162,-204c-81,-38 -146,-56 -206,-56c-69,1 -100,24 -131,100c-6,14 -16,36 -23,49c-6,13 -12,52 -12,86c0,52 6,74 35,131c19,38 38,71 41,74c3,3 19,30 35,60c16,30 32,57 37,58c4,2 7,8 7,12c0,5 13,28 29,52c16,24 48,79 70,123c23,44 46,84 52,90c5,5 9,17 9,26c0,10 6,30 14,46c43,86 64,157 72,245c4,42 12,69 20,72c33,12 13,54 -58,128c-101,104 -158,180 -196,259c-26,53 -28,89 -7,89c8,0 15,-5 15,-11c0,-5 13,-24 29,-41c16,-17 39,-52 52,-77c12,-25 44,-66 69,-91c26,-25 50,-53 53,-62c4,-10 16,-18 27,-18c11,0 20,-4 20,-10c0,-16 37,-12 44,5c7,20 -3,45 -18,45c-7,0 -30,35 -50,78c-21,42 -48,91 -60,107c-30,42 -46,81 -46,115c0,56 44,27 85,-55c11,-22 25,-44 32,-48c7,-4 13,-13 13,-18c0,-6 14,-40 30,-76c17,-35 30,-66 30,-69c0,-14 38,-44 57,-44c21,0 22,3 17,53c-3,28 -10,72 -17,97c-17,63 -16,203 2,223c18,23 24,21 42,-10zm1055,-767c8,-11 14,-36 14,-56c0,-19 7,-56 14,-81c8,-25 16,-59 18,-74c3,-27 0,-29 -57,-40c-33,-7 -89,-16 -125,-19c-36,-4 -94,-14 -130,-21c-36,-8 -150,-17 -255,-20c-104,-3 -212,-7 -240,-9c-88,-5 -114,15 -35,28c42,6 46,11 31,35c-8,13 -17,12 -61,-2c-67,-22 -80,-21 -80,2c0,15 10,19 52,24c59,7 77,19 59,41c-9,11 -20,12 -44,5c-42,-12 -67,-11 -67,1c0,6 12,15 28,20c56,21 73,34 70,54c-2,19 28,66 43,66c3,0 12,-20 19,-45c7,-25 19,-45 26,-45c8,0 14,-5 14,-11c0,-5 14,-15 30,-20c17,-6 30,-15 30,-20c0,-5 7,-9 15,-9c8,0 15,-4 15,-8c0,-5 33,-16 73,-25c67,-16 78,-16 152,-1c44,9 84,20 90,25c5,5 16,9 25,9c10,0 27,9 40,20c13,11 26,20 30,20c16,0 45,91 48,157c4,69 5,72 33,82c16,6 36,8 44,5c8,-3 24,1 37,10c23,16 23,16 26,-30c2,-26 10,-57 18,-68zm-655,45c27,-5 35,-12 37,-34c2,-15 8,-27 13,-27c5,0 9,-7 9,-14c0,-46 118,-112 183,-103c22,3 43,10 46,15c3,5 18,12 32,15c44,11 92,69 125,152c7,16 9,13 12,-18c4,-41 -31,-139 -58,-167c-16,-16 -75,-36 -150,-50c-73,-14 -158,3 -209,42c-13,10 -30,18 -38,18c-28,0 -44,30 -52,97c-8,70 -4,114 9,93c4,-7 23,-15 41,-19zm382,3c10,-10 -39,-84 -56,-84c-5,0 -15,-6 -23,-14c-34,-35 -132,-28 -174,13c-18,17 -50,63 -50,73c0,12 291,23 303,12zm857,-183c0,-9 4,-21 9,-26c6,-6 21,-30 34,-55c13,-25 29,-55 35,-65c28,-49 65,-140 82,-201l19,-65l-22,3c-14,2 -25,14 -31,33c-5,17 -15,44 -22,60c-7,17 -20,55 -30,85c-9,30 -21,59 -25,65c-5,5 -9,18 -9,28c0,10 -6,31 -14,45c-18,35 -33,70 -46,106c-9,26 -9,27 5,16c8,-7 15,-20 15,-29zm-1992,-98c-17,-32 -40,-76 -52,-98c-11,-22 -31,-51 -43,-65c-13,-14 -23,-33 -23,-42c0,-10 -5,-18 -10,-18c-6,0 -14,-8 -17,-17c-4,-10 -16,-31 -28,-48c-12,-16 -27,-45 -33,-62c-6,-18 -21,-43 -32,-55c-12,-13 -26,-33 -31,-45c-6,-17 -17,-23 -38,-23l-29,0l15,40c9,22 20,40 25,40c4,0 8,5 8,11c0,6 14,31 30,56c17,24 30,48 30,53c0,4 3,10 8,12c11,5 52,66 52,78c0,5 7,10 15,10c8,0 15,6 15,13c0,8 9,25 20,38c11,13 24,29 28,34c5,6 11,16 13,22c4,11 99,123 104,123c2,0 -11,-26 -27,-57zm1482,-77c0,-13 6,-39 14,-57c8,-19 17,-57 21,-85c6,-48 5,-52 -17,-58c-13,-3 -48,-6 -78,-6c-30,0 -73,-5 -95,-11c-22,-5 -89,-14 -150,-19c-60,-6 -150,-14 -200,-19c-118,-12 -385,-14 -385,-2c0,5 -35,7 -81,4c-66,-5 -81,-3 -77,8c2,7 21,14 44,15c83,5 124,15 124,30c0,22 -18,25 -93,16c-65,-8 -68,-8 -65,12c3,19 12,22 75,26c72,5 101,18 88,40c-5,8 -27,9 -71,5c-58,-5 -64,-4 -64,13c0,17 10,20 98,25c53,3 107,8 118,11c12,2 118,7 235,11c118,4 225,11 239,16c14,5 66,13 115,19c50,5 110,14 135,19c68,13 70,13 70,-13zm65,-284c0,-33 -1,-34 -50,-37c-27,-2 -90,-4 -140,-6c-49,-1 -95,-6 -100,-10c-6,-4 -57,-10 -115,-13c-197,-11 -305,-18 -350,-21c-186,-15 -220,-15 -220,-1c0,22 -8,23 -87,17c-61,-5 -73,-4 -73,9c0,8 4,20 8,25c4,6 110,11 272,12c146,1 299,7 340,13c41,5 125,14 185,20c61,6 130,14 155,19c25,5 74,8 110,7l65,-1l0,-33z"/>
   <path id="svg_6" d="m2375,3946c-51,-23 -106,-38 -164,-46c-60,-9 -125,-30 -142,-47c-8,-8 -4,-19 12,-37c21,-24 28,-26 69,-20c25,3 59,12 75,19c17,7 52,16 80,19c54,7 105,26 105,40c0,5 10,17 22,28c18,15 20,23 12,36c-14,22 -32,24 -69,8z"/>
   <path id="svg_7" d="m1250,3891c0,-34 4,-41 23,-45c50,-11 265,-26 283,-20c46,15 64,28 64,49c0,20 -8,23 -102,35c-57,7 -140,15 -185,17l-83,4l0,-40z"/>
   <path id="svg_8" d="m2049,2948c-15,-10 -15,-15 -1,-50c14,-35 14,-41 -4,-76c-22,-43 -37,-57 -80,-76c-27,-12 -38,-12 -75,1c-76,25 -83,34 -87,118c-4,71 -6,75 -27,75c-30,0 -33,-10 -22,-93c12,-94 32,-118 122,-149c54,-18 59,-18 103,-2c26,10 52,23 58,31c6,7 16,13 23,13c6,0 11,7 11,15c0,8 4,15 9,15c16,0 31,85 24,138c-6,54 -19,64 -54,40z"/>
   <path id="svg_9" d="m3315,914c-11,-8 -26,-19 -33,-23c-7,-4 -19,-25 -26,-45c-20,-59 4,-97 77,-120c32,-10 76,6 115,44c32,30 39,42 35,64c-3,14 -9,26 -14,26c-5,0 -9,7 -9,15c0,8 -10,23 -22,35c-26,24 -93,27 -123,4z"/>
   <path id="svg_10" d="m1788,867c-21,-8 -28,-18 -28,-38c0,-15 5,-31 10,-34c6,-3 10,-22 10,-41c0,-19 6,-37 13,-40c17,-6 137,22 150,35c18,18 12,102 -8,117c-22,16 -108,17 -147,1z"/>
   <path id="svg_11" d="m3180,839c0,-19 -58,-69 -80,-69c-21,0 -22,6 -3,58c3,6 1,12 -5,12c-18,0 -42,-12 -42,-21c0,-16 -36,-46 -67,-57c-28,-9 -32,-8 -42,14c-6,14 -19,24 -31,24c-25,0 -25,-5 1,-46c24,-39 40,-42 94,-14c35,18 41,19 51,5c21,-29 62,-18 109,30c46,45 57,75 30,75c-8,0 -15,-5 -15,-11z"/>
   <path id="svg_12" d="m1208,779c-21,-5 -56,-20 -78,-34c-22,-14 -51,-25 -64,-25c-16,0 -39,-14 -60,-35c-20,-19 -42,-35 -51,-35c-8,0 -15,-4 -15,-9c0,-4 -39,-28 -87,-52c-49,-24 -90,-46 -93,-50c-12,-14 -203,-129 -215,-129c-7,0 -15,-4 -17,-8c-3,-10 -46,-34 -90,-53c-16,-6 -28,-15 -28,-20c0,-5 -8,-9 -17,-9c-10,0 -31,-7 -47,-15c-15,-8 -37,-15 -47,-15c-10,0 -24,-7 -31,-16c-25,-30 -113,-116 -142,-137c-16,-12 -37,-30 -47,-40c-11,-9 -24,-17 -29,-17c-6,0 -10,-14 -10,-31c0,-31 0,-31 43,-25c23,4 76,10 117,15c41,5 90,15 108,21c18,7 50,10 71,6c24,-3 44,-1 57,8c10,7 38,17 62,21c24,4 56,13 70,21c15,8 33,14 40,14c6,0 12,4 12,9c0,5 9,11 20,14c11,3 20,11 20,19c0,7 9,18 20,23c11,6 68,34 127,63c60,29 122,60 138,68c17,9 41,22 55,29c14,7 43,21 65,31c22,11 42,22 45,26c3,3 18,10 33,13c15,4 27,13 27,21c0,8 5,14 10,14c6,0 16,5 23,10c7,6 21,17 32,25c17,12 18,17 7,34c-10,17 -10,21 1,21c18,0 67,48 78,77c17,46 11,99 -17,132c-27,33 -36,34 -96,20zm-132,-166c31,-42 37,-74 14,-80c-10,-3 -20,-13 -23,-22c-3,-13 -12,-16 -41,-13c-33,4 -36,2 -36,-20c0,-18 -9,-28 -35,-40c-19,-8 -35,-12 -35,-7c0,5 -12,9 -26,9c-22,0 -25,-4 -22,-27c2,-21 -2,-28 -25,-36c-22,-7 -32,-5 -46,7c-31,28 -44,20 -37,-22c5,-34 3,-40 -18,-50c-20,-9 -27,-7 -45,14c-23,26 -29,28 -51,14c-12,-8 -11,-13 9,-34c25,-27 21,-46 -9,-46c-13,0 -22,9 -26,25c-4,16 -13,25 -26,25c-18,0 -20,-5 -15,-39c7,-53 -10,-68 -39,-36c-19,21 -64,35 -64,20c0,-10 25,-61 34,-66c5,-4 -2,-10 -15,-14c-17,-6 -26,-3 -34,10c-21,37 -57,75 -71,75c-31,0 -10,18 62,56c41,21 83,44 92,49c17,10 160,96 205,123c45,27 282,150 293,151c5,0 19,-11 30,-26zm-704,-404c38,-37 40,-42 28,-64c-10,-19 -24,-25 -69,-30c-31,-4 -64,-9 -73,-11c-13,-4 -21,3 -28,21c-5,14 -10,28 -10,30c0,10 64,65 76,65c8,0 17,7 20,15c8,21 10,20 56,-26z"/>
   <path id="svg_13" d="m1876,703c-4,-5 -31,-13 -59,-18l-52,-10l-1,-65c-1,-36 3,-71 9,-78c14,-18 145,-13 164,6c15,15 9,111 -9,150c-11,22 -38,29 -52,15z"/>
   <path id="svg_14" d="m3100,682c-19,-2 -40,-8 -47,-13c-6,-6 -38,-13 -70,-15c-32,-3 -67,-9 -78,-14c-11,-5 -36,-11 -56,-15c-31,-5 -36,-9 -32,-26c5,-19 10,-20 77,-14c39,4 80,11 92,15c11,5 45,11 76,15c54,7 56,6 62,-19c4,-15 4,-30 2,-35c-6,-8 -94,-30 -141,-34c-23,-1 -31,-8 -33,-25c-3,-22 -1,-22 45,-16c91,13 137,11 141,-8c4,-19 -36,-32 -133,-44c-82,-9 -115,-36 -58,-47c29,-5 102,6 191,30l54,15l-7,86c-4,48 -11,95 -16,104c-5,9 -9,25 -9,36c0,24 -13,29 -60,24z"/>
   <path id="svg_15" d="m3412,668c-13,-13 -16,-45 -4,-50c8,-3 42,-106 42,-126c0,-8 -18,-12 -47,-12c-57,0 -78,-11 -69,-35c5,-15 18,-17 104,-12c147,9 187,18 187,42c0,16 -7,20 -35,20c-19,-1 -45,-4 -57,-9c-19,-6 -23,-4 -23,13c0,11 -4,23 -10,26c-5,3 -10,16 -10,28c0,12 -6,34 -14,48c-7,14 -16,37 -20,52c-7,29 -24,35 -44,15z"/>
   <path id="svg_16" d="m2606,591c-60,-9 -80,-31 -71,-81c8,-43 23,-56 76,-64c23,-4 51,-12 62,-18c21,-11 21,-11 -2,-29c-28,-23 -59,-24 -81,-4c-14,13 -19,13 -36,1c-18,-14 -18,-15 0,-35c14,-16 31,-21 67,-21c50,0 109,26 109,48c0,6 4,12 9,12c5,0 12,7 15,17c7,18 -24,53 -48,53c-24,0 -110,31 -118,43c-3,5 -4,17 -1,25c4,10 21,13 67,10c53,-3 61,-1 64,16c7,34 -16,40 -112,27z"/>
   <path id="svg_17" d="m2237,523c-2,-5 -1,-41 4,-82c4,-41 6,-78 3,-83c-3,-4 -25,-8 -50,-8c-38,0 -44,-3 -44,-21c0,-21 3,-22 90,-15c50,4 102,11 116,16c14,6 43,10 64,10c37,0 58,19 44,42c-5,8 -94,3 -136,-8c-13,-4 -18,5 -23,43c-10,73 -27,113 -46,113c-10,0 -20,-3 -22,-7z"/>
   <path id="svg_18" d="m1920,399c-14,-4 -42,-11 -62,-14c-38,-6 -38,-6 -38,-53c0,-27 5,-53 12,-60c16,-16 62,-15 118,2c43,13 45,15 51,57c5,35 3,48 -12,62c-20,18 -31,20 -69,6z"/>
  </g>
  <line stroke-linecap="undefined" stroke-linejoin="undefined" id="svg_19" y2="171.5" x2="133" y1="147.5" x1="123" stroke-width="5" stroke="#000" fill="none"/>
  <line stroke-linecap="undefined" stroke-linejoin="undefined" id="svg_20" y2="166.5" x2="151" y1="142.5" x1="141" stroke-width="5" stroke="#000" fill="none"/>
  <path stroke="#000" d="m240,157.5c0,-1.8 -0.922007,-3.455832 -1.820513,-3.6c-2.841315,-0.455891 -4.558102,-1.690041 -5.461538,-1.8c-3.724959,-0.453392 -5.182486,-1.312921 -6.371795,-1.8c-3.363862,-1.377658 -7.282051,-1.8 -10.01282,-1.8c-1.820513,0 -2.730769,0 -6.371795,0c-4.551282,0 -5.461538,0 -10.01282,0c-3.641026,0 -6.371795,0 -9.102564,0c-2.730769,0 -3.641026,0 -5.461538,0c-0.910256,0 -3.641026,0 -5.461538,0c-0.910256,0 -0.999357,0.741989 -2.730769,1.8c-1.548628,0.946321 -3.641026,0.9 -5.461538,0.9l-2.730769,1.8" id="svg_34" fill-opacity="null" stroke-opacity="null" stroke-width="5" fill="none"/>
  <path stroke="#000" d="m147,266.5c0,2.5 2.5,3.75 5,5l0,0" id="svg_35" fill-opacity="null" stroke-opacity="null" stroke-width="5" fill="none"/>
  <path stroke="#000" d="m235,260.5c0,2.5 4,3.75 8,5l0,0" id="svg_36" fill-opacity="null" stroke-opacity="null" stroke-width="5" fill="none"/>
  <path d="m185,342.5c1,0 4.012909,0.160187 5,0c3.121445,-0.506531 6,-1 7,-1c2,0 5,-1 6,-1c1,0 3,0 4,0c3,0 4,0 5,0c1,0 2,0 4,0l1,0" id="svg_37" fill-opacity="null" stroke-opacity="null" stroke-width="5" stroke="#000" fill="none"/>
 </g>
</svg>