<svg width="621" height="501" xmlns="http://www.w3.org/2000/svg" preserveAspectRatio="xMidYMid meet">
 <metadata>Created by potrace 1.15, written by Peter Selinger 2001-2017</metadata>

 <g>
  <title>background</title>
  <rect fill="none" id="canvas_background" height="402" width="582" y="-1" x="-1"/>
 </g>
 <g>
  <title>Layer 1</title>
  <g id="svg_1" fill="#000000" transform="translate(0,501) scale(0.10000000149011612,-0.10000000149011612) ">
   <path id="svg_2" d="m2515,4608c-98,-13 -107,-15 -185,-43c-41,-15 -86,-29 -100,-31c-13,-3 -29,-9 -35,-13c-12,-10 -73,-30 -110,-37c-35,-6 -135,-60 -149,-80c-10,-12 -34,-16 -117,-18c-100,-2 -107,-4 -171,-40c-38,-21 -68,-41 -68,-45c0,-4 -20,-29 -45,-55c-48,-52 -81,-102 -115,-176c-12,-24 -26,-47 -31,-51c-6,-3 -11,-12 -12,-20c-2,-8 -5,-18 -8,-24c-12,-19 -46,-126 -55,-170c-3,-16 -8,-37 -11,-45c-30,-77 -38,-159 -37,-340c2,-102 5,-198 9,-215c17,-77 46,-235 50,-270c6,-58 30,-158 45,-186c8,-13 12,-26 11,-29c-6,-15 24,-102 38,-110c9,-5 75,-9 147,-9c71,0 153,-4 182,-8l53,-8l-57,-60c-32,-33 -87,-94 -123,-135c-36,-41 -74,-84 -85,-96c-12,-12 -30,-33 -41,-48c-11,-14 -45,-51 -75,-81c-30,-30 -51,-55 -46,-55c4,0 -6,-12 -23,-26c-25,-21 -29,-29 -21,-45c6,-10 17,-19 24,-19c33,0 29,-76 -9,-149c-14,-28 -25,-53 -25,-56c0,-3 -11,-27 -24,-53c-13,-26 -27,-64 -30,-84c-3,-20 -17,-57 -31,-82c-14,-25 -23,-46 -20,-46c2,0 -8,-24 -24,-52c-15,-29 -29,-57 -31,-63c-6,-23 -25,-60 -33,-66c-5,-3 -9,-12 -11,-20c-1,-8 -12,-36 -25,-64c-12,-27 -24,-57 -26,-66c-2,-8 -14,-42 -28,-75c-13,-32 -28,-70 -32,-84c-4,-14 -21,-60 -38,-102l-31,-78l-45,-2c-112,-4 -451,9 -483,18c-9,3 -19,0 -23,-6c-8,-13 -8,-321 0,-342c8,-21 45,-26 200,-27c72,-1 149,-4 173,-7c42,-6 42,-7 43,-48c0,-22 2,-48 3,-56c2,-8 9,-54 16,-102c13,-93 32,-135 49,-108c8,11 5,17 -12,23c-21,8 -21,9 -4,22c16,11 17,21 9,77c-10,80 -8,146 6,160c8,8 10,1 6,-24c-7,-42 9,-78 35,-78c16,0 30,24 32,57c0,5 7,12 15,16c25,14 17,36 -12,31c-18,-3 -23,-1 -18,7c6,10 54,9 172,-5c44,-5 57,-30 54,-109c-1,-39 -7,-84 -13,-99c-6,-16 -9,-39 -7,-53c3,-14 1,-28 -3,-31c-18,-11 -8,-25 14,-22c14,2 23,11 25,26c2,12 7,20 12,17c13,-8 22,13 26,59c12,161 15,193 20,208c5,15 20,16 162,11c86,-3 184,-6 217,-5c227,4 579,13 795,20c140,5 583,8 984,7l729,-2l38,-74c21,-40 36,-76 33,-80c-2,-4 3,-12 11,-19c7,-6 21,-34 30,-61c12,-35 22,-49 33,-47c28,5 24,53 -13,132c-45,99 -45,113 3,125c94,25 98,25 85,10c-6,-8 -8,-20 -4,-27c6,-10 10,-10 20,1c6,8 10,21 9,28c-4,21 51,24 58,5c8,-20 30,-21 41,-1c12,20 51,8 59,-19c14,-44 3,-124 -28,-204c-2,-4 -9,-6 -15,-6c-7,1 -13,-2 -13,-7c0,-5 5,-9 10,-9c6,0 14,-11 19,-23c9,-24 33,-29 59,-13c6,4 12,22 12,40c0,18 3,36 7,40c7,7 20,55 45,173l11,51l191,1c105,1 200,3 211,6c11,2 24,4 28,4c4,1 3,10 -3,21c-8,14 -8,55 0,140c13,154 8,170 -57,171c-27,1 -57,2 -68,3c-11,2 -65,-1 -120,-6c-211,-17 -529,-27 -540,-16c-3,2 15,25 39,50c90,95 105,165 64,304c-17,58 -34,89 -75,139c-33,40 -49,66 -42,70c6,4 8,17 5,29c-2,11 -8,82 -12,156c-5,116 -9,173 -13,201c-2,16 -37,17 -109,4c-42,-8 -89,-15 -103,-15c-24,0 -45,-22 -41,-42c8,-37 -60,45 -133,161c-10,17 -23,31 -27,31c-4,0 -8,6 -8,14c0,8 -8,21 -18,28c-9,7 -25,24 -33,38c-9,14 -28,37 -43,53l-26,28l40,27c58,40 53,59 -30,126c-39,31 -72,56 -75,56c-2,0 -15,10 -28,22c-43,42 -92,84 -127,108c-19,14 -46,37 -59,53c-14,15 -31,27 -38,27c-7,0 -17,9 -23,19c-8,16 -7,20 7,19c44,-3 159,15 170,25c6,7 18,35 27,62c8,28 25,77 36,110c11,33 23,71 25,85c7,39 23,111 34,155c5,22 13,56 16,75c3,19 12,69 20,110c25,126 32,237 30,420c-2,153 -6,188 -30,278c-14,57 -37,128 -51,158c-13,30 -24,59 -24,64c0,5 -13,29 -30,53c-16,25 -30,49 -30,54c0,4 -9,14 -20,21c-11,7 -20,19 -20,26c0,20 -161,181 -185,185c-11,2 -22,6 -25,10c-10,14 -152,81 -182,86c-17,3 -38,10 -47,14c-28,15 -154,43 -206,47c-27,2 -84,6 -125,9c-141,10 -165,11 -225,3zm226,-107c30,-6 73,-12 96,-15c61,-8 94,-17 136,-38c20,-10 37,-16 37,-13c0,2 23,-9 50,-25c28,-16 50,-27 50,-24c0,3 16,-8 35,-25c20,-17 39,-31 44,-31c12,0 135,-120 164,-160c36,-50 79,-132 118,-225c34,-80 34,-80 34,-247c0,-91 -3,-169 -6,-172c-3,-4 -13,-4 -21,-1c-10,4 -14,24 -15,69c-3,148 -17,239 -52,336c-70,196 -110,255 -243,365c-58,48 -179,115 -209,115c-8,0 -19,4 -25,9c-5,5 -28,12 -52,15c-24,3 -62,11 -85,18c-56,16 -321,17 -367,1c-19,-7 -60,-15 -90,-19c-30,-3 -84,-13 -120,-21c-106,-24 -126,-26 -115,-15c18,18 214,81 273,88c31,3 75,10 97,14c58,11 202,12 266,1zm537,-86c12,-3 22,-10 22,-15c0,-5 10,-12 22,-16c21,-6 66,-51 120,-117c13,-15 31,-35 41,-45c9,-9 17,-20 17,-24c0,-5 11,-25 24,-46c13,-21 27,-58 31,-82c4,-25 13,-52 19,-60c14,-17 34,-65 39,-95c12,-65 20,-95 27,-95c5,0 11,-19 15,-42c4,-24 9,-52 11,-63c5,-24 5,-281 0,-350c-5,-70 -14,-130 -32,-202c-8,-34 -17,-82 -19,-105c-3,-23 -16,-79 -30,-123c-13,-44 -27,-101 -29,-127c-3,-26 -15,-68 -27,-95c-12,-26 -22,-53 -23,-61c-3,-21 -30,-32 -85,-38c-45,-4 -50,-2 -57,18c-16,47 -11,88 17,130c15,23 26,45 24,49c-3,4 2,12 10,19c8,7 15,18 15,24c0,7 6,18 13,25c6,6 12,15 13,19c2,15 18,48 31,64c8,9 16,22 17,30c2,7 13,36 25,63c13,28 25,60 27,73c3,13 16,53 30,90c14,37 28,87 30,112c3,25 9,59 14,75c20,65 22,208 5,280c-9,39 -18,90 -20,115c-2,25 -15,73 -29,106c-14,34 -27,70 -29,80c-5,30 -38,94 -49,94c-5,0 -7,4 -4,8c7,12 -53,100 -121,179c-13,14 -23,29 -23,32c0,9 -146,131 -156,131c-5,0 -22,11 -39,25c-29,25 -29,25 30,-4c33,-16 70,-32 83,-36zm-473,-9c28,-8 67,-17 87,-20c46,-7 177,-67 203,-92c10,-11 21,-19 24,-19c15,-1 111,-93 136,-131c28,-43 92,-173 110,-223c16,-47 14,-66 -4,-32c-12,21 -154,103 -229,133c-24,9 -49,21 -55,26c-7,5 -39,18 -72,27c-33,10 -75,24 -93,32c-18,8 -40,16 -50,18c-9,3 -48,14 -87,25c-38,11 -85,23 -103,26c-18,3 -52,14 -76,24c-24,11 -61,22 -82,26c-21,3 -46,9 -54,14c-12,6 -36,12 -130,35c-15,4 -80,15 -110,19c-19,3 -59,10 -89,16c-29,5 -55,10 -57,10c-2,0 -4,5 -4,10c0,6 3,9 8,8c4,-1 49,8 101,21c51,12 112,24 135,27c22,2 73,13 111,24c57,15 94,18 200,15c75,-2 151,-10 180,-19zm-877,-208c5,-24 6,-47 3,-53c-7,-13 -31,-75 -35,-95c-2,-8 -16,-41 -30,-72c-14,-31 -26,-61 -26,-65c0,-5 -9,-18 -19,-30c-10,-11 -27,-35 -36,-53c-23,-44 -105,-131 -117,-124c-8,5 -2,79 7,94c2,3 6,26 10,50c3,25 15,71 26,103c11,31 22,68 25,82c11,61 133,203 176,205c4,0 11,-19 16,-42zm102,-43c41,-40 100,-88 100,-80c0,4 18,-7 39,-24c21,-17 43,-31 48,-31c6,0 23,-11 39,-25c16,-14 34,-25 40,-25c6,0 26,-10 45,-23c19,-12 93,-48 164,-80c127,-56 172,-77 285,-130c30,-15 73,-33 95,-41c96,-34 144,-53 157,-62c7,-5 24,-9 38,-9c14,0 30,-7 37,-15c11,-13 12,-13 13,0c0,10 3,11 8,4c9,-14 62,-27 62,-15c0,5 -10,11 -22,14c-12,4 -19,9 -15,13c3,3 14,3 24,-1c10,-5 21,-8 25,-7c4,1 4,-6 1,-15c-4,-10 -2,-14 4,-10c5,4 19,0 29,-8c10,-8 15,-15 9,-15c-5,-1 -19,-4 -30,-7c-11,-2 -30,-4 -43,-4c-13,1 -21,-3 -17,-8c3,-5 1,-13 -5,-16c-6,-4 -10,-3 -9,2c5,27 -3,34 -33,31c-49,-5 -49,-33 -1,-48c38,-13 72,-34 43,-28c-16,3 -16,-4 -4,-36c5,-13 4,-17 -3,-13c-6,4 -16,-7 -23,-26c-6,-17 -17,-43 -23,-57c-5,-14 -11,-30 -13,-36c-2,-12 -67,-108 -93,-137c-69,-79 -140,-138 -209,-172c-73,-36 -82,-39 -172,-39c-90,-1 -126,6 -228,41c-23,8 -48,16 -55,17c-41,6 -227,157 -227,184c0,7 -4,12 -9,12c-5,0 -13,9 -16,20c-3,11 -13,26 -21,34c-7,8 -15,23 -17,33c-2,10 -11,35 -20,57c-21,47 -21,66 -3,66c13,0 26,19 32,47c3,18 -47,5 -82,-22c-17,-13 -34,-21 -38,-18c-3,4 -6,2 -6,-4c0,-6 -7,-14 -16,-17c-15,-6 -15,-4 -3,10c12,15 12,17 -1,12c-8,-2 -15,-13 -15,-24c0,-16 7,-19 40,-18c42,2 55,-8 55,-41c0,-11 14,-47 30,-80c16,-33 30,-66 30,-72c0,-7 4,-13 9,-13c6,0 18,-13 28,-30c9,-16 21,-30 25,-30c4,0 31,-22 60,-50c29,-27 57,-50 62,-50c5,0 23,-10 40,-23c34,-26 58,-36 96,-43c14,-3 54,-14 90,-25c101,-32 210,-33 289,-3c37,14 71,26 76,28c31,9 52,23 69,43c10,13 20,22 22,20c9,-9 126,121 181,200c52,73 106,221 91,247c-5,9 -6,16 -2,16c3,0 0,8 -7,18c-11,14 -11,15 1,5c28,-26 74,-7 51,20c-7,10 -4,13 12,14c13,1 17,-1 10,-5c-7,-5 -9,-13 -4,-21c12,-19 34,-3 28,20c-4,15 0,17 22,14c26,-5 79,-13 95,-14c11,-1 2,-71 -18,-146c-10,-33 -18,-64 -20,-70c-12,-47 -33,-95 -60,-132c-17,-24 -38,-56 -46,-71c-17,-30 -133,-146 -176,-177c-79,-56 -231,-125 -287,-131c-18,-1 -72,-12 -122,-24c-113,-26 -310,-30 -400,-7c-33,8 -91,20 -129,27c-38,6 -85,19 -105,29c-20,11 -40,20 -46,21c-64,14 -237,176 -250,233c-1,7 -10,30 -20,52c-29,65 -65,262 -65,355l0,85l40,45c84,94 165,200 153,200c-3,0 3,10 14,23c24,26 86,154 89,182c1,11 8,38 17,60c8,22 18,48 21,58c7,23 16,22 46,-8zm344,-166c20,-11 50,-23 68,-26c18,-3 57,-16 86,-29c29,-13 56,-24 61,-24c5,0 30,-10 57,-22c27,-12 54,-23 59,-24c6,-1 39,-12 75,-24c36,-12 72,-23 80,-25c8,-2 58,-14 110,-29c52,-14 120,-28 152,-30c31,-3 68,-10 82,-16c14,-5 51,-10 81,-11c31,-1 58,-6 61,-10c2,-5 16,-4 29,1c14,5 26,8 26,7c7,-14 2,-117 -6,-120c-5,-2 -38,2 -73,9c-106,22 -126,26 -144,27c-10,1 -18,6 -18,12c0,5 -5,3 -10,-5c-6,-10 -10,-11 -10,-2c0,6 -11,12 -24,12c-13,0 -29,6 -35,14c-11,13 -25,18 -86,30c-28,6 -157,62 -210,91c-24,14 -48,25 -54,25c-5,0 -52,20 -104,45c-53,25 -98,45 -102,45c-7,0 -52,19 -115,49c-35,16 -88,51 -77,51c3,0 22,-9 41,-21zm-877,-241c2,-43 14,-133 23,-171c7,-34 5,-42 -21,-72c-17,-19 -30,-37 -29,-40c1,-3 -1,-24 -5,-46c-11,-64 -25,-26 -20,56c5,84 28,248 40,283c7,18 11,15 12,-10zm110,-282c0,-41 6,-89 12,-107c6,-19 13,-59 16,-89c3,-30 8,-63 11,-72c10,-34 -44,-16 -88,29c-23,24 -39,43 -36,43c4,0 1,15 -6,33c-25,65 -2,162 43,187c11,5 23,19 26,30c13,40 21,18 22,-54zm1863,-6c0,-13 7,-20 18,-20c10,0 20,-6 21,-12c10,-65 12,-111 6,-126c-5,-9 -9,-23 -11,-31c-1,-8 -10,-18 -18,-23c-8,-5 -21,-14 -28,-22c-7,-7 -24,-18 -37,-25c-23,-13 -23,-12 -18,31c2,23 14,71 26,105c12,35 23,81 24,103c2,40 17,58 17,20zm-1933,-320c26,0 115,-60 162,-109c133,-140 156,-161 173,-166c10,-4 18,-10 18,-15c0,-5 8,-16 17,-26c21,-21 23,-87 2,-129c-13,-28 -18,-30 -81,-33c-59,-3 -70,0 -85,19c-10,12 -26,30 -37,40c-24,23 -61,87 -71,124c-8,30 -30,75 -37,75c-4,0 -8,5 -8,11c0,6 -15,46 -34,88c-18,42 -36,92 -39,111c-3,19 -3,29 0,23c2,-7 12,-13 20,-13zm613,-404c0,-21 -17,-39 -25,-27c-5,9 -10,9 -20,1c-17,-14 -8,-43 11,-36c16,6 13,-28 -6,-63c-6,-12 -8,-21 -5,-21c6,0 -34,-111 -46,-125c-4,-6 -10,-23 -13,-39c-7,-38 -27,-99 -37,-111c-4,-6 -11,-26 -14,-45c-3,-19 -16,-50 -28,-70c-12,-19 -22,-37 -23,-40c0,-3 -6,-17 -12,-32c-25,-58 -34,-84 -38,-105c-2,-13 -15,-42 -28,-65c-13,-24 -24,-47 -25,-53c0,-5 -8,-27 -17,-47c-16,-37 -32,-46 -48,-30c-4,4 -11,7 -14,7c-4,1 -31,13 -59,28c-29,15 -54,27 -55,26c-8,-3 -58,25 -58,33c0,4 -6,8 -14,8c-8,0 -33,16 -56,35c-23,19 -55,43 -71,52c-21,13 -28,23 -25,40c6,30 15,44 26,38c5,-3 12,4 15,16c7,23 58,94 100,142c14,15 22,27 18,27c-3,0 6,12 21,26c14,15 26,30 26,35c0,4 9,11 21,14c11,4 25,17 31,30c5,12 21,29 34,36c13,7 22,14 20,16c-5,6 105,115 138,136c20,14 31,16 39,8c20,-20 40,-13 35,14c-4,18 1,29 18,40c13,8 50,39 84,69c43,38 66,53 80,49c11,-3 20,-10 20,-17zm888,-26c23,-13 42,-27 42,-31c0,-4 10,-11 23,-14c12,-4 34,-19 50,-33c15,-14 27,-24 27,-21c0,3 25,-19 56,-48c31,-29 60,-53 65,-53c4,0 23,-14 41,-30c18,-17 45,-42 60,-55c15,-14 31,-25 36,-25c5,0 17,-12 27,-26c9,-14 19,-24 22,-21c2,3 22,-14 43,-36c119,-127 128,-143 105,-186c-21,-42 -106,-101 -133,-94c-18,4 -22,1 -22,-17c0,-25 -16,-40 -72,-70l-38,-20l6,30c5,23 3,30 -10,30c-9,0 -15,-3 -15,-7c7,-44 -1,-53 -49,-53l-48,0l-33,67c-18,37 -27,62 -19,56c22,-18 71,-4 86,24c13,24 -19,65 -53,69c-20,2 -27,-3 -32,-24c-4,-15 -6,-34 -5,-42c1,-8 -10,7 -24,34c-15,28 -27,55 -28,61c-1,6 -14,34 -29,63c-15,28 -25,52 -22,52c4,0 -8,25 -25,56c-17,31 -32,63 -33,73c-2,9 -13,39 -26,66c-13,28 -24,55 -25,60c-6,24 -21,52 -38,74c-10,13 -16,26 -13,29c3,3 12,-4 21,-16c8,-12 19,-20 24,-17c4,3 11,-6 14,-20c8,-30 22,-32 36,-5c7,14 7,20 0,20c-5,0 -10,12 -10,28c-1,62 -67,97 -80,42l-6,-25l-7,25c-4,14 -7,35 -7,46c0,19 4,21 38,14c21,-3 57,-17 80,-30zm-279,-33c1,-5 -3,-5 -9,-2c-5,3 -16,3 -22,-2c-7,-4 -20,-8 -28,-10c-8,-1 -16,-7 -18,-12c-2,-6 -14,-11 -27,-11c-12,0 -28,-7 -35,-16c-9,-10 -24,-14 -46,-11c-21,3 -38,0 -45,-9c-8,-10 -16,-11 -29,-4c-10,5 -35,9 -57,9c-73,-1 -92,3 -99,23c-3,11 -17,24 -30,30c-13,6 -24,17 -24,25c0,11 4,11 23,-1c29,-20 116,-33 197,-30c93,3 129,10 185,38c45,21 51,22 57,7c4,-9 7,-20 7,-24zm129,-23c-3,-3 19,-52 48,-110c30,-57 52,-104 49,-104c-3,0 6,-23 21,-51c14,-29 27,-60 29,-71c2,-10 18,-45 34,-78c17,-33 29,-60 26,-60c-2,0 7,-16 20,-36c13,-20 27,-51 31,-70c3,-19 10,-34 15,-34c5,0 9,-8 9,-18c0,-10 7,-28 16,-40c8,-12 13,-22 9,-22c-3,0 6,-21 20,-47c14,-27 25,-55 25,-63c0,-8 8,-29 19,-45c10,-17 24,-48 31,-70c7,-22 23,-58 34,-80c12,-22 30,-62 40,-90c10,-27 26,-69 37,-92c10,-24 19,-46 19,-50c0,-3 7,-14 15,-24c15,-15 11,-19 -51,-48c-37,-18 -75,-33 -83,-35c-23,-4 -55,-18 -61,-26c-8,-12 -159,-79 -188,-84c-34,-6 -94,-26 -108,-37c-6,-5 -19,-10 -30,-12c-10,-2 -41,-13 -69,-26c-27,-12 -60,-25 -72,-27c-12,-2 -33,-8 -45,-13c-23,-9 -50,-8 -263,4c-60,4 -184,8 -275,10c-178,4 -350,19 -445,39l-60,12l-3,42c-3,39 7,77 79,298c11,34 23,76 25,94c3,17 13,51 23,73c16,37 29,78 36,112c2,6 13,33 25,59c12,27 23,58 25,69c3,11 14,37 25,59c11,22 21,47 23,56c1,10 13,36 25,60c12,23 22,50 22,60c0,9 13,45 29,79c16,34 26,65 23,70c-4,4 5,-2 19,-14c29,-26 49,-30 49,-9c0,7 11,21 24,30c14,9 23,23 21,33c-2,10 -4,22 -4,26c-1,9 -53,3 -70,-7c-9,-6 0,42 13,62c3,5 7,22 10,38c3,16 15,48 26,71c11,23 21,53 22,66c2,22 4,23 35,14c31,-10 48,-30 21,-25c-16,4 -22,-79 -6,-88c15,-10 29,18 16,34c-8,9 -8,16 -1,23c8,8 13,5 18,-10c5,-16 15,-21 41,-21c22,0 34,-5 34,-13c0,-14 38,-54 46,-50c52,30 62,32 68,17c4,-11 16,-15 38,-13c37,3 61,17 52,30c-7,12 13,11 37,-2c15,-8 26,-6 46,9c25,18 27,18 45,0c10,-10 22,-18 27,-18c18,0 59,52 56,70c-3,17 -1,18 20,8c19,-9 29,-6 54,11c17,12 31,29 31,36c0,16 40,62 54,64c5,1 7,-2 4,-5zm837,-669c11,-16 31,-41 45,-56c44,-50 50,-58 50,-67c0,-5 9,-17 20,-27c11,-10 20,-22 20,-26c0,-9 57,-90 87,-124c25,-28 53,-86 53,-110c0,-11 6,-43 14,-72c12,-43 12,-56 0,-78c-7,-14 -11,-32 -8,-40c3,-7 -4,-18 -16,-25c-11,-6 -18,-15 -15,-20c3,-4 -6,-17 -19,-28c-14,-10 -28,-32 -32,-48c-3,-16 -13,-40 -22,-54c-24,-38 -18,-218 8,-244c5,-5 10,-17 10,-27c0,-9 14,-33 30,-54c17,-21 29,-39 28,-40c-2,-1 -25,1 -53,3c-49,4 -50,4 -49,35c1,48 -6,66 -30,73c-37,11 -46,23 -36,50c7,18 6,31 -5,48c-9,13 -15,42 -14,67c1,24 -3,69 -9,99c-6,30 -14,85 -17,123c-9,105 -16,117 -69,117c-25,0 -69,-10 -98,-21c-29,-12 -66,-23 -83,-25c-29,-4 -31,-2 -73,98c-24,57 -52,121 -63,143c-10,22 -21,54 -25,70c-4,17 -17,48 -30,70c-23,39 -23,41 -4,42c11,1 30,11 42,23c13,12 48,38 78,57c30,20 59,43 63,50c4,7 14,13 22,13c7,0 20,6 27,13c7,7 33,27 58,44l45,31l25,-28c14,-15 34,-40 45,-55zm-2213,-73c18,-15 65,-43 103,-62c39,-19 81,-41 94,-49c13,-8 33,-17 45,-18c35,-6 37,-17 11,-65c-14,-26 -27,-55 -29,-65c-1,-10 -15,-44 -30,-76c-14,-32 -26,-62 -26,-68c0,-5 -9,-28 -21,-51c-11,-22 -22,-48 -24,-57c-6,-29 -34,-89 -45,-96c-6,-4 -8,-11 -5,-16c4,-5 1,-9 -6,-9c-7,0 -9,-3 -6,-7c4,-3 0,-14 -8,-23c-8,-9 -16,-26 -18,-38c-6,-41 -21,-46 -84,-29c-33,10 -88,19 -123,22c-36,3 -79,8 -96,10l-32,5l2,-107c1,-67 -3,-118 -10,-133c-7,-14 -15,-42 -19,-62c-7,-36 -7,-36 -68,-41c-69,-6 -113,-5 -121,4c-11,11 61,210 99,276c14,24 23,43 20,43c-4,0 5,21 18,48c35,66 74,153 83,182c4,14 18,42 31,63c13,20 21,37 17,37c-3,0 10,29 30,65c20,36 33,65 30,65c-3,0 6,21 21,48c15,26 28,55 31,66c2,10 15,33 29,52c14,19 23,34 20,34c-3,0 4,18 15,40c11,22 25,40 30,40c5,0 24,-13 42,-28zm2685,-244c1,-43 -2,-80 -6,-82c-4,-3 -35,-8 -68,-12c-55,-5 -62,-4 -72,14c-6,12 -11,50 -11,86l0,65l53,4c108,8 102,12 104,-75zm0,-298c17,-6 36,-22 43,-35c7,-13 16,-22 20,-20c4,2 12,-7 18,-20c7,-14 16,-25 21,-25c26,0 43,-145 26,-220c-16,-73 -65,-146 -102,-151c-5,-1 -17,-5 -28,-9c-47,-18 -115,-20 -150,-6c-57,24 -78,53 -101,141c-19,70 -17,114 7,187c42,130 142,194 246,158zm-497,-67c9,-119 10,-115 -42,-128c-25,-7 -71,-16 -102,-19c-31,-4 -56,-11 -56,-15c0,-7 -110,-30 -175,-37c-18,-1 -59,-12 -92,-23c-33,-11 -75,-23 -93,-26c-18,-3 -64,-14 -104,-25c-39,-11 -83,-21 -98,-23c-36,-4 -42,-11 -45,-54l-2,-35l42,6c51,6 182,18 251,21c105,6 359,26 365,29c3,2 40,7 82,10c60,5 79,4 88,-8c15,-18 -9,-23 -129,-32c-106,-7 -233,-21 -320,-34c-84,-13 -492,-21 -485,-9c11,16 -9,39 -34,39l-26,0l25,14c124,69 152,80 280,112c36,9 70,19 75,24c6,4 26,11 45,15c19,4 53,15 75,25c39,17 186,68 215,75c8,1 40,14 70,28c30,14 74,28 98,31c53,7 62,12 62,37c0,27 -10,26 -135,-17c-22,-8 -44,-15 -50,-16c-5,-1 -41,-15 -80,-33c-38,-17 -77,-31 -85,-30c-8,0 -43,-12 -77,-27c-35,-15 -69,-28 -76,-28c-7,0 -31,-9 -53,-19c-21,-10 -57,-21 -79,-24c-42,-5 -60,-10 -110,-32c-16,-8 -43,-17 -60,-21c-16,-4 -32,-10 -35,-14c-3,-4 -38,-24 -77,-45c-40,-20 -73,-41 -73,-46c0,-12 -242,-3 -425,15c-142,15 -164,18 -225,31c-14,3 -41,7 -60,9c-40,4 -86,12 -187,32c-39,8 -89,16 -110,20c-21,3 -74,15 -118,26c-44,11 -98,22 -120,24c-74,7 -167,32 -160,43c7,12 89,3 170,-19c39,-10 113,-21 165,-25c52,-4 131,-13 175,-20c103,-17 230,-26 430,-30c88,-2 187,-5 220,-8c157,-15 284,-18 303,-8c10,5 30,12 43,14c14,3 45,14 70,26c25,12 54,23 65,25c18,4 44,14 102,38c15,6 36,13 47,15c10,2 33,12 50,22c17,10 56,24 86,30c30,7 74,21 99,31c25,10 59,21 75,24c45,7 106,26 140,41c17,7 43,17 58,21c16,3 45,15 65,24c46,23 57,14 62,-47zm17,-213c1,-50 -2,-60 -15,-61c-18,0 -39,-3 -132,-15c-30,-4 -89,-8 -130,-9c-63,-2 -321,-25 -450,-39l-35,-4l40,17c22,10 62,21 89,25c44,7 61,12 121,37c11,4 43,11 70,14c64,7 151,24 191,36c36,11 39,12 159,38c50,10 90,20 90,20c0,1 1,-26 2,-59zm-2314,-15c29,-7 72,-16 97,-20c24,-4 48,-8 51,-11c10,-6 148,-34 189,-39c19,-2 76,-11 125,-21c50,-9 102,-19 118,-21c15,-3 29,-9 32,-13c5,-8 -58,-3 -128,10c-26,6 -82,10 -123,10c-41,0 -118,7 -171,16c-54,8 -143,16 -198,18c-55,1 -106,5 -112,9c-6,4 -13,25 -15,48l-4,41l44,-7c24,-3 67,-12 95,-20zm-768,-252c12,-16 40,-9 30,8c-4,5 18,9 49,9c43,0 56,-3 56,-15c0,-8 9,-15 21,-15c11,0 18,4 15,9c-10,16 66,19 334,16c373,-4 338,0 332,-30c-3,-19 0,-25 13,-25c13,0 16,6 13,24c-4,21 -2,23 21,20c79,-11 137,-14 461,-20c333,-6 356,-8 376,-26c22,-19 43,-10 29,13c-5,7 16,9 64,7c62,-2 71,-5 71,-21c0,-15 5,-18 25,-15c13,3 26,1 27,-4c3,-8 36,-13 66,-9c6,0 12,11 12,24c0,21 4,22 73,23c39,1 128,7 197,14c140,15 270,2 270,-26c0,-19 17,-18 28,2c6,11 21,15 48,14c104,-4 535,0 544,5c6,4 38,5 73,4c49,-1 66,-6 79,-23c15,-17 19,-19 27,-7c14,21 49,24 47,4c-2,-24 24,-28 31,-5c5,22 44,34 65,21c10,-7 10,-9 1,-9c-7,0 -13,-9 -13,-20c0,-11 4,-20 8,-20c15,0 30,22 25,36c-6,17 -9,17 162,14c116,-1 141,-5 153,-18c7,-10 15,-13 18,-7c14,31 24,34 146,37c117,3 128,1 142,-17c13,-17 17,-18 25,-5c5,8 7,18 5,22c-9,15 91,8 114,-8c12,-8 22,-12 22,-8c0,5 5,3 12,-4c6,-6 12,-45 14,-87c1,-42 0,-74 -3,-71c-3,3 -14,-4 -26,-15c-23,-21 -35,-22 -297,-25c-197,-1 -569,-13 -680,-20c-47,-3 -386,-7 -755,-9c-368,-2 -744,-7 -835,-12c-206,-10 -1183,-11 -1385,0c-82,4 -213,10 -290,13c-77,3 -148,8 -159,11c-17,5 -16,6 5,17c31,15 49,84 26,101c-10,7 -14,20 -10,33c4,16 1,22 -12,22c-13,0 -16,-6 -13,-24c5,-23 -3,-33 -26,-34c-16,-1 -24,-24 -22,-62c2,-34 1,-37 -16,-27c-16,10 -45,64 -41,77c1,3 3,20 6,38c6,34 14,48 56,95c21,23 32,27 79,27c39,0 58,-5 67,-17z"/>
   <path id="svg_3" d="m4973,4458c-4,-7 -8,-71 -9,-143c0,-71 -6,-167 -14,-212c-12,-79 -13,-83 -39,-84c-63,-2 -88,-17 -130,-79c-25,-37 -29,-53 -29,-109c1,-62 2,-67 30,-83c15,-10 34,-18 40,-18c23,0 88,34 88,47c0,7 4,13 9,13c5,0 7,-14 4,-31c-6,-38 10,-51 52,-43c16,3 31,7 33,9c2,2 5,107 7,232c1,125 8,262 14,303c24,173 20,210 -23,210c-14,0 -28,-6 -33,-12zm-38,-530c-4,-29 -11,-58 -16,-64c-5,-6 -7,-13 -4,-16c11,-11 -67,-78 -90,-78c-31,0 -51,53 -35,96c32,87 59,111 123,113l28,1l-6,-52z"/>
   <path id="svg_4" d="m4053,4305c-11,-8 -12,-19 -4,-55c7,-29 7,-46 0,-48c-5,-2 -15,-10 -23,-17c-7,-8 -16,-12 -18,-10c-11,11 -72,-75 -83,-115c0,-3 -7,-22 -14,-42c-14,-43 -12,-117 4,-134c6,-7 28,-14 48,-17c28,-4 44,1 68,19c18,13 34,22 37,20c2,-2 5,-96 7,-208c2,-175 0,-209 -15,-250c-35,-94 -107,-121 -139,-52c-6,13 -15,24 -20,24c-19,0 -19,-31 0,-75c23,-51 82,-91 111,-74c21,12 58,63 63,86c2,10 13,39 24,64c12,26 25,75 30,110c12,88 6,727 -8,761c-11,28 -39,34 -68,13zm13,-233c5,-76 4,-94 -10,-107c-8,-9 -19,-22 -23,-30c-12,-21 -69,-28 -86,-11c-31,31 14,163 71,213c20,17 38,30 40,29c1,-2 5,-44 8,-94z"/>
   <path id="svg_5" d="m4529,4151c-23,-23 -39,-41 -34,-41c4,0 0,-11 -9,-25c-29,-44 -21,-159 16,-240c13,-29 53,-55 92,-62c27,-4 38,0 60,22c31,31 40,72 41,185c0,63 -5,84 -28,131c-16,31 -34,56 -40,57c-7,0 -22,4 -34,7c-18,6 -31,-2 -64,-34zm119,-49c5,-16 9,-72 8,-124c-1,-89 -3,-97 -26,-117c-26,-21 -42,-27 -38,-13c1,4 -3,17 -10,30c-7,12 -9,22 -5,22c4,0 2,5 -5,12c-17,17 -15,143 3,182c21,43 59,47 73,8z"/>
   <path id="svg_6" d="m4236,4156c-39,-32 -49,-71 -51,-201c-2,-123 2,-143 38,-182c21,-23 79,-32 103,-15c53,37 95,169 79,248c-5,21 -9,41 -9,44c-3,13 -68,120 -74,121c-44,6 -64,3 -86,-15zm95,-55c6,-17 19,-47 30,-67c26,-52 24,-95 -7,-165c-33,-73 -52,-76 -84,-13c-20,41 -22,57 -17,125c4,56 11,89 27,114c26,43 38,44 51,6z"/>
   <path id="svg_7" d="m4942,3451c-9,-6 -11,-35 -6,-122c9,-153 10,-412 1,-526l-6,-93l39,0c28,0 42,5 49,19c6,10 7,21 4,25c-3,3 -7,83 -8,177l-2,170l22,-24c13,-13 26,-34 30,-48c4,-13 19,-36 33,-51c14,-16 22,-28 17,-28c-5,0 1,-10 12,-22c25,-28 48,-70 45,-81c-1,-5 5,-7 14,-5c17,3 28,48 12,48c-5,0 -12,10 -17,23c-5,12 -23,39 -40,61c-17,21 -31,43 -31,48c0,5 -11,24 -25,42c-14,18 -25,38 -25,44c0,6 -9,17 -20,25c-19,13 -19,14 10,47c17,19 30,37 30,42c0,4 6,8 13,8c23,1 107,87 101,104c-13,33 -30,21 -130,-86l-52,-55l2,123c0,67 -1,124 -4,127c-11,10 -56,16 -68,8z"/>
   <path id="svg_8" d="m4183,3362c-9,-5 -14,-68 -18,-212c-3,-113 -8,-269 -10,-347c-6,-161 -11,-152 83,-156c55,-2 76,10 66,37c-5,13 -16,16 -43,14l-35,-3l-4,80c-2,44 -4,87 -4,95c-1,8 3,74 7,145c9,170 13,327 7,343c-5,13 -31,16 -49,4z"/>
   <path id="svg_9" d="m5423,3287c-3,-5 -7,-78 -9,-161c-2,-83 -6,-164 -8,-181c-3,-16 -8,-104 -11,-195c-4,-91 -10,-172 -15,-180c-8,-17 -2,-42 13,-51c14,-10 66,10 76,30c5,9 10,91 11,181c1,91 3,197 5,235c4,118 7,268 6,303c-1,30 -3,32 -32,30c-17,-1 -33,-6 -36,-11z"/>
   <path id="svg_10" d="m4566,3222c-3,-9 -8,-80 -11,-157c-8,-199 -11,-217 -37,-237c-20,-15 -25,-15 -38,-2c-12,12 -15,46 -15,176l0,161l-28,10c-18,6 -37,6 -50,0c-19,-9 -21,-19 -24,-123c-3,-90 1,-129 17,-193c29,-111 56,-133 119,-95c79,48 89,78 94,290c3,140 2,178 -9,182c-7,3 -15,-3 -18,-12z"/>
   <path id="svg_11" d="m4784,3168c-36,-41 -75,-105 -79,-130c-21,-111 -21,-175 -2,-298c6,-34 44,-71 105,-101c40,-20 45,-20 59,-6c14,14 14,17 0,31c-8,9 -22,16 -30,16c-18,0 -59,53 -74,97c-8,22 -11,74 -9,141c2,85 7,116 25,149c11,23 21,47 21,52c0,6 7,14 16,19c17,10 16,43 -2,49c-5,2 -19,-7 -30,-19z"/>
   <path id="svg_12" d="m5411,2424c-23,-24 -39,-33 -50,-28c-9,3 -35,8 -57,11c-33,4 -46,1 -62,-15c-35,-35 -20,-93 45,-181c18,-24 33,-48 33,-53c0,-5 5,-14 10,-21c6,-7 19,-24 30,-39c12,-15 27,-25 34,-22c12,4 39,54 41,74c3,20 18,50 25,50c5,0 16,21 24,48c8,26 22,65 31,86c29,67 4,126 -52,126c-10,0 -34,-16 -52,-36zm74,-38c-2,-19 -13,-55 -24,-80c-12,-25 -21,-48 -21,-52c0,-3 -14,-31 -31,-61l-32,-55l-16,26c-8,14 -19,26 -23,26c-5,0 -8,6 -8,13c0,7 -12,30 -26,51c-37,54 -46,92 -27,111c8,9 20,13 27,10c6,-3 19,-8 28,-11c13,-4 16,-13 12,-29c-8,-33 12,-40 36,-13c12,13 27,30 35,39c8,9 15,19 15,24c0,10 32,34 46,35c7,0 11,-13 9,-34z"/>
   <path id="svg_13" d="m4740,474l0,-25l-25,19c-28,23 -60,19 -62,-6c-1,-10 -2,-22 -3,-27c-1,-6 -2,-27 -1,-48c1,-34 3,-36 20,-25c15,9 18,19 14,40c-7,35 7,36 41,1c22,-22 29,-24 36,-13c7,11 12,10 27,-9c17,-20 21,-21 46,-10c15,7 27,18 27,26c0,7 5,13 10,13c6,0 10,-11 10,-24c0,-27 15,-42 25,-26c10,16 13,77 5,90c-9,14 -44,-3 -71,-35c-10,-11 -20,-17 -24,-13c-4,3 3,16 14,27c28,28 28,53 -1,49c-13,-2 -23,-7 -23,-13c0,-5 -8,-21 -18,-35l-17,-24l0,47c0,35 -4,47 -15,47c-9,0 -15,-10 -15,-26z"/>
  </g>
  <line stroke="#000" stroke-linecap="undefined" stroke-linejoin="undefined" id="svg_14" y2="157" x2="235" y1="132.000001" x1="234" fill-opacity="null" stroke-opacity="null" stroke-width="5" fill="none"/>
  <line stroke="#000" stroke-linecap="undefined" stroke-linejoin="undefined" id="svg_16" y2="154" x2="266" y1="129.000001" x1="265" fill-opacity="null" stroke-opacity="null" stroke-width="5" fill="none"/>
 </g>
</svg>