<svg width="621" height="529" xmlns="http://www.w3.org/2000/svg" preserveAspectRatio="xMidYMid meet">
 <metadata>Created by potrace 1.15, written by Peter Selinger 2001-2017</metadata>

 <g>
  <title>background</title>
  <rect fill="none" id="canvas_background" height="402" width="582" y="-1" x="-1"/>
 </g>
 <g>
  <title>Layer 1</title>
  <g id="svg_1" fill="#000000" transform="translate(0,529) scale(0.10000000149011612,-0.10000000149011612) ">
   <path id="svg_2" d="m2737,4764c-3,-4 -4,-39 0,-79c3,-40 3,-90 -1,-109c-7,-34 -9,-36 -41,-34c-31,2 -34,5 -40,41c-4,21 -4,63 0,93c7,59 1,81 -19,65c-8,-7 -12,-39 -11,-101l2,-90l-31,-1c-17,0 -39,-2 -48,-4c-14,-3 -18,4 -20,33c-1,21 -3,56 -4,80c-2,48 -9,61 -24,46c-7,-7 -7,-34 2,-82c6,-39 10,-73 7,-76c-2,-2 -38,-7 -80,-11l-76,-7l-9,68c-5,40 -14,69 -22,72c-11,3 -12,-13 -6,-79c3,-46 3,-81 -1,-77c-4,4 -22,1 -40,-6l-33,-14l-11,42c-6,23 -13,68 -17,99c-5,38 -11,57 -20,57c-17,0 -18,-23 -4,-70c6,-19 13,-62 16,-95l6,-60l-41,-22c-22,-13 -42,-23 -44,-23c-5,0 -16,46 -24,100c-8,58 -32,105 -45,92c-8,-8 -4,-32 15,-95c15,-46 27,-92 27,-103c0,-16 -68,-84 -84,-84c-3,0 -18,25 -32,55c-25,51 -43,64 -51,39c-2,-6 8,-27 22,-47c28,-42 42,-87 28,-87c-6,0 -28,-18 -50,-41c-37,-37 -42,-39 -47,-21c-4,11 -13,23 -21,26c-8,3 -15,12 -15,20c0,19 -39,41 -51,29c-5,-5 3,-22 19,-40c67,-76 65,-70 37,-101c-14,-15 -28,-35 -31,-44c-6,-21 -20,-23 -31,-4c-10,17 -49,37 -57,29c-14,-14 -4,-34 21,-44c15,-6 30,-15 34,-21c9,-14 -34,-88 -46,-79c-5,4 -18,11 -27,14c-32,11 -20,-27 12,-41c25,-12 29,-18 24,-40c-11,-50 -13,-53 -39,-48c-33,6 -36,-29 -2,-38c18,-4 23,-12 23,-41c0,-34 -2,-36 -31,-33c-24,2 -30,-1 -30,-17c0,-15 6,-20 28,-19c17,1 27,-4 27,-13c0,-9 -8,-13 -22,-11c-17,2 -23,-2 -23,-17c0,-11 7,-20 15,-20c18,0 21,-49 3,-51c-7,-1 -17,-2 -22,-3c-6,0 -21,-11 -33,-23c-47,-46 -64,-76 -66,-120c-2,-24 -6,-57 -11,-74c-13,-50 28,-146 83,-193c10,-9 28,-24 39,-35c11,-10 38,-23 61,-28c36,-8 94,-57 96,-79c0,-10 99,-109 108,-109c8,0 42,-27 101,-78c24,-21 25,-24 9,-36c-10,-7 -18,-18 -18,-24c0,-7 -11,-14 -24,-18c-14,-3 -29,-18 -36,-35c-7,-16 -16,-26 -21,-23c-5,3 -12,-3 -16,-13c-4,-10 -21,-30 -37,-45c-17,-16 -26,-28 -21,-28c6,-1 -2,-8 -17,-16c-16,-8 -28,-19 -28,-24c0,-4 -13,-22 -30,-38c-16,-16 -26,-32 -23,-36c4,-3 -1,-6 -9,-6c-9,0 -31,-19 -50,-42c-18,-23 -46,-56 -63,-74c-16,-17 -59,-64 -95,-104c-36,-40 -96,-106 -135,-146c-47,-48 -69,-78 -66,-90c5,-25 43,-60 76,-68c29,-7 41,-28 29,-53c-4,-10 -8,-20 -8,-23c-4,-18 -31,-76 -39,-81c-4,-3 -9,-12 -10,-20c-2,-8 -13,-31 -25,-51c-13,-20 -25,-46 -27,-57c-2,-11 -16,-41 -30,-66c-15,-25 -24,-45 -21,-45c4,0 -5,-22 -18,-48c-13,-26 -26,-61 -29,-77c-3,-17 -17,-57 -32,-90c-15,-33 -28,-71 -29,-85c-1,-14 -7,-34 -13,-45c-12,-21 -29,-81 -37,-129c-3,-15 -14,-46 -25,-67c-11,-21 -22,-49 -25,-61c-2,-13 -7,-40 -11,-60c-4,-21 -12,-42 -19,-47c-6,-5 -96,-12 -201,-16c-275,-9 -302,-9 -335,5c-31,13 -65,7 -55,-10c3,-6 0,-13 -8,-16c-24,-9 -31,-50 -31,-191c-1,-112 1,-133 15,-142c10,-5 52,-10 95,-9c44,0 116,1 162,1c79,1 84,-1 108,-28c13,-15 24,-34 24,-40c0,-7 10,-24 21,-39c12,-15 23,-39 25,-54c2,-15 10,-49 17,-77c11,-38 19,-51 36,-53c15,-3 21,2 21,17c0,27 16,35 30,14c7,-12 13,-14 16,-7c3,7 14,10 24,7c14,-4 20,0 20,11c0,20 -32,35 -38,17c-5,-14 -62,139 -69,186c-6,40 14,52 93,53c32,0 81,2 109,4c46,2 75,-9 75,-30c0,-4 8,-13 17,-19c15,-11 18,-30 17,-129c-1,-101 1,-116 15,-114c11,2 15,-3 13,-16c-2,-11 1,-17 10,-14c7,3 14,10 14,16c1,7 2,13 3,15c1,1 3,54 4,117c2,63 8,127 15,142l11,28l132,-5c73,-3 136,-8 141,-11c13,-8 472,-8 588,0c52,4 158,12 235,17c114,9 668,12 1200,6c55,0 152,2 215,6c63,3 189,6 280,7l164,1l38,-43c26,-29 41,-59 49,-95c7,-29 20,-60 31,-69c10,-10 18,-27 18,-40c0,-13 9,-28 21,-34c17,-10 20,-9 17,7c-2,13 3,18 19,18c30,1 38,11 24,29c-7,8 -16,27 -20,43c-4,15 -14,28 -21,28c-20,0 -49,55 -56,106l-6,44l109,-2c59,0 113,-2 119,-2c20,-2 25,-31 12,-75c-6,-22 -13,-47 -14,-55c-1,-7 -12,-36 -24,-64c-12,-27 -19,-58 -17,-68c3,-11 1,-22 -4,-25c-5,-3 -7,-9 -4,-14c8,-13 35,-1 35,15c0,8 7,20 15,28c13,14 52,101 53,120c2,45 30,112 60,148c16,18 29,20 206,19c123,-1 191,2 195,9c10,16 11,281 1,325c-11,52 -21,59 -77,59c-262,-1 -426,-6 -464,-13c-25,-5 -82,-11 -127,-13l-81,-4l23,46c47,93 62,190 43,281c-11,55 -63,170 -77,170c-5,0 -10,7 -10,15c0,9 -7,18 -15,21c-18,7 -21,84 -4,115c17,33 19,228 2,245c-16,15 -17,16 -116,18c-55,1 -70,-2 -77,-15c-10,-17 -24,-152 -24,-226c0,-24 -4,-43 -8,-43c-9,0 -70,76 -70,87c0,4 -9,22 -22,38c-23,31 -79,144 -90,182c-4,11 -18,29 -32,38c-13,9 -23,19 -20,23c3,4 -8,16 -24,27c-37,25 -47,49 -44,108c2,28 -1,45 -7,42c-5,-4 -9,-2 -9,2c0,8 -14,26 -82,108c-16,18 -28,38 -28,44c0,6 -4,11 -9,11c-5,0 -13,10 -17,23c-4,12 -15,28 -25,35c-11,7 -19,17 -19,22c0,4 -24,33 -52,63c-127,132 -194,210 -206,237c-6,17 -18,30 -25,30c-8,0 -20,12 -27,26c-8,14 -22,30 -32,35c-10,5 -18,16 -18,24c0,8 -5,15 -10,15c-6,0 -15,11 -20,25c-5,14 -14,31 -20,38c-50,59 -52,62 -49,83c0,4 -4,10 -11,14c-7,4 8,23 41,51c62,51 178,167 178,177c-1,10 42,30 78,38c7,1 28,18 46,38c19,20 39,36 45,36c19,0 72,121 72,166c0,57 -30,123 -74,162c-42,37 -46,52 -11,52c20,0 25,5 25,26c0,23 -3,25 -28,19c-27,-5 -28,-5 -24,34c3,32 9,40 28,45c23,6 34,35 14,37c-5,1 -14,2 -19,3c-17,2 -22,13 -26,55c-3,30 0,41 11,42c8,1 23,2 34,3c30,2 46,22 31,40c-11,13 -18,13 -51,1c-42,-15 -46,-12 -56,45c-3,13 -10,30 -15,36c-6,8 -3,13 12,17c30,8 18,32 -15,30c-17,-1 -26,3 -26,13c0,8 -9,32 -20,54l-20,39l22,15c12,9 18,16 13,16c-6,1 0,6 13,14c20,11 21,14 8,25c-12,10 -18,9 -35,-8c-12,-12 -25,-21 -30,-21c-5,0 -26,24 -48,53l-39,52l18,35c21,44 23,70 3,70c-8,0 -15,-6 -15,-13c0,-7 -8,-22 -18,-33c-17,-18 -22,-27 -22,-40c0,-3 -13,4 -29,15c-15,11 -32,17 -36,13c-9,-9 64,129 78,146c12,15 -5,38 -21,28c-12,-7 -42,-64 -42,-78c0,-5 -10,-22 -21,-38l-22,-29l-41,16c-23,9 -42,17 -43,18c-2,1 9,50 23,108c25,100 26,137 6,137c-8,0 -43,-138 -48,-193c-4,-39 -9,-42 -36,-25c-13,8 -35,18 -49,21c-25,6 -26,8 -21,79c2,40 8,80 13,89c5,10 3,23 -6,35c-12,16 -14,17 -20,3c-5,-13 -10,-71 -14,-166c-1,-35 -16,-41 -69,-27c-21,6 -22,10 -20,93c3,89 -3,114 -25,105c-9,-3 -12,-30 -9,-100l4,-95l-38,3c-35,3 -39,6 -37,28c5,76 5,189 -1,199c-8,12 -19,14 -29,5zm-101,-309c3,-19 11,-38 16,-41c16,-10 27,17 17,43c-10,26 2,30 46,13c16,-6 25,-16 23,-27c-2,-10 5,-19 16,-21c16,-3 18,1 14,23c-5,23 -3,26 16,21c11,-3 28,-6 37,-6c11,0 15,-8 14,-27c-2,-31 12,-56 26,-47c5,3 9,18 9,35c0,32 4,34 49,18c28,-10 36,-20 32,-42c-2,-14 20,-48 28,-42c5,2 7,18 6,35c-2,27 0,30 19,24c11,-4 31,-8 44,-8c12,0 22,0 22,-1c0,0 -4,-15 -9,-33c-6,-18 -7,-40 -4,-48c9,-23 33,-16 34,11c1,14 3,30 4,35c1,6 3,13 4,16c2,8 61,-29 61,-38c0,-4 7,-8 15,-8c20,0 65,-29 65,-42c0,-5 -7,-16 -15,-25c-12,-12 -13,-18 -4,-29c10,-12 14,-11 30,7c17,20 20,20 41,7c13,-9 30,-28 38,-44c8,-16 27,-41 43,-55c32,-31 46,-79 22,-79c-9,0 -15,-9 -15,-21c0,-17 5,-20 25,-17c20,4 26,-1 38,-31c8,-20 13,-46 11,-59c-3,-13 2,-33 11,-45c18,-25 20,-74 3,-79c-26,-9 -16,-43 13,-40c9,1 -3,-63 -14,-70c-18,-11 -16,-37 4,-43c13,-5 17,-13 14,-33c-2,-15 -9,-58 -16,-97c-6,-38 -13,-86 -15,-106c-2,-20 -15,-61 -29,-92c-13,-32 -22,-57 -19,-57c11,0 -82,-126 -116,-155c-19,-16 -43,-39 -54,-50c-69,-69 -245,-172 -326,-190c-8,-2 -53,-13 -99,-25c-97,-25 -143,-29 -301,-29c-142,0 -229,6 -255,18c-11,5 -42,17 -70,27c-27,10 -57,23 -65,29c-8,7 -29,19 -45,28c-41,21 -153,131 -193,190c-64,96 -82,162 -88,330c-2,65 -6,141 -8,168c-3,34 -1,47 6,43c11,-7 8,11 -8,50c-5,13 -4,17 3,13c6,-4 16,0 23,8c16,20 5,46 -15,38c-13,-5 -16,0 -13,23c2,22 8,29 26,30c12,1 29,2 38,3c26,2 12,35 -16,36c-27,0 -30,4 -30,35c0,12 7,20 16,20c12,0 15,7 11,26c-2,14 2,38 9,53c8,14 14,20 14,14c0,-7 9,-13 20,-13c13,0 20,7 20,20c0,11 -7,20 -15,20c-17,0 -11,22 18,64l20,29l18,-22c23,-28 42,-28 33,2c-4,12 -12,25 -18,29c-7,5 -2,17 15,35c15,15 32,39 39,52c12,23 13,23 26,7c17,-23 34,-12 28,18c-3,18 4,30 30,49l33,26l11,-25c18,-38 35,-30 29,14c-5,33 -2,39 28,59c36,22 45,21 45,-9c0,-10 7,-18 14,-18c11,0 14,9 12,33c-3,29 0,34 35,49l38,16l7,-31c4,-18 8,-41 8,-51c1,-11 6,-21 13,-23c9,-3 12,12 10,53l-2,58l40,8c22,5 55,8 74,6c27,-2 35,-8 38,-27c4,-30 8,-35 23,-26c6,4 9,18 6,30c-6,25 4,32 56,34c23,1 28,-4 34,-34zm-919,-899c-2,-6 0,-38 5,-71c4,-33 11,-86 13,-117c3,-32 13,-80 24,-108l19,-49l-47,25c-63,35 -88,61 -103,103c-13,39 -13,124 -1,144c4,7 8,17 9,23c3,19 66,74 76,68c5,-3 7,-11 5,-18zm1857,-27c9,-22 16,-51 16,-65c0,-40 -48,-136 -81,-162c-28,-23 -29,-23 -29,-4c0,11 5,22 10,24c6,2 12,29 14,61c3,32 8,72 12,90c4,17 8,43 9,57c2,14 3,30 4,37c2,24 30,1 45,-38zm-434,-659c0,-5 15,-24 33,-42c31,-30 97,-104 140,-158c17,-20 16,-35 -1,-35c-4,0 -24,-11 -45,-23c-20,-13 -43,-25 -50,-26c-6,-2 -19,-5 -27,-9c-39,-14 -50,-16 -50,-7c0,6 6,10 14,10c20,0 32,40 15,51c-10,6 -18,0 -27,-17c-8,-14 -15,-24 -16,-22c-36,54 -36,55 -15,81c20,27 9,48 -15,28c-23,-19 -76,117 -57,147c15,24 101,43 101,22zm-194,-54c3,-14 12,-27 20,-30c8,-3 14,-12 14,-21c0,-9 11,-38 25,-64c13,-27 26,-60 29,-74c2,-14 16,-43 30,-64c14,-21 26,-42 26,-48c0,-5 7,-23 15,-39c18,-34 19,-33 -24,-41c-18,-3 -42,-12 -54,-19c-12,-8 -36,-17 -54,-19c-17,-3 -36,-8 -42,-11c-9,-6 -188,-19 -261,-19c-89,0 -392,13 -399,18c-5,2 -6,16 -3,31c4,20 1,25 -9,22c-8,-3 -14,-15 -13,-27c0,-11 -5,-21 -12,-21c-14,0 -13,3 7,55c7,17 14,39 16,50c6,37 37,115 45,115c4,0 8,10 9,23c1,20 1,20 10,-5c11,-29 35,-41 87,-43c28,-1 32,2 30,19c-2,12 -8,20 -14,19c-5,-1 -10,10 -10,24c0,20 2,22 11,10c27,-37 76,-50 167,-44c48,3 87,3 87,-1c-3,-22 3,-31 17,-25c10,4 14,14 11,29c-2,13 -1,23 2,22c18,-2 30,5 61,35c39,38 60,69 65,99c3,12 6,21 7,22c2,0 21,11 43,23c51,28 53,28 61,-1zm-724,-26c22,-13 27,-20 16,-20c-20,0 -24,-25 -8,-35c6,-4 18,-1 27,7c17,14 17,17 -2,-69c-3,-12 -15,-37 -28,-56c-20,-33 -25,-35 -65,-31c-42,4 -165,55 -176,72c-8,13 23,52 40,52c8,0 14,-5 14,-11c0,-5 -5,-7 -11,-3c-7,4 -9,-2 -7,-17c4,-29 33,-32 34,-4c1,11 5,28 9,39c5,12 3,21 -6,27c-12,8 -11,11 3,19c9,6 23,16 30,23c7,6 22,13 33,14c11,1 14,0 8,-3c-19,-8 -16,-39 6,-58c18,-16 21,-16 44,-1c14,9 24,23 22,33c-2,9 -4,20 -4,24c-1,4 -13,9 -28,11c-22,3 -23,4 -6,6c13,0 37,-8 55,-19zm549,-28c-26,-49 -156,-105 -221,-96c-45,7 -95,34 -111,62l-15,27l115,3c64,2 141,9 171,16c62,15 74,12 61,-12zm-790,-152c11,-1 10,-4 -3,-13c-12,-9 -14,-17 -7,-28c8,-12 11,-12 22,2c13,17 24,15 91,-16c25,-11 52,-17 114,-25c2,0 -4,-12 -12,-27c-17,-33 -28,-60 -33,-87c-2,-10 -12,-39 -23,-64c-11,-25 -22,-55 -24,-69c-3,-13 -14,-43 -26,-66l-22,-43l-63,7c-57,7 -180,57 -195,79c-3,4 -16,11 -30,15c-14,4 -36,18 -49,31c-13,13 -28,24 -33,24c-22,0 3,38 77,117c44,46 81,80 83,74c4,-13 29,-14 37,-2c3,5 -1,16 -9,23c-12,12 -9,20 21,57c32,38 37,41 52,26c10,-8 24,-15 32,-15zm1406,-36c10,-14 48,-56 85,-95c37,-38 64,-69 62,-69c-3,0 8,-17 24,-38c28,-35 29,-39 13,-47c-35,-19 -126,-74 -136,-82c-18,-16 -139,-53 -147,-45c-4,4 -14,25 -21,46c-12,37 -12,41 7,60l21,21l-26,3c-21,2 -31,14 -51,61l-25,58l25,-12c29,-16 65,-6 70,20c4,19 -34,65 -54,65c-16,0 -45,-40 -38,-52c3,-4 3,-8 0,-8c-3,0 -12,13 -21,30l-15,29l42,12c24,7 49,17 57,23c10,8 15,8 18,-1c3,-7 13,-13 24,-13c15,0 18,5 13,24c-4,18 -1,25 13,29c35,9 42,7 60,-19zm-234,-219c8,-22 27,-71 41,-110c14,-38 30,-78 36,-87c5,-9 13,-35 16,-58c4,-22 11,-43 17,-47c8,-5 -25,-24 -55,-32c-4,-1 -29,-9 -55,-17c-76,-23 -142,-35 -233,-40c-47,-2 -125,-9 -175,-15c-84,-11 -414,-6 -490,7c-16,3 -46,6 -66,8c-65,6 -139,29 -139,43c0,24 43,109 48,95c3,-10 7,-10 18,-2c10,9 11,16 1,31c-10,16 -8,27 13,65c13,26 25,53 26,60c1,7 12,27 23,43c12,16 21,34 21,40c0,6 6,9 13,6c55,-17 537,-28 657,-14c36,4 95,16 133,27c37,11 67,18 67,16c0,-2 15,3 33,11c17,7 33,13 34,12c1,-1 8,-20 16,-42zm-1455,-87c30,-23 60,-43 68,-44c7,-1 28,-13 46,-27c43,-32 141,-65 211,-70c9,-1 17,-2 17,-2c0,-14 -50,-94 -91,-146c-67,-84 -89,-91 -162,-54c-29,15 -55,33 -59,39c-4,6 -8,7 -8,3c0,-5 -25,5 -55,22c-30,17 -58,31 -62,31c-27,0 -43,14 -43,36c0,21 -4,24 -27,22c-25,-3 -28,1 -31,30c-2,20 4,45 16,63c18,30 113,138 121,139c2,0 29,-19 59,-42zm1939,22c3,-11 9,-17 14,-14c5,3 9,-2 9,-10c0,-8 13,-31 30,-49c16,-19 27,-37 23,-41c-3,-3 -2,-6 4,-6c24,0 44,-92 23,-105c-6,-4 -8,-10 -5,-15c3,-4 -2,-13 -10,-20c-8,-7 -13,-16 -10,-20c8,-12 -15,-26 -85,-50c-36,-12 -91,-36 -124,-53l-58,-31l-36,21c-43,24 -42,24 -78,133c-15,47 -29,90 -31,96c-4,11 29,27 82,39c16,4 49,20 73,36c23,16 46,29 49,29c3,0 21,11 40,26c18,14 33,22 33,19c0,-3 9,-1 20,5c11,6 18,15 15,21c-4,5 -1,9 5,9c7,0 14,-9 17,-20zm-282,-505c2,-12 12,-38 31,-85c24,-60 25,-89 3,-100c-10,-6 -19,-8 -19,-4c0,3 -21,-6 -46,-20c-25,-14 -69,-28 -99,-31c-29,-2 -66,-10 -82,-16c-71,-29 -145,-35 -383,-34c-249,2 -392,8 -535,25c-84,10 -187,20 -245,25c-19,2 -42,3 -50,4c-8,1 -25,10 -37,20c-22,18 -22,21 -8,58c9,21 24,56 34,78c23,48 40,87 76,182l27,71l47,-14c118,-38 161,-41 496,-39c285,1 346,5 450,23c129,22 225,45 251,60c15,8 22,-5 52,-92c19,-55 35,-105 37,-111zm507,127c12,-23 30,-51 40,-62c11,-11 21,-29 23,-40c8,-42 107,-185 169,-246l42,-41l-36,-40c-41,-47 -71,-124 -76,-196c-2,-29 -6,-64 -8,-78c-3,-14 -1,-51 3,-82l8,-56l-27,16c-26,15 -27,19 -24,77c2,33 7,90 11,126c10,89 8,159 -5,172c-7,7 -20,7 -44,-1c-18,-7 -51,-14 -73,-17c-33,-5 -135,-27 -230,-50c-16,-4 -25,6 -50,58c-16,35 -30,69 -31,76c-1,6 -12,31 -23,55c-12,24 -21,46 -21,50c0,4 -13,36 -30,70c-16,35 -30,70 -30,78c0,8 53,40 122,74c68,33 147,76 177,96c50,34 55,35 73,20c10,-9 29,-35 40,-59zm-2212,13c28,-14 50,-22 50,-18c0,3 10,-3 23,-14c12,-11 46,-33 75,-49l54,-29l-6,-57c-3,-31 -15,-76 -26,-99c-12,-23 -24,-52 -26,-65c-2,-12 -18,-51 -34,-86c-17,-35 -30,-69 -30,-76c0,-7 -12,-30 -27,-49c-16,-20 -27,-38 -25,-40c7,-10 -2,-27 -38,-65l-39,-43l-111,0c-122,0 -133,-5 -125,-60c2,-16 7,-54 10,-83l6,-54l-38,2c-73,5 -72,6 -67,-58l5,-58l-39,-12c-22,-7 -49,-12 -61,-12c-21,0 -22,4 -18,58c2,31 7,65 10,75c8,19 13,37 17,52c1,6 6,17 11,26c4,9 11,31 14,50c3,18 19,66 36,107c16,40 29,80 29,88c0,8 9,33 20,57c10,23 21,53 24,67c2,14 10,39 16,55c26,66 31,80 31,83c-1,1 12,29 29,62c17,33 30,62 30,65c0,6 31,57 40,65c3,3 6,11 8,18c5,26 37,65 76,93c21,16 41,29 43,29c2,0 26,-11 53,-25zm1788,-377c12,-24 45,-133 48,-158c1,-8 3,-21 5,-29c3,-8 -14,-19 -46,-31c-27,-9 -67,-25 -87,-34c-21,-9 -38,-14 -38,-12c0,2 -24,-5 -52,-16c-29,-11 -71,-26 -93,-33c-22,-7 -85,-30 -140,-50c-117,-43 -195,-65 -195,-56c0,4 -10,7 -22,8c-69,1 -225,16 -308,29c-52,8 -115,17 -140,19c-25,3 -81,10 -125,15c-56,8 -99,8 -144,1c-69,-11 -233,0 -306,20c-22,6 -45,13 -52,15c-16,4 -12,19 20,85c15,31 30,68 33,83c3,16 16,50 30,77c13,27 25,52 27,56c3,11 15,6 40,-17c11,-11 33,-21 49,-21c15,-1 42,-3 58,-4c17,-1 45,-3 64,-4c25,-1 33,-5 32,-17c0,-9 5,-19 13,-22c10,-3 12,1 8,18c-5,21 -3,22 36,16c23,-3 92,-9 152,-12c61,-3 148,-12 195,-18c50,-8 170,-12 295,-11c177,2 223,6 296,24c47,12 106,24 131,26c25,3 66,14 92,26c26,11 57,22 69,25c12,2 23,8 25,14c6,17 18,11 30,-12zm830,-103c42,-18 126,-101 137,-136c4,-13 14,-30 23,-38c12,-12 13,-31 8,-96c-14,-179 -73,-239 -201,-204c-34,9 -97,65 -101,89c0,3 -4,14 -8,25c-4,11 -12,31 -17,45c-21,56 -18,137 7,206c43,118 75,141 152,109zm-320,-101c-2,-19 -13,-31 -41,-46c-22,-11 -41,-17 -45,-14c-3,3 -10,2 -16,-2c-17,-13 -97,-41 -136,-47c-19,-3 -39,-9 -45,-13c-15,-11 -75,-30 -115,-37c-19,-3 -53,-14 -75,-24c-22,-11 -78,-29 -125,-42c-47,-12 -93,-30 -102,-40c-10,-10 -47,-22 -87,-29c-39,-6 -73,-15 -75,-19c-3,-3 -53,-8 -112,-9c-60,-2 -110,-5 -113,-7c-2,-3 -10,4 -18,15c-12,18 -26,20 -106,20c-51,0 -144,5 -207,10c-63,6 -157,13 -208,15c-50,2 -127,9 -170,15c-42,5 -128,12 -191,15c-62,3 -117,8 -122,11c-5,3 -53,7 -106,9c-117,4 -263,34 -223,46c36,10 255,11 282,0c13,-5 62,-12 108,-15c47,-4 92,-8 100,-10c8,-1 32,-6 53,-11c22,-4 73,-8 115,-10c43,-1 100,-7 127,-13c145,-33 513,-55 560,-34c18,9 127,43 150,48c33,6 140,37 185,52c8,3 24,6 35,8c11,1 40,10 64,19c24,9 54,15 65,13c15,-2 7,-9 -29,-22c-27,-10 -72,-28 -100,-41c-27,-13 -68,-26 -90,-30c-22,-4 -58,-16 -81,-27c-34,-16 -62,-20 -161,-27c-7,-1 -13,-10 -13,-20c0,-17 6,-19 43,-17c58,5 107,17 107,26c0,5 23,11 50,15c28,4 68,15 90,26c21,10 44,19 49,19c6,0 40,14 76,31c35,16 75,32 88,34c12,3 50,14 82,25c33,12 76,23 95,26c19,3 46,12 60,19c21,11 65,25 85,26c3,0 24,7 47,16c24,8 77,28 118,43c41,15 76,28 77,29c2,0 2,-11 1,-25zm-15,-102c-3,-13 -16,-25 -32,-28c-14,-4 -31,-10 -36,-15c-6,-4 -22,-10 -36,-12c-14,-3 -48,-17 -75,-31c-27,-14 -62,-27 -78,-30c-16,-3 -32,-9 -35,-14c-10,-15 -291,-52 -291,-38c0,2 21,11 48,20c26,10 54,20 62,23c8,3 20,7 27,9c6,1 49,14 95,29c46,15 91,29 102,31c10,2 46,13 80,25c33,12 76,23 94,25c17,1 42,10 54,18c26,19 29,17 21,-12zm-2353,-135c79,-19 134,-25 310,-32c167,-7 205,-10 350,-29c63,-9 162,-18 220,-21c418,-20 378,-31 -100,-26c-91,1 -192,-3 -225,-8c-33,-5 -69,-7 -80,-5c-11,2 -51,6 -90,9c-38,3 -86,8 -105,12c-19,3 -44,7 -55,8c-53,8 -90,17 -108,26c-29,16 -77,30 -122,36c-22,3 -55,11 -74,19c-18,8 -42,14 -52,14c-11,0 -19,5 -19,11c0,13 58,8 150,-14zm3033,-242c10,-4 24,-2 32,5c21,17 214,4 236,-16c19,-17 40,-18 37,-2c-3,11 23,14 91,9c10,0 34,-16 54,-33c31,-30 34,-37 30,-75c-3,-28 -10,-43 -19,-43c-12,0 -12,-4 -2,-21c11,-17 11,-23 0,-26c-6,-3 -10,-9 -7,-13c10,-16 -68,-23 -179,-15c-61,4 -133,6 -161,6c-93,-2 -229,-1 -523,5c-208,4 -307,3 -339,-6c-26,-6 -94,-10 -152,-9c-395,8 -1461,-4 -1482,-17c-3,-2 -53,-6 -110,-8c-57,-3 -165,-9 -239,-13c-175,-10 -338,-10 -420,1c-36,4 -108,8 -160,7c-448,-3 -669,2 -667,13c1,6 -9,12 -22,14c-15,2 -21,0 -17,-7c17,-27 -16,-7 -43,26c-40,48 -44,113 -8,131c49,26 119,39 218,41c57,1 198,4 314,8c367,10 1439,4 1446,-9c9,-14 29,-1 29,18c0,9 11,14 35,14c25,0 33,-4 29,-14c-7,-18 8,-27 26,-15c13,8 13,10 0,19c-12,8 -9,10 13,10c15,0 26,-3 26,-7c-5,-33 30,-43 39,-11c2,10 8,18 12,18c4,0 21,3 38,6c27,6 29,4 25,-19c-4,-20 -1,-25 12,-23c25,4 36,28 19,40c-10,8 68,11 270,11c224,0 282,-2 274,-12c-12,-14 -2,-33 17,-33c13,0 28,27 21,39c-2,3 111,5 252,4c142,-1 291,-2 332,-3c143,-1 483,9 488,15c8,7 112,0 135,-10z"/>
   <path id="svg_3" d="m3116,3722c-3,-5 3,-20 13,-33c14,-18 18,-38 16,-79c-2,-58 -12,-108 -25,-125c-5,-5 -14,-30 -21,-55c-7,-25 -31,-71 -53,-104c-23,-32 -49,-71 -59,-87c-11,-16 -23,-29 -29,-29c-5,0 -23,-13 -39,-30c-24,-24 -134,-89 -134,-79c0,1 -22,-5 -50,-14c-98,-32 -175,-31 -261,4c-16,7 -38,14 -48,16c-11,2 -34,15 -52,28c-18,14 -36,25 -41,25c-5,0 -37,27 -72,60c-35,33 -61,60 -58,60c4,0 -5,16 -18,36c-13,19 -27,45 -30,57c-4,12 -15,40 -26,62c-10,22 -21,60 -23,84c-4,40 -2,44 24,54c32,12 52,47 39,68c-7,11 -11,10 -23,-6c-9,-11 -16,-17 -16,-13c0,4 -18,-2 -40,-13c-28,-15 -50,-19 -70,-15c-21,4 -30,2 -30,-7c0,-20 22,-37 47,-37c16,0 23,-6 23,-18c0,-11 9,-45 21,-78c11,-32 21,-64 23,-69c1,-6 14,-32 29,-57c15,-26 27,-51 27,-55c0,-5 28,-38 63,-74c58,-62 168,-137 211,-145c11,-2 42,-11 70,-20c68,-23 157,-21 236,6c72,24 107,38 130,51c8,5 24,13 35,18c20,9 96,81 146,139c32,36 87,134 93,165c2,12 11,40 20,62c18,47 33,128 31,167c-1,15 2,25 7,22c19,-12 58,6 58,26c0,11 -6,20 -12,21c-48,3 -76,7 -99,13c-15,4 -29,3 -33,-2z"/>
   <path id="svg_4" d="m5110,4575c-11,-13 -6,-178 7,-240c8,-38 6,-222 -3,-236c-3,-6 -18,-9 -32,-8c-39,4 -93,-11 -124,-32c-14,-11 -31,-19 -38,-19c-6,0 -9,-4 -5,-9c3,-5 -3,-16 -13,-23c-44,-31 -48,-103 -8,-142c24,-23 35,-27 65,-23c42,5 104,45 141,89l26,31l-1,-64c-2,-76 1,-89 25,-89c37,0 43,25 36,133c-5,56 -8,107 -7,112c0,6 3,107 7,225c6,204 -2,298 -24,301c-4,0 -15,2 -24,4c-9,2 -22,-3 -28,-10zm-20,-542c0,-8 -7,-25 -16,-38c-9,-14 -13,-25 -9,-25c13,0 -22,-28 -61,-49c-38,-21 -83,-28 -85,-13c-8,45 -4,55 35,87c23,19 52,38 65,43c34,12 71,10 71,-5z"/>
   <path id="svg_5" d="m4170,4482c0,-4 -10,-12 -22,-17c-25,-11 -25,-12 -17,-144c4,-60 3,-64 -19,-67c-31,-5 -82,-32 -82,-44c0,-6 -6,-10 -14,-10c-27,0 -93,-96 -101,-145c-7,-48 18,-120 42,-120c6,0 15,-3 19,-7c24,-25 119,4 152,47c12,15 22,26 22,24c0,-2 3,-43 7,-91c3,-49 2,-88 -3,-88c-5,0 -9,-26 -9,-57c-1,-81 -11,-119 -46,-169c-34,-50 -67,-69 -124,-73c-51,-3 -62,-14 -48,-44c17,-36 118,-52 143,-22c7,8 18,15 24,15c23,0 84,76 96,118c19,71 34,828 18,880c-7,20 -38,32 -38,14zm-37,-373c-28,-59 -79,-104 -130,-115c-21,-4 -45,22 -45,49c0,55 89,145 157,159c16,3 21,-3 25,-32c3,-19 0,-47 -7,-61z"/>
   <path id="svg_6" d="m4661,4262c-91,-46 -114,-328 -33,-409c21,-21 31,-24 70,-19c24,3 45,7 46,8c1,2 14,21 29,44c15,22 30,52 32,65c6,27 7,146 2,169c-20,85 -43,126 -84,149c-27,14 -22,14 -62,-7zm96,-192c2,-106 -7,-160 -30,-160c-10,0 -50,47 -54,64c-13,53 -19,100 -18,149c1,45 6,62 25,82l24,26l25,-25c23,-24 25,-33 28,-136z"/>
   <path id="svg_7" d="m4333,4195c-17,-12 -30,-39 -37,-75c-1,-3 -4,-9 -7,-15c-4,-5 -7,-61 -7,-124c-1,-98 2,-118 18,-142c32,-44 113,-45 160,-1c32,30 70,123 70,174c0,56 -45,178 -66,178c-8,0 -14,5 -14,10c0,16 -93,12 -117,-5zm132,-103c17,-43 14,-123 -5,-147c-4,-5 -10,-19 -12,-30c-4,-25 -29,-55 -45,-55c-7,0 -12,3 -11,8c1,4 -7,34 -16,66c-23,73 -16,202 12,222c23,17 57,-10 77,-64z"/>
   <path id="svg_8" d="m5015,3500c-4,-6 -7,-168 -8,-360c-2,-393 -9,-359 71,-366c27,-2 31,0 22,11c-7,9 -9,23 -4,37c4,13 7,28 5,33c-9,32 -12,255 -3,255c13,0 54,-55 77,-103c10,-22 24,-41 32,-44c7,-3 13,-11 13,-18c0,-7 10,-25 22,-41c13,-15 30,-42 39,-59c9,-16 23,-30 30,-30c23,0 17,48 -11,81c-50,63 -62,80 -82,118c-11,22 -27,46 -34,54c-8,7 -12,18 -9,23c4,5 2,9 -3,9c-5,0 -17,15 -27,33l-17,33l38,58c22,32 49,74 62,93c12,18 20,38 17,43c-9,15 -35,12 -35,-3c0,-7 -10,-24 -22,-37c-13,-14 -22,-27 -22,-30c2,-7 -69,-109 -76,-110c-3,0 -4,60 -4,132c1,131 -5,175 -29,190c-17,11 -35,10 -42,-2z"/>
   <path id="svg_9" d="m4285,3441c-6,-5 -19,-11 -30,-13c-19,-3 -20,-12 -22,-182c-1,-99 -5,-186 -8,-195c-4,-9 -8,-54 -11,-101c-2,-47 -9,-116 -15,-154c-15,-94 -8,-101 114,-101c92,0 124,10 114,38c-2,8 -27,12 -73,12l-69,0l0,105c0,58 6,159 13,225c17,151 21,367 7,372c-6,2 -15,-1 -20,-6z"/>
   <path id="svg_10" d="m5508,3333c-16,-4 -18,-18 -19,-101c-2,-250 -9,-405 -23,-492c-9,-52 -16,-114 -16,-137c0,-36 3,-43 20,-43c11,0 20,4 20,9c0,5 10,11 23,13c12,2 22,6 21,10c0,4 5,47 11,95c7,49 13,142 14,208c1,66 4,145 7,176c4,31 7,102 8,158c1,114 -3,121 -66,104z"/>
   <path id="svg_11" d="m4719,3233c-1,-5 -3,-37 -4,-73c-8,-177 -14,-210 -45,-266c-17,-30 -37,-54 -45,-54c-7,0 -25,23 -39,52c-21,43 -26,66 -26,132c0,45 -3,105 -6,134c-6,46 -10,52 -30,52c-12,0 -26,-5 -30,-11c-6,-11 -6,-135 1,-265c5,-92 55,-174 93,-150c5,3 21,7 36,10c16,3 29,6 30,8c1,2 14,18 29,36c15,19 25,38 21,43c-3,5 -1,9 4,9c14,0 22,26 34,115c11,89 16,191 10,218c-4,17 -31,25 -33,10z"/>
   <path id="svg_12" d="m4874,3178c-61,-68 -68,-85 -70,-198c-3,-138 8,-201 45,-251c16,-22 33,-41 38,-41c4,-1 26,-12 48,-26c22,-15 46,-27 53,-28c17,-3 26,20 18,50c-4,18 -15,25 -43,29c-32,6 -43,14 -67,54c-28,46 -29,53 -32,190c-2,133 0,145 19,170c12,16 25,30 29,31c10,5 10,52 0,52c-4,0 -21,-15 -38,-32z"/>
   <path id="svg_13" d="m5505,2503c-16,-8 -37,-22 -46,-30c-13,-11 -22,-11 -42,-2c-27,12 -97,5 -97,-11c0,-5 -10,-12 -21,-15c-19,-6 -21,-12 -16,-55c3,-26 16,-63 29,-83c43,-66 71,-115 70,-121c-4,-14 35,-69 50,-72c9,-1 30,13 47,32c33,36 104,142 107,160c1,6 14,30 28,53c29,45 39,109 22,127c-37,36 -84,42 -131,17zm80,-42c8,-27 -25,-96 -103,-216c-29,-44 -47,-64 -50,-55c-3,8 -16,29 -29,47c-14,17 -23,33 -22,35c1,2 -9,21 -24,43c-39,60 -42,92 -9,108c41,20 63,12 52,-19c-8,-21 -6,-26 15,-36c27,-12 55,2 55,29c0,19 71,83 92,83c9,0 19,-9 23,-19z"/>
  </g>
  <line stroke-linecap="undefined" stroke-linejoin="undefined" id="svg_14" y2="162" x2="245" y1="135" x1="243" stroke-width="5" stroke="#000" fill="none"/>
  <line stroke-linecap="undefined" stroke-linejoin="undefined" id="svg_15" y2="160" x2="277" y1="133" x1="275" stroke-width="5" stroke="#000" fill="none"/>
 </g>
</svg>