<?xml version="1.0" encoding="utf-8"?>
<!-- Generator: Adobe Illustrator 18.0.0, SVG Export Plug-In . SVG Version: 6.00 Build 0)  -->
<!DOCTYPE svg PUBLIC "-//W3C//DTD SVG 1.1//EN" "http://www.w3.org/Graphics/SVG/1.1/DTD/svg11.dtd">
<svg version="1.1" id="Layer_1" xmlns="http://www.w3.org/2000/svg" xmlns:xlink="http://www.w3.org/1999/xlink" x="0px" y="0px"
	 viewBox="0 0 2436.347 3007.762" enable-background="new 0 0 2436.347 3007.762" xml:space="preserve">
<g>
	<path fill="#ECECEC" d="M584.325,1054.533c-0.056-14.276,2.461-28.335,3.503-42.498c0.705-9.582,1.95-19.134,2.879-28.659
		c1.057-10.828,1.464-21.741,2.929-32.577c1.145-8.467,2.445-17.031,2.761-25.659c0.424-11.566,1.682-23.062,3.537-34.505
		c1.27-7.835,1.313-15.863,1.902-23.734c1.283-17.167,3.84-34.198,4.749-51.415c0.87-16.463,3.821-32.806,5.363-49.248
		c0.803-8.564,1.789-17.194,2.085-25.714c0.599-17.258,3.756-34.206,4.711-51.429c1.132-20.427,3.82-40.809,5.945-61.188
		c1.677-16.08,2.961-32.234,5.146-48.294c1.239-9.103,1.414-18.473,2.548-27.672c1.456-11.81,1.414-23.753,3.563-35.51
		c1.307-7.147,1.286-14.538,1.85-21.737c0.801-10.217,2.211-20.425,2.928-30.662c0.688-9.806,1.385-19.738,3.03-29.564
		c1.354-8.09,2.002-16.461,2.372-24.677c0.777-17.224,2.951-34.314,4.688-51.411c0.875-8.614,1.237-17.167,1.574-25.768
		c2.156-3.557,5.753-4.284,9.444-4.708c58.879-6.764,117.738-13.7,176.639-20.269c51.944-5.793,103.885-11.644,155.877-16.966
		c49.004-5.016,97.997-10.14,146.999-15.18c53.649-5.518,107.243-11.57,160.787-18.051c90.245-10.923,180.471-22.004,270.603-33.828
		c131.747-17.284,263.471-34.743,395.058-53.221c11.208-1.574,22.419-3.218,33.677-4.417c4.77-0.508,9.103-1.825,12.944-4.71
		c1.046-0.751,2.203-1.007,3.465-0.799c3.105,2.387,2.977,5.764,2.652,9.109c-4.022,41.427-7.948,82.863-11.883,124.298
		c-4.469,47.067-9.023,94.127-13.507,141.193c-3.411,35.801-7.103,71.581-10.565,107.38c-4.456,46.071-8.939,92.14-13.326,138.218
		c-4.797,50.39-9.856,100.756-14.587,151.152c-4.357,46.412-9.02,92.795-13.488,139.196c-4.916,51.04-10.059,102.061-14.834,153.114
		c-4.341,46.411-8.972,92.796-13.257,139.213c-3.274,35.474-6.866,70.93-10.394,106.386c-4.616,46.388-8.958,92.805-13.479,139.203
		c-4.909,50.38-9.445,100.797-14.666,151.146c-3.951,38.093-6.859,76.285-11.008,114.36c-0.687,6.3-1.479,12.566-2.472,18.792
		c-2.165,10.735-10.971,16.458-18.357,22.812c-13.621,11.717-26.371,24.354-39.56,36.505
		c-44.473,40.975-88.725,82.193-133.1,123.278c-21.942,20.315-43.801,40.733-65.656,61.149
		c-28.894,26.991-58.127,53.618-86.861,80.782c-2.178,2.06-4.462,4.074-7.825,3.755c-9.927-2.675-20.134-3.971-30.179-6.069
		c-4.076-0.852-7.886-0.223-11.52,1.75c-6.237-4.211-13.075-6.509-20.653-6.472c-37.334-8.259-75.209-13.576-112.688-21.006
		c-6.066-1.203-9.827-0.265-9.733,6.87c0.026,1.993-0.571,3.941-1.795,5.609c-5.395,1.373-5.141-3.129-5.157-5.823
		c-0.048-8.028-4.37-11.235-11.672-11.773c-9.205-2.752-19.546-1.076-27.897-7.137c-1.698-6.352,3.454-8.87,7.077-11.878
		c43.072-35.762,84.936-72.798,124.187-112.809c29.79-30.368,46.303-67.286,55.508-107.837
		c8.752-38.557,10.303-77.645,6.991-117.142c-2.12-25.279-5.905-50.233-9.94-75.201c-0.375-2.507-0.589-5.041-1.117-7.533
		c-0.143-1.023-0.07-2.033,0.188-3.031c0.818-2.077,2.546-3.14,4.567-3.447c13.708-2.081,22.524-11.046,29.747-21.734
		c16.687-24.693,21.211-52.153,16.723-81.176c-3.768-24.363-12.634-46.875-26.63-67.282c-3.226-4.703-6.906-8.992-11.258-12.658
		c-10.154-8.555-21.43-8.647-31.846-0.262c-9.527,7.67-15.663,18.001-22.188,28.092c-4.683,7.243-6.894,6.941-11.663-0.448
		c-19.082-69.914-45.436-137.129-77.366-202.045c-29.583-60.143-63.088-118.039-108.006-168.44
		c-29.387-32.974-63.638-58.534-107.659-68.71c-32.551-7.155-65.157-13.93-98.391-16.914c-15.896-1.427-31.773-3.336-47.776-3.279
		c-45.93,0.162-91.903-1.273-137.76,2.217c-48.114,3.662-96.119,8.57-143.992,14.667c-10.881,1.386-21.811,2.342-32.657,3.953
		c-20,2.668-39.755,6.734-59.555,10.567C593.228,1055.973,588.584,1058.16,584.325,1054.533z"/>
	<path fill="#E8985B" d="M1412.896,1482.875c0.736,1.431,1.472,2.862,2.587,5.031c3.077-1.51,4.249-4.608,5.858-7.236
		c5.558-9.082,11.263-18.028,19.207-25.315c13.216-12.123,26.658-12.053,39.736,0.252c5.13,4.827,9.238,10.438,12.879,16.414
		c17.15,28.154,27.118,58.33,25.117,91.684c-1.283,21.376-7.849,41.129-20.988,58.135c-7.523,9.738-16.038,18.915-30.012,18.973
		c-2.196,0.009-2.328,1.973-2.732,3.553c1.51,37.123-2.262,73.701-10.899,109.837c-12.412,51.928-33.235,100.317-60.324,146.204
		c-28.55,48.363-62.481,92.624-100.197,134.141c-80.016,88.079-172.361,161.247-272.024,225.607c-2.278,1.471-4.18,3.261-6.028,5.19
		c-23.506,16.503-49.699,20.958-77.691,17.37c-48.412-10.875-96.946-21.24-144.991-33.749
		c-95.589-24.889-189.364-55.124-279.644-95.456c-63.763-28.486-124.812-61.777-179.193-106.157
		c-18.858-15.39-36.554-31.973-51.867-51.077c-23.673-29.534-34.452-64.291-41.835-100.489c-3.597-17.635-5.032-35.597-7.404-53.418
		c-1.276-9.589-1.991-9.703-10.629-5.546c-2.702,1.3-5.458,2.531-8.016,4.079c-21.351,12.914-42.542,11.889-63.148-1.342
		c-24.029-15.429-46.814-32.069-56.275-61.153c-7.431-22.844-5.14-45.362,0.946-67.889c1.996-7.387,4.886-14.507,7.101-21.836
		c18.394-16.156,38.898-18.045,61.044-9.085c9.229,3.734,17.782,8.792,26.582,13.367c2.523,0.869,3.839,0.544,2.439-2.467
		c-0.126-0.724-0.252-1.448-0.378-2.173c7.541-2.044,11.429,3.823,15.886,7.774c9.907,8.78,9.749,8.959,15.471-2.448
		c1.048-2.089,2.312-4.032,3.853-5.804c47.179-82.993,76.511-172.045,90.187-266.335c4.062-28.008,5.961-56.185,6.386-84.568
		c0.559-37.322-0.462-74.443-5.855-111.395c-1.497-10.257,1.431-18.595,8.684-26.342c25.449-27.182,56.444-46.627,88.773-64.042
		c70.159-37.792,144.912-64.113,220.971-87.013c6.358-1.914,12.888-3.283,19.451-4.401c0.207-0.035,0.547-0.321,0.528-0.443
		c-0.049-0.313-0.266-0.601-0.416-0.899c6.475-3.168,13.669-2.437,20.476-3.288c35.228-4.402,70.492-8.646,105.837-11.934
		c22.798-2.121,45.686-3.536,68.557-4.996c39.222-2.503,78.434-2.236,117.649-1.495c47.28,0.893,93.975,6.996,139.899,18.398
		c3.768,0.936,7.981,0.449,11.353,2.94c-1.715,17.43,1.364,34.557,4.025,51.587c14.923,95.513,57.157,178.083,119.146,251.457
		c43.619,51.63,94.496,94.667,151.286,130.916C1399.75,1479.49,1404.655,1486.193,1412.896,1482.875z"/>
	<path fill="#E2E2E2" d="M2016.269,162.501c-0.044,2.933-1.87,3.693-4.448,4.303c-11.94,2.824-24.128,4.04-36.229,5.783
		c-16.689,2.403-33.438,4.396-50.146,6.677c-12.439,1.698-24.851,3.595-37.28,5.366c-13.083,1.865-26.123,4.381-39.273,5.324
		c-12.271,0.88-24.147,3.997-36.408,4.866c-11.85,0.839-23.613,2.942-35.402,4.582c-12.11,1.684-24.19,3.593-36.311,5.194
		c-12.132,1.602-24.441,2.225-36.413,4.593c-13.684,2.707-27.577,3.203-41.289,5.395c-17.291,2.764-34.649,5.128-52.003,7.477
		c-12.452,1.686-24.996,2.742-37.408,4.668c-13.72,2.129-27.561,3.237-41.306,5.21c-12.402,1.78-24.904,3.417-37.385,4.894
		c-18.696,2.212-37.452,3.986-56.052,7.159c-13.346,2.277-26.906,3.499-40.421,4.507c-6.306,0.47-12.546,1.587-18.681,2.549
		c-18.954,2.972-38.07,4.745-57.067,7.046c-19.669,2.382-39.36,5.069-59.135,6.899c-13.758,1.273-27.658,2.316-41.301,5.183
		c-6.436,1.352-13.138,1.196-19.732,2.122c-15.383,2.159-31.042,2.365-46.421,4.546c-15.394,2.183-30.944,2.696-46.305,5.307
		c-7.763,1.319-15.795,1.458-23.706,2.338c-22.029,2.451-44.157,3.998-66.2,6.333c-18.742,1.985-37.501,3.904-56.204,6.114
		c-15.417,1.822-30.927,2.804-46.303,5.292c-14.667,2.374-29.633,2.848-44.433,4.478c-14.777,1.628-29.489,3.859-44.272,5.419
		c-7.571,0.799-15.145,1.547-22.714,2.379c-16.101,1.768-32.167,3.845-48.253,5.62c-14.13,1.559-28.282,3.126-42.431,4.604
		c-14.127,1.476-28.203,3.469-42.277,5.416c-6.879,0.951-14.035-0.434-20.672,2.473c0,0-0.026-0.001-0.026-0.001
		c-0.611-0.723-1.395-1.262-2.068-1.918c-19.933-3.01-20.051-30.882-8.958-41.959c13.303-13.284,29.047-21.589,47.941-24.152
		c20.315-2.756,40.505-6.417,60.78-9.477c15.378-2.32,30.845-4.068,46.202-6.517c20.576-3.283,41.281-5.643,61.805-9.363
		c15.939-2.889,32.132-4.348,48.188-6.618c16.373-2.316,32.704-4.922,49.074-7.258c11.792-1.683,23.626-3.073,35.426-4.704
		c12.121-1.676,24.217-3.538,36.337-5.226c11.797-1.643,23.612-3.159,35.417-4.748c18.355-2.469,36.7-5.008,55.064-7.41
		c12.469-1.631,24.972-3.004,37.442-4.624c13.771-1.789,27.507-3.856,41.288-5.566c13.14-1.631,26.338-2.797,39.474-4.461
		c14.762-1.871,29.61-2.94,44.318-5.395c7.151-1.194,14.479-1.551,21.723-2.366c18.082-2.035,36.165-4.333,54.275-5.793
		c16.841-1.358,33.659-3.147,50.455-4.773c16.103-1.558,32.341-2.209,48.354-5.151c7.427-1.365,15.143-1.377,22.729-2.243
		c17.42-1.989,34.83-4.241,52.269-5.865c19.787-1.843,39.442-4.703,59.22-6.577c19.412-1.84,38.684-5.108,58.045-7.529
		c18.061-2.258,36.188-3.998,54.231-6.378c22.292-2.941,44.469-6.869,66.813-9.274c12.846-1.383,25.574-3.552,38.437-4.82
		c15.789-1.556,31.452-4.368,47.175-6.598c12.443-1.765,24.901-3.43,37.342-5.214c16.695-2.395,33.336-5.246,50.083-7.19
		c16.436-1.908,32.568-5.958,49.152-6.697c2.049,7.396-0.892,14.455-2.04,21.482c-1.941,11.876-0.534,23.051,3.531,34.109
		C1997.043,162.849,2007.056,161.717,2016.269,162.501z"/>
	<path fill="#E5E5E5" d="M2036.399,1674.8c3.344,24.574,6.174,49.232,10.174,73.699c4.055,24.806,7.412,49.719,11.144,74.562
		c3.538,23.553,7.724,47.012,11.164,70.586c2.766,18.95,6.194,37.877,9.803,56.727c5.725,29.904,11.903,59.723,17.48,89.654
		c5.95,31.931,13.232,63.561,20.651,95.166c0.303,1.289,1.015,2.499,1.205,3.794c0.677,4.621-0.886,5.97-5.673,4.624
		c-10.862-3.053-21.703-6.185-32.512-9.421c-45.766-13.704-91.999-25.595-138.69-35.694c-12.941-2.799-25.937-5.341-38.907-8.001
		c-3.632-4.191-2.958-9.334-3.056-14.261c-0.953-48.112-0.969-96.26,0.358-144.327c1.227-44.427,2.782-88.902,6.002-133.243
		c2.73-12.842,13.6-19.384,22.241-27.242c23.607-21.467,46.803-43.377,70.144-65.121c10.213-9.515,21.145-18.253,30.842-28.335
		C2030.701,1675.955,2032.775,1673.213,2036.399,1674.8z"/>
	<path fill="#222121" d="M1336.541,2293.145c-0.104,3.134,1.646,5.703,2.665,8.477c3.33,9.066,3.384,9.046-6.243,11.278
		c-5.309,7.57-13.607,4.285-20.617,5.677c-21.006,7.328-42.341,13.686-63.032,21.945c-22.872,9.13-45.045,19.664-66.877,31.061
		c-12.223,6.381-20.272,15.801-25.694,28.037c-4.992,11.267-8.719,22.986-12.398,34.715c-4.692,14.96-9.503,29.849-20.368,41.764
		c-1.841,2.019-1.772,4.126-1.308,6.459c-22.548,21.479-49.371,33.862-80.201,37.776c-3.948,0.501-7.86,1.405-11.6-0.772
		c-2.608-3.29,0.172-5.635,1.692-7.907c5.005-7.482,3.311-13.598-3.017-19.331c-5.434-4.923-11.351-9.174-17.278-13.438
		c-3.211-2.31-6.845-4.282-7.51-8.791c-0.195-3.552,1.781-6.258,3.543-9.033c13.754-21.674,22.531-45.367,28.487-70.216
		c6.21-29.722,9.554-59.706,8.702-90.096c0.412-13.486-2.079-26.739-3.245-40.096c-0.314-3.593-0.941-7.148-0.208-10.749
		c3.369-8.554,11.264-10.935,18.825-13.787c58.477-2.543,116.498-8.544,173.415-22.942c15.82-4.002,31.183-9.32,46.131-15.816
		c5.784-2.514,10.883-3.195,14.693,3.057c7.801,14.693,14.04,30.148,21.512,45.014
		C1323.796,2261.107,1332.736,2276.055,1336.541,2293.145z"/>
	<path fill="#131218" d="M698.403,2886.85c-7.593,1.292-15.194,1.484-22.786,0.037c-11.608-2.215-16.344-7.659-17.746-19.3
		c-1.93-16.03-1.39-31.925,2.636-47.533c4.577-17.745,14.191-31.409,32.68-37.006c1.543-0.467,3.264-0.345,4.902-0.498
		c21.936-6.623,44.136-5.077,66.573-3.131c29.808,2.585,58.253-2.23,83.351-20.028c35.255-19.421,70.302-39.315,109.678-49.692
		c12.56-3.31,25.224-6.035,38.088-7.883c13.669-3.118,27.525-2.114,41.333-1.993c16.002,0.326,31.784,2.621,47.375,6.056
		c6.237,1.375,11.666,0.881,17.117-2.563c8.122-5.13,16.769-9.024,26.718-8.744c19.428-9.151,40.091-14.12,61.184-17.059
		c50.081-6.978,99.016-2.697,145.894,17.254c43.472,18.502,79.648,46.643,108.442,84.163c4.463,5.816,8.648,11.846,11.657,18.568
		c5.957,13.308,3.369,19.036-10.532,22.809c-11.912,3.233-24.132,5.026-36.393,6.043c-45.177,3.747-90.439,4.586-135.746,3.183
		c-1.621-0.05-3.246-0.007-4.193-0.007c-2.415,2.047-0.916,3.591-0.753,5.092c1.209,11.097-2.32,15.786-13.337,18.265
		c-41.554,9.352-83.332,17.519-125.567,23.102c-37.633,4.975-75.417,8.52-113.324,10.687c-44.242,2.529-88.502,3.461-132.812,2.101
		c-21.321-0.654-42.529-2.676-63.765-4.406c-10.201-0.831-10.188-0.916-11.622-11.406c-0.267-1.953-0.604-3.897-1.032-6.626
		c-11.991,2.978-22.089,9.621-33.472,12.64c-5.473-0.028-2.737-3.686-1.666-5.056c9.508-12.168,16.269-25.872,23.171-39.562
		c2.947-5.845,7.588-4.718,8.939,0.951c4.256,17.857,16.835,18.295,32.023,18.877c53.593,2.054,107.213,2.7,160.764,1.311
		c65.867-1.71,131.659-5.912,196.419-19.594c8.825-1.865,17.477-4.266,25.923-7.377c9.083-3.346,9.641-5.472,2.47-12.036
		c-16.274-14.895-34.52-27.267-53.02-39.091c-24.375-15.578-48.218-32.629-76.404-40.853c-41.12-11.997-82.696-12.517-124.318-2.121
		c-13.82,3.452-25.576,11.114-37.396,18.623c-30.472,19.359-62.341,35.893-96.698,47.275c-18.443,6.11-37.287,9.873-56.897,9.203
		c-19.945-0.682-39.911,0.75-59.863-1.75c-13.255-1.661-15.997,0.669-21.756,12.615c-8.083,16.767-6.429,33.537-0.461,50.482
		C696.001,2876.042,700.27,2880.675,698.403,2886.85z"/>
	<path fill="#EDEDED" d="M1826.338,2172.636c-5.82,3.777-11.537-0.05-16.976-0.892c-25.135-3.894-50.138-8.647-75.168-13.205
		c-23.409-4.263-46.774-8.772-70.193-12.979c-21.139-3.798-42.334-7.283-63.487-11.006c-11.722-2.063-23.508-3.919-35.067-6.692
		c-5.32-1.276-10.587-0.708-15.813-1.557c3.294-10.112,11.972-15.889,19.378-22.122c12.248-10.308,23.701-21.484,35.281-32.407
		c33.167-31.284,66.723-62.155,100.083-93.222c46.027-42.861,92.457-85.292,138.226-128.435c3.539-3.336,7.311-7.632,12.793-2.63
		c4.848,13.258,0.275,26.424-0.893,39.458c-4.804,53.616-10.109,107.192-15.432,160.759
		C1834.931,2089.357,1832.472,2131.188,1826.338,2172.636z"/>
	<path fill="#381C0E" d="M227.818,1690.477c-3.955,5.593-4.473,12.995-9.569,18.708c-8.483-7.625-15.08-17.127-26.125-20.859
		c-3.193-2.472-5.68-5.572-8.118-8.754c-33.892-44.244-57.82-93.094-68.472-148.075c-6.521-33.659-7.143-67.413-1.723-101.299
		c6.199-38.759,12.617-77.472,22.619-115.479c3.555-13.509,7.956-26.739,13.162-39.73c13.025-32.504,34.762-57.306,65.498-73.917
		c19.885-10.746,40.213-20.674,60.343-30.969c6.33-0.405,7.53,4.659,9.006,8.917c10.527,30.382,16.252,61.787,18.636,93.752
		c1.012,13.57,2.362,27.12,2.336,40.819c-0.121,64.182-8.442,127.398-21.369,190.106c-10.498,50.925-24.652,100.868-40.675,150.309
		C239.268,1666.658,233.367,1678.477,227.818,1690.477z"/>
	<path fill="#28272C" d="M698.403,2886.85c-7.66-14.591-13.051-29.698-12.13-46.605c0.64-11.75,5.673-21.734,11.368-31.53
		c1.566-2.694,4.236-4.215,7.567-4.032c6.614,0.364,13.286-0.889,19.86,1.116c2.484,0.758,5.251,0.79,7.89,0.799
		c18.995,0.065,38.022,0.714,56.978-0.146c19.351-0.879,37.763-6.729,55.85-13.526c33.817-12.709,64.898-30.609,95.145-50.047
		c14.948-9.605,31.722-13.232,48.773-16.178c15.81-2.73,31.81-2.447,47.734-1.953c34.459,1.069,66.692,9.792,96.325,28.063
		c21.492,13.251,43.028,26.383,63.48,41.215c10.751,7.797,21.52,15.575,30.727,25.241c5.278,5.541,5.247,6.443-2.057,9.492
		c-10.425,4.351-21.25,7.49-32.314,9.934c-18.432,4.07-37.06,7.191-55.743,9.407c-15.093,1.79-30.295,3.28-45.397,4.972
		c-12.852,1.44-25.926-0.117-38.576,3.23c-1.576,0.417-3.31,0.264-4.972,0.317c-36.902,1.176-73.793,2.701-110.733,2.088
		c-18.324-0.304-36.662,0.185-54.985-0.139c-21.586-0.381-43.111-2.952-64.745-1.953c-5.591,0.258-9.373-2.168-11.885-7.295
		c-2.752-5.617-4.814-11.508-7.46-18.909c-3.187,6.642-5.758,11.883-8.226,17.172c-4.659,9.988-10.029,19.501-17.845,27.432
		c-1.254,1.272-2.192,2.599-0.078,3.961c-8.292,5.07-17.075,7.857-27.02,7.661C730.096,2886.323,714.247,2886.741,698.403,2886.85z"
		/>
	<path fill="#E5E5E5" d="M1970.257,980.614c0.226,16.255,1.732,32.461,2.52,48.683c0.961,19.812,1.808,39.723,3.887,59.44
		c2.185,20.727,3.088,41.545,5.159,62.277c1.209,12.11,1.937,24.444,2.838,36.649c0.8,10.829,1.03,21.781,3.11,32.553
		c1.694,8.77,1.434,17.842,2.043,26.704c1.181,17.182,3.235,34.282,4.861,51.391c1.624,17.082,3.283,34.211,5.072,51.286
		c1.651,15.766,3.641,31.54,4.765,47.394c1.12,15.798,3.466,31.513,5.399,47.249c0.928,7.554,1.309,15.187,1.991,22.732
		c1.844,20.427,5.106,40.677,6.739,61.134c1.522,19.068,5.521,37.933,7.186,56.996c1.21,13.855,3.852,27.531,4.483,41.421
		c0.173,3.8,0.889,7.229,3.647,10.004c1.766,2.4-0.38,3.633-1.663,4.845c-36.699,34.667-73.392,69.344-111.133,102.886
		c-1.987,1.766-4.023,3.492-6.564,4.518c-1.062,0.4-2.135,0.516-3.264,0.371c-1.092-0.587-1.81-1.457-2.199-2.624
		c-0.918-21.351,1.722-42.543,2.908-63.781c1.483-26.56,3.094-53.124,5.114-79.659c2.676-35.153,4.638-70.355,7.413-105.506
		c2.356-29.844,4.527-59.706,6.648-89.569c2.075-29.206,4.705-58.367,6.942-87.559c2.264-29.524,4.707-59.032,7.127-88.542
		c2.829-34.488,5.97-68.949,8.655-103.451c2.838-36.486,6.144-72.936,9.255-109.4c0.848-9.941,2.33-19.828,2.325-29.859
		C1965.519,985.872,1965.132,981.488,1970.257,980.614z"/>
	<path fill="#E2E2E2" d="M1860.544,1797.123c-0.792-10.342,1.905-20.417,2.459-30.685c0.62-11.501,2.973-22.897,3.49-34.505
		c0.455-10.208,1.983-20.382,3.339-30.53c1.141-8.539,1.315-17.183,2.046-25.723c1.437-16.81,3.214-33.627,4.899-50.39
		c1.683-16.742,2.966-33.57,5.04-50.305c1.249-10.076,1.702-20.496,2.868-30.637c1.131-9.831,0.875-19.802,3.139-29.572
		c1.786-7.707,1.407-15.841,1.999-23.71c1.29-17.167,3.763-34.216,4.858-51.411c0.603-9.467,1.092-19.108,3.062-28.564
		c1.614-7.745,1.736-15.856,2.187-23.691c0.954-16.552,3.005-32.986,4.706-49.416c2.449-23.661,4.02-47.412,7.198-71.031
		c1.394-10.363,1.763-21.119,2.725-31.654c0.928-10.173,1.435-20.413,3.268-30.544c1.526-8.437,1.194-17.122,2.209-25.718
		c2.363-20.013,4.152-40.123,5.876-60.203c0.875-10.197,1.953-20.472,2.859-30.663c0.872-9.808,0.969-19.771,2.996-29.582
		c1.59-7.7,1.899-15.833,2.247-23.679c0.764-17.237,3.314-34.272,4.653-51.43c1.619-20.751,3.832-41.484,5.905-62.21
		c2.006-20.069,3.827-40.157,5.938-60.213c2.216-21.052,3.542-42.203,6.128-63.184c2.063-16.735,2.879-33.574,5.127-50.305
		c1.307-9.733,2.446-19.691,2.767-29.663c0.328-10.203,1.918-20.385,3.322-30.526c1.136-8.208,1.307-16.534,1.964-24.727
		c1.377-17.153,3.854-34.199,4.769-51.416c0.875-16.464,3.716-32.817,5.464-49.243c0.875-8.224,1.169-16.52,1.848-24.75
		c0.788-9.548,1.63-19.261,2.964-28.625c1.451-10.182,0.212-20.537,3.051-30.611c1.774-6.295,1.01-13.139,1.733-19.733
		c1.006-9.176,2.611-18.343,2.852-27.666c0.289-11.213,1.708-22.387,3.298-33.527c1.026-7.193,2.097-14.554,2.219-21.691
		c0.309-17.954,3.078-35.653,4.721-53.426c1.548-16.746,2.849-33.572,5.027-50.304c1.27-9.75,2.43-19.695,2.762-29.665
		c0.339-10.204,2.154-20.356,3.22-30.541c0.965-9.214,0.751-18.502,2.427-27.703c0.937-5.143,0.024-10.55,1.852-15.745
		c0.838-2.381,0.918-5.333-1.598-7.343c-1.396-1.418-1.63-3.158-1.411-5.027c3.644-8.725,5.366-9.171,10.935-2.575
		c11.902,14.099,17.126,29.422,14.661,48.694c-5.611,43.872-8.989,88.022-13.305,132.056c-4.057,41.38-8.106,82.762-12.134,124.145
		c-0.547,5.62-3.618,10.764-2.911,16.58c-4.673,13.661-4.024,28.075-6.089,42.1c-1.545,10.497-1.366,21.101-3.196,31.58
		c-1.589,9.1-1.716,18.449-2.65,27.672c-1.099,10.85-2.293,21.691-3.593,32.518c-0.948,7.892-1.254,15.88-1.847,23.755
		c-1.293,17.173-3.436,34.27-4.889,51.418c-1.393,16.432-2.45,32.963-5.18,49.308c-1.358,8.13-1.079,16.467-2.177,24.732
		c-2.177,16.386-2.289,33.049-4.529,49.423c-2.289,16.727-2.988,33.583-5.158,50.323c-1.266,9.769-1.725,19.835-2.913,29.644
		c-1.607,13.275-1.476,26.5-1.796,39.762c-2.602,26.068-3.862,52.236-6.509,78.319c-4.607,45.386-8.662,90.835-13.118,136.24
		c-4.456,45.41-8.638,90.848-13.254,136.242c-5.257,51.692-9.93,103.44-15.178,155.132c-4.473,44.068-8.378,88.193-12.8,132.267
		c-4.456,44.41-8.464,88.863-13.09,133.256c-2.554,24.513-4.188,49.12-7.332,73.564
		C1882.177,1784.405,1873.009,1792.484,1860.544,1797.123z"/>
	<path fill="#353535" d="M1860.544,1797.123c8.589-6.745,16.654-14.054,23.919-22.223c6.853-11.381,17.495-18.663,28.105-25.98
		l-0.052,0.022c0.45-1.063,1.279-1.697,2.34-2.068c23.243-21.335,46.548-42.601,69.706-64.028
		c16.567-15.329,32.937-30.872,49.394-46.32c20.829-19.139,41.73-38.2,62.474-57.431c79.118-73.346,158.169-146.765,237.295-220.103
		c9.397-8.709,7.005-8.851,15.661,0.535c3.785,4.104,10.368,7.643,10.311,12.773c-0.058,5.232-6.984,8.256-11.062,12.043
		c-102.486,95.158-205.033,190.252-307.55,285.377c-1.684,1.562-3.129,3.381-4.686,5.08c-15.806,13.177-30.429,27.651-45.538,41.592
		c-25.385,23.422-50.676,46.947-75.973,70.465c-2.412,2.242-4.583,4.742-6.865,7.123c-8.716,11.49-19.319,21.077-30.406,30.179
		c-6.065,5.109-11.322,11.049-17.013,16.54c-2.606,2.515-5.021,5.326-9.043,5.509c-11.511,9.051-21.718,19.547-32.432,29.47
		c-87.828,81.345-175.557,162.796-263.299,244.234c-2.172,2.016-4.136,4.257-6.197,6.393c-16.416,13.617-31.37,28.835-47.204,43.089
		c-7.91,7.121-15.799,14.264-23.698,21.397c-4.612,8.487-8.721,17.565-20.593,17.562c-5.301-1.886-8.903-5.62-11.439-10.519
		c-1.474-5.183-1.21-10.437-0.61-15.702c0.842-4.852,4.852-7.198,8.052-10.185c3.334-3.571,5.961-7.789,9.779-10.927
		c0.63-0.576,1.323-1.081,2.038-1.545c2.165-1.213,4.191-2.634,6.031-4.32c2.651-2.061,5.542-3.815,7.842-6.32
		c7.795-7.583,15.215-15.539,23.191-22.923c2.653-2.456,5.531-4.711,9.222-5.512c18.629-17.068,37.344-34.043,55.873-51.22
		c94.733-87.819,189.423-175.683,284.093-263.57C1855.108,1802.918,1858.462,1800.632,1860.544,1797.123z"/>
	<path fill="#DD723E" d="M102.433,1688.681c2.452,1.793,1.616,3.912,0.838,6.236c-4.216,12.581-7.983,25.149-9.734,38.5
		c-4.574,34.867,5.459,63.44,33.253,85.542c10.679,8.492,21.26,16.927,33.7,22.899c15.421,7.402,30.507,7.678,45.75-0.12
		c7.119-3.641,14.221-7.326,21.458-10.72c4.697-2.203,5.927-1.474,6.588,3.608c2.091,16.075,3.845,32.196,6.108,48.246
		c3.822,27.101,11.098,53.321,22.36,78.245c6.44,14.252,15.573,26.918,25.784,38.915c30.96,36.374,68.891,64.038,108.892,89.39
		c27.022,17.126,54.922,32.613,83.7,46.455c25.153,12.098,50.793,23.146,76.633,33.777c32.917,13.543,66.269,25.867,100.052,36.919
		c38.486,12.591,77.195,24.487,116.456,34.621c26.661,6.883,53.298,13.888,80.07,20.301c26.088,6.25,52.415,11.502,78.624,17.25
		c1.232,0.27,2.34,1.104,3.505,1.675c-3.64,4.083-8.57,2.529-13.037,3.002c-1.692,0.078-3.386-0.009-5.078-0.019
		c-3.347,0.104-6.694,0.032-10.044-0.048c-2.266,0.086-4.505-0.157-6.739-0.488c-26.333-2.44-52.528-6.127-78.856-8.606
		c-17.951-4.794-36.491-6.549-54.606-10.545c-14.903-3.288-29.956-5.885-44.898-9.003c-6.723-3.217-15.112-2.037-20.864-7.842
		c-30.449-8.403-61.003-16.406-91.144-25.924c-97.49-30.783-190.677-71.238-278.542-123.636
		c-29.305-17.476-52.438-41.87-73.704-68.131c-7.543-9.315-14.251-19.25-20.636-29.416c-17.194-27.377-26.606-57.089-27.985-89.436
		c-0.607-14.251-2.559-28.434-1.817-43.228c-6.067-0.368-11.004,1.79-16.122,2.465c-36.121,4.768-65.956-6.022-86.999-36.455
		c-16.78-24.267-26.098-51.559-28.469-81.014c-1.081-13.426,0.974-26.625,5.821-39.201
		C86.647,1702.793,92.292,1693.84,102.433,1688.681z"/>
	<path fill="#DD723E" d="M227.818,1690.477c5.814-17.346,11.805-34.635,17.408-52.049c19.086-59.32,34.325-119.627,44.594-181.091
		c5.427-32.483,9.151-65.198,11.16-98.153c1.83-30.032,1.688-59.952-0.946-89.832c-2.724-30.898-8.329-61.32-18.825-90.655
		c-1.177-3.29-1.296-7.471-5.789-8.588c84.421-41.611,171.364-76.772,261.87-102.832c15.608-4.494,31.354-8.508,47.036-12.743
		c15.997-2.998,31.962-6.182,48.004-8.915c7.852-1.338,15.66-3.249,23.71-3.21c1.292,0.222,2.584,0.446,5.525,0.954
		c-12.421,3.867-23.388,7.33-34.386,10.695c-43.53,13.32-86.59,27.859-128.752,45.2c-28.675,11.794-56.688,24.873-83.893,39.544
		c-31.335,16.898-61.167,36.087-86.053,62.254c-7.674,8.069-9.203,16.359-7.568,26.357c1.601,9.794,2.475,19.681,3.656,29.522
		c2.11,17.582,0.13,35.351,2.37,52.693c1.531,11.85-1.266,23.042-0.786,34.594c0.466,11.206,0.153,22.452-1.24,33.788
		c-1.69,13.759-2.61,27.65-4.426,41.449c-2.508,19.05-6.08,37.877-10.007,56.672c-5.639,26.989-13.032,53.491-21.69,79.628
		c-8.672,26.181-18.939,51.739-30.22,76.944c-8.171,18.256-17.6,35.793-26.971,53.398
		C230.679,1687.828,230.031,1689.844,227.818,1690.477z"/>
	<path fill="#1A1A1A" d="M1030.34,2518.636c27.494-1.005,52.56-9.496,75.277-24.843c3.793-2.562,6.933-6.182,10.072-9.591
		c2.112-2.293,4.192-3.033,6.978-1.643c1.949,1.297,1.987,3.328,2.051,5.348c0.077,9.271-9.211,10.74-13.566,16.33
		c-15.897,12.147-33.221,21.565-52.433,27.404c-39.322,7.469-76.706,22.578-116.098,29.567
		c-48.174,8.547-96.898,6.368-145.492,6.229c-2.339-0.007-4.635-0.527-6.652-1.854c-2.87-3.476-3.119-9.384-10.513-8.135
		c-28.169,4.761-55.512-1.638-82.862-7.17c-5.208-1.054-10.371-2.367-15.526-3.723c-17.169-5.772-19.275-7.845-18.047-22.295
		c2.552-30.029,2.869-60.216,6.529-90.155c1.807-4.852,1.342-10.062,2.266-15.055c1.78-18.128,2.788-36.325,6.828-54.208
		c3.015-13.344,8.197-25.208,18.59-34.417c1.864-1.821,3.816-3.556,5.63-5.436c10.443-9.544,21.977-17.064,36.291-19.401
		c28.529-6.456,57.094,9.919,68.778,39.792c6.981,17.847,10.181,36.594,10.729,55.664c1.248,43.355-0.116,86.581-8.835,129.26
		c-1.466,7.177-0.373,10.95,8.148,11.948c59.196,6.93,117.589,2.692,175.308-11.711c8.715-2.175,17.153-5.353,25.246-9.391
		C1022.531,2519.408,1026.036,2517.031,1030.34,2518.636z"/>
	<path fill="#4D4D4D" d="M1458.71,2206.539c4.58,0.663,7.211-2.374,9.941-5.229c3.356-3.51,6.719-7.013,10.08-10.519
		c-1.63,9.418,0.986,18.591,1.961,27.801c4.77,45.035,10.069,90.014,15.066,135.026c4.336,39.056,8.463,78.135,12.786,117.193
		c4.323,39.056,8.82,78.093,13.153,117.148c3.636,32.768,7.112,65.554,10.721,98.324c4.338,39.39,8.771,78.77,13.11,118.16
		c3.501,31.778,6.927,63.564,10.378,95.347c0.108,0.993,0.219,1.999,0.172,2.992c-0.28,5.951-4.219,9.979-10.043,10.327
		c-5.644,0.337-8.73-2.431-9.485-9.112c-1.42-12.574-2.574-25.178-3.919-37.76c-5.24-49.008-10.532-98.009-15.765-147.018
		c-4.95-46.361-9.768-92.736-14.798-139.087c-4.957-45.687-10.169-91.347-15.153-137.031c-4.333-39.727-8.464-79.477-12.761-119.208
		c-2.579-23.839-5.307-47.661-7.967-71.491c1.379-6.292,8.695-9.509,7.905-17.353c-0.656-6.514-1.217-12.424-6.689-16.732
		C1464.963,2214.056,1458.293,2212.901,1458.71,2206.539z"/>
	<path fill="#D1D1D1" d="M1912.568,1748.92c-8.725,9.356-18.143,17.962-28.105,25.98c0.479-12.889,1.819-25.686,3.434-38.485
		c0.991-7.859,1.871-15.861,2.125-23.698c0.562-17.255,3.732-34.199,4.695-51.412c1.16-20.755,4.1-41.423,5.93-62.175
		c1.77-20.071,3.862-40.135,5.982-60.178c2.156-20.385,3.209-40.888,5.959-61.175c2.311-17.044,3.538-34.193,5.273-51.259
		c1.769-17.407,3.417-34.905,4.902-52.365c1.366-16.072,1.981-32.315,5.195-48.269c1.558-7.734,1.339-15.833,1.929-23.711
		c1.26-16.831,3.312-33.589,4.783-50.386c1.844-21.066,3.545-42.168,5.884-63.188c2.266-20.373,3.591-40.851,6.135-61.156
		c2.096-16.727,3.098-33.55,5.157-50.277c1.162-9.438,1.343-19.199,2.749-28.632c1.613-10.818,1.509-21.731,3.177-32.56
		c1.396-9.07,1.225-18.47,2.576-27.656c1.538-10.457,1.708-21.049,3.486-31.507c1.438-8.454-0.187-17.26,2.448-25.682
		c0.494-1.579,0.51-3.256,1.965-4.359c0.06,7.277,0.121,14.552,0.182,21.827c2.457,7.89-0.714,16.203,1.813,24.088
		c0.006,2.643,0.012,5.287,0.017,7.93c-1.328,1.185-1.997,2.726-1.842,4.441c1.143,12.682-1.077,25.22-2.327,37.705
		c-1.877,18.747-2.306,37.631-5.349,56.278c-1.384,8.481-1.287,17.205-1.817,25.738c-0.76,12.231-1.907,24.477-2.88,36.675
		c-0.943,11.83-1.333,23.739-3.155,35.559c-1.454,9.432-1.618,19.14-2.226,28.701c-0.757,11.898-1.84,23.847-2.897,35.662
		c-0.905,10.119-0.67,20.447-2.968,30.604c-1.948,8.613-1.322,17.813-1.882,26.699c-0.77,12.229-1.915,24.475-2.868,36.676
		c-0.925,11.831-0.669,23.838-3.323,35.536c-0.435,1.918-0.327,3.974-0.35,5.967c-0.257,22.556-3.542,44.906-4.426,67.451
		c-0.659,16.815-2.754,33.618-3.86,50.474c-1.236,18.826-2.744,37.639-4.03,56.47c-1.354,19.823-2.437,39.669-3.935,59.474
		c-1.625,21.483-2.846,42.967-4.094,64.467c-1.228,21.157-3.833,42.25-3.55,63.483
		C1912.527,1742.078,1908.834,1745.591,1912.568,1748.92z"/>
	<path fill="#D1D1D1" d="M1876.694,1822.804c10.087-9.995,20.107-20.063,31.33-28.824c0.088,10.602,1.618,21.266-1.443,31.733
		c-0.273,0.933-0.235,1.989-0.188,2.98c1.203,25.283-1.344,50.501-2.52,75.672c-1.663,35.587-0.038,71.181-1.88,106.671
		c-1.379,26.564,2.136,52.983,0.245,79.462c-0.001-0.002-0.923,0.034-0.923,0.034l-0.922-0.01c-1.71-1.69-4.377-0.14-6.096-1.801
		c-10.091-0.572-19.779-4.033-29.931-4.165c-2.371-2.048-5.697,0.128-8.089-1.827l-0.96,0.018l-0.961-0.003
		c-3.748-3.886-2.728-8.604-2.26-13.2c6.059-59.457,11.441-118.981,17.441-178.443
		C1871.836,1868.328,1873.12,1845.444,1876.694,1822.804z"/>
	<path fill="#CDCDCD" d="M2012.262,474.535c-1.931-1.359-2.339-3.492-1.615-5.34c2.143-5.469,0.527-11.417,1.957-16.689
		c2.737-10.092,0.726-20.478,3.261-30.592c1.743-6.955,1.53-14.491,1.992-21.679c0.638-9.918,1.635-19.913,2.996-29.616
		c1.427-10.175,0.329-20.508,3.037-30.593c1.78-6.63,1.291-13.823,1.864-20.7c0.796-9.549,1.893-19.134,2.901-28.638
		c1.148-10.824,0.819-21.801,3.3-32.53c1.484-6.415,1.228-13.198,1.695-19.728c1.299-18.157,4.726-36.121,4.796-54.382
		c0.019-4.844-0.838-8.997-3.761-13.014c-5.031-6.916-9.593-14.173-14.369-21.311c-3.108,1.848-1.086,5.62-3.837,6.983
		c-3.791-5.435-8.882-5.479-14.707-4.025c-3.76,0.938-7.696,1.295-11.537,2.014c-5.397-11.182-7.173-22.722-4.653-35.077
		c1.557-7.634,1.27-15.644,4.81-22.871c16.533-6.134,29.121,2.022,40.826,11.868c17.377,14.618,25.781,34.108,29.329,56.165
		c2.504,15.568,2.522,31.036,0.191,46.589c-0.49,3.268-0.232,6.646-0.35,9.973c-0.703,19.893-3.241,39.603-5.499,59.359
		c-2.259,19.763-5.336,39.378-8.439,59.01c-4.871,30.825-11.727,61.198-19.963,91.276
		C2022.451,445.731,2017.901,460.312,2012.262,474.535z"/>
	<path fill="#4D4D4D" d="M700.465,2330.96c-16.342,14.186-18.91,34.039-22.097,53.648c-1.594,9.808-2.59,19.646-2.064,29.601
		c0.089,1.692-0.425,3.265-1.557,4.585c-3.526,1.832-1.9,5.3-2.549,8.067c-18.677,66.303-40.097,131.759-59.595,197.793
		c-0.844,2.858-1.585,5.831-4.469,7.498c-4.377,9.01-5.957,18.934-9.218,28.313c-1.103,3.174-2.092,6.315-4.396,8.836
		c-3.235,3.539-7.293,4.667-11.798,3.317c-4.322-1.294-6.139-4.733-6.695-9.025c-0.752-5.806,0.933-11.209,2.605-16.618
		c24.249-78.437,48.505-156.871,72.758-235.306c16.986-54.933,33.971-109.867,50.957-164.799c6.982,1.581,14.316,1.858,20.703,5.626
		c1.904,3.224,0.826,6.427-0.101,9.614c-5.735,19.729-11.669,39.398-17.993,58.937
		C703.517,2324.368,701.253,2327.327,700.465,2330.96z"/>
	<path fill="#FEBF96" d="M1458.71,2206.539c3.271,3.265,6.542,6.53,9.813,9.795c2.976,9.627,0.47,16.177-8.675,22.769
		c-2.721,1.962-5.668,3.677-8.898,4.321c-10.594,2.113-17.731,7.698-21.443,18.197c-2.49,7.046-8.935,10.734-15.754,12.679
		c-7.839,2.237-11.815,6.491-13.829,14.729c-2.697,11.032-9.177,19.85-21.739,21.805c-8.039-5.088-14.502-11.959-21.173-18.608
		c-2.465-2.457-4.453-5.801-8.669-5.616c-4.196-3.997-6.709-9.104-8.755-14.339c-4.744-12.144-0.858-23.341,10.337-30.044
		c8.565-5.129,17.503-9.352,29.356-8.102c-5.132-10.101-3.952-18.179,3.949-25.036c5.083-4.411,10.251-7.411,17.131-4.736
		c4.351,1.692,6.502,0.625,5.355-4.327c-1.943-8.395-0.134-15.158,8.082-19.245c8.634-4.295,15.464-3.125,23.523,4.165
		c4.353,3.938,9.479,7.271,11.178,13.433C1451.904,2201.099,1455.307,2203.819,1458.71,2206.539z"/>
	<path fill="#E2E2E2" d="M1876.694,1822.804c3.319,5.603,1.868,11.716,1.202,17.456c-1.407,12.134-2.491,24.295-3.809,36.424
		c-1.067,9.823-1.159,19.751-3.142,29.522c-1.571,7.744-1.531,15.809-2.153,23.667c-0.807,10.199-2.007,20.441-2.919,30.608
		c-0.848,9.45-1.136,19.063-2.924,28.549c-1.512,8.02-2.038,16.433-2.367,24.631c-0.692,17.211-3.827,34.159-4.651,51.358
		c-0.279,5.826-1.599,11.751-1.574,17.725c-1.993,13.73-2.537,27.63-4.343,41.338c-1.25,9.484-0.833,19.115-3.111,28.53
		c-1.105,4.566-2.807,7.786-6.813,10.26c-4.774,2.948-9.184,6.484-13.751,9.765c-3.074-2.644-2.221-6.199-1.692-9.333
		c2.155-12.754,2.632-25.649,3.763-38.492c0.869-9.869,2.063-19.719,3.474-29.526c1.134-7.879,1.003-15.852,1.809-23.757
		c1.036-10.162,2.839-20.333,2.829-30.682c-0.008-8.899,0.642-17.981,2.527-26.65c1.992-9.16,2.304-18.539,2.796-27.597
		c0.935-17.234,3.649-34.245,4.867-51.427c1.471-20.759,3.99-41.473,5.954-62.218c0.623-6.578,1.77-13.111,1.686-19.765
		c-0.034-2.704,0-5.397-2.79-6.983C1859.4,1837.828,1867.816,1830.068,1876.694,1822.804z"/>
	<path fill="#E8A980" d="M696.743,2690.2c-0.199-2.611-0.397-5.223-0.644-8.463c-3.737-0.551-6.93,1.289-10.244,2.284
		c-8.914,2.677-17.837,5.285-27.304,4.787c-1.987-0.104-4.045,0.017-5.943-0.467c-4.304-1.1-8.384-3.024-9.814-7.571
		c-1.477-4.696,1.316-8.35,4.344-11.525c3.512-3.683,8.319-5.269,13.669-7.526c-7.752-3.276-15.555-3.188-22.918-4.929
		c-6.486-1.535-12.863-3.275-18.901-6.068c-5.106-2.363-8.88-5.868-8.73-12.108c0.982-14.903,13.79-27.919,29.276-28.526
		c10.333-0.405,20.49-2.606,30.84-2.362c8.117,0.191,11.35-4.046,11.111-11.817c-0.266-8.638,0.571-17.313-1.112-25.901
		c-0.709-3.621-1.02-7.28,0.945-10.701c8.416-2.708,15.756,0.576,23.037,4.157c2.709,3.002,2.508,6.768,2.493,10.402
		c-0.045,11.007-1.917,21.862-2.987,32.781c-0.806,8.231-5.931,13.84-12.438,18.46c-3.236,2.297-6.615,4.467-9.628,7.658
		c2.183,2.238,4.886,1.034,7.229,1.333c3.542,0.452,7.965-0.594,9.775,3.408c1.846,4.083-1.806,6.703-4.171,9.368
		c-3.919,4.417-8.626,8.279-10.084,15.113c4.977,1.772,8.626-0.933,12.336-2.566c11.301-4.977,21.78-11.529,32.659-17.318
		c2.549-1.356,5.485-3.925,8.187-1.459c2.72,2.482,0.333,5.619-0.777,8.258c-1.807,4.295-4.057,8.411-5.106,12.999
		c-0.447,1.955-1.033,4.148,0.52,5.713c2.041,2.057,4.358,0.73,6.446-0.26c3.354-1.591,6.159-3.969,8.733-6.596
		c6.992-7.134,14.485-13.782,20.785-21.591c2.06-2.554,4.031-5.483,8.072-4.876c3.707,5.431,0.843,10.549-1.842,14.73
		c-11.582,18.034-25.95,33.175-46.45,41.299c-2.444,0.64-4.91,0.786-7.393,0.267c-3.361-0.867-5.731-2.994-7.359-5.988
		c-1.35-2.481-1.852-5.915-5.994-5.083c-3.531,0.709-5.704,2.73-6.732,6.275C700.074,2687.708,700.263,2690.721,696.743,2690.2z"/>
	<path fill="#FFFFFF" d="M682.759,2558.531c0.075,12.882,2.172,25.661,1.671,38.592c-0.458,11.804-1.408,13.033-13.028,13.607
		c-10.562,0.521-21.146,0.859-31.669,1.839c-13.136,1.223-21.181,9.689-27.194,20.557c-0.953,1.722-1.528,3.654-2.279,5.488
		c-2.358-1.612-1.779-4.188-2.125-6.462c4.208-18.842,10.674-37.027,16.245-55.467c15.295-50.63,30.849-101.181,46.3-151.764
		c4.961,1.646,2.152,5.177,1.958,8.073c-1.756,27.556-3.51,55.112-5.271,82.668c-0.149,2.325-0.446,4.644-0.493,6.97
		c-0.1,4.975-1.58,10.637,0.295,14.744c2.031,4.448,8.81,3.551,13.228,5.7c0.591,0.288,1.117,0.709,1.673,1.069
		C685.814,2548.773,686.19,2553.561,682.759,2558.531z"/>
	<path fill="#292828" d="M1110.347,2502.646c1.489-3.179,4.27-4.897,7.117-6.704c3.099-1.966,5.668-4.606,7.255-8.035
		c3.687,9.552,3.408,19.461,2.799,29.44c-3.168,51.885-5.884,103.788-4.843,155.802c0.12,5.988,0.855,11.961,1.083,17.95
		c0.125,3.276,1.937,3.771,4.563,3.472c-3.588,3.314-8.669,2.464-12.704,4.564c-4.386,2.282-9.2,3.951-13.14,6.828
		c-5.525,4.035-10.661,4.674-17.428,3.005c-15.263-3.765-30.872-5.984-46.665-6.352c-2.514-2.74-4.949-5.493-1.438-9.182
		c12.095-5.073,24.764-7.378,37.828-7.783c12.376-0.384,14.74-2.166,18.171-14.109c6.657-23.175,8.387-47.119,10.202-70.955
		c2.218-29.131,4.026-58.314,4.256-87.555C1107.432,2509.28,1108.213,2505.782,1110.347,2502.646z"/>
	<path fill="#1A1A1A" d="M696.743,2690.2c0.867-9.312,5.93-14.267,16.25-14.479c1.945,4.069,1.208,10.678,7.364,12.958
		c6.832,1.694,6.837,7.211,6.973,12.582c0.446,17.591,2.205,35.078,4.255,52.534c1.214,10.344,2.707,11.543,13.294,11.782
		c30.937,0.7,61.625-2.144,92.21-6.495c4.502-0.64,9.22-2.206,13.254,1.554c-20.197,15.311-43.043,21.982-68.298,22.146
		c-19.847,0.129-39.498-3.112-59.389-2.363c-8.271,0.312-16.225,3.43-24.566,2.131c2.961-2.601,7.149-0.699,10.892-3.099
		C698.35,2750.698,694.839,2720.8,696.743,2690.2z"/>
	<path fill="#E8985B" d="M1448.501,2198.379c-5.375-4.874-10.677-9.833-16.148-14.597c-4.669-4.066-13.437-4.221-19.529-0.138
		c-4.86,3.257-6.801,7.703-4.812,13.761c1.203,3.665,1.344,7.678,2.056,12.116c-3.947,1.094-6.6-1.408-9.345-2.667
		c-8.744-4.009-13.688,1.576-18.667,7.058c-4.63,5.098-5.082,9.789-1.808,16.453c0.582,1.184,1.36,2.283,2.135,3.357
		c0.794,1.1,1.437,2.187,0.606,4.28c-10.704-3.509-20.2,0.176-29.976,5.001c-14.433,7.125-15.323,21.989-9.596,32.014
		c2.061,3.609,5.917,6.629,4.926,11.592c-3.881,2.27-7.326,5.33-11.802,6.53c-8.162-15.076-14.658-30.935-21.714-46.532
		c15.777-13.771,33.385-25.202,49.329-38.785c11.91-10.148,24.729-19.172,38.094-27.333c10.386-6.342,21.281-11.161,33.986-8.209
		c5.175,1.084,9.101,3.793,11.294,8.735C1448.815,2186.75,1448.708,2192.562,1448.501,2198.379z"/>
	<path fill="#3B3B3B" d="M1312.346,2318.577c6.492-3.273,14.092-2.523,20.617-5.677c-1.2,4.953-0.5,9.964-0.281,14.927
		c2.507,56.887,5.1,113.77,7.667,170.655c0.105,2.328,0.204,4.657,0.252,6.988c0.07,3.398-1.401,5.99-4.777,6.647
		c-3.914,0.763-6.461-1.6-7.437-5.088c-0.887-3.172-1.222-6.552-1.397-9.861c-0.83-15.629-1.593-31.262-2.248-46.899
		c-1.632-38.927-3.188-77.858-4.791-116.787c-0.137-3.327-0.745-6.675-0.507-9.968
		C1319.877,2317.51,1316.095,2318.214,1312.346,2318.577z"/>
	<path fill="#E8A980" d="M1378.184,2310.834c1.257-2.173,3.644-2.749,5.591-3.942c8.045-4.929,13.367-11.842,14.509-21.322
		c0.781-6.484,2.757-10.855,10.176-12.148c11.302-1.97,19.027-8.907,22.37-20.006c1.694-5.623,4.444-9.097,10.737-9.621
		c3.195-0.266,6.28-1.952,9.396-3.05c12.324-4.338,17.007-10.863,17.559-24.411c12.646,10.17,11.604,26.274-2.333,36.071
		c-5.944-0.003-11.887-0.003-17.621-0.003c-0.317,1.47-0.752,2.231-0.534,2.661c3.119,6.144,3.317,11.875-1.176,17.673
		c-5.673,7.322-12.854,11.488-22.094,11.685c-3.885,0.083-7.786-0.56-11.809-0.882c0.039,4.714,3.42,7.403,5.217,10.854
		c2.882,5.536,2.703,7.691-2.162,10.951c-8.418,5.641-18.213,8.085-27.797,10.712
		C1384.099,2317.183,1380.788,2314.04,1378.184,2310.834z"/>
	<path fill="#E5E5E5" d="M1970.241,972.683c-3.84-7.786-1.095-16.067-1.813-24.088C1972.29,956.38,1969.556,964.66,1970.241,972.683
		z"/>
	<path fill="#F7DDCA" d="M192.499,1690.496c2.563,1.418,4.218,3.579,6.136,7.409c-4.228-0.955-6.714-2.333-8.575-4.944
		C190.873,1692.14,191.686,1691.318,192.499,1690.496z"/>
	<path fill="#E2E2E2" d="M1856.278,2082.729c2.81,0.108,5.879-0.931,8.089,1.828
		C1861.553,2084.467,1858.501,2085.434,1856.278,2082.729z"/>
	<path fill="#E5E5E5" d="M1894.298,2088.72c2.232-0.074,4.531-0.377,6.096,1.802
		C1898.149,2090.64,1895.856,2090.923,1894.298,2088.72z"/>
	<path fill="#ECECEC" d="M650.295,330.695c0.689,0.64,1.378,1.279,2.068,1.919C651.674,331.974,650.985,331.334,650.295,330.695z"/>
	<path fill="#381C0E" d="M1412.896,1482.875c-0.629,4.105-1.314,6.886-6.67,3.669c-25.147-15.101-49.234-31.696-72.157-49.985
		c-55.059-43.928-102.703-94.635-140.698-154.136c-37.375-58.53-61.991-121.953-72.458-190.677
		c-2.15-14.113-3.046-28.421-4.382-42.652c-0.264-2.813-1.085-6.25,3.288-7.059c43.359,9.865,76.822,35.275,106.025,67.436
		c29.23,32.191,53.446,67.956,75.019,105.557c47.192,82.255,84.099,168.896,110.209,260.096
		C1411.802,1477.672,1412.293,1480.289,1412.896,1482.875z"/>
	<path fill="#DD723E" d="M1059.956,2238.557c-5.875,2.538-11.577,5.358-16.214,9.919c-3.284,4.837-9.532,6.032-13.026,10.619
		c-4.39,0.948-8.314,3.132-12.466,4.727c-1.44,0.237-2.755,0.016-3.832-1.056c1.64-4.302,6.101-4.837,9.361-6.944
		c38.194-24.69,75.249-51.032,111.008-79.082c22.407-17.576,44.316-35.819,65.695-54.735c26.922-23.822,52.996-48.477,77.668-74.529
		c20.958-22.13,40.975-45.196,59.434-69.525c13.231-17.438,26.208-35.067,38.062-53.479c29.631-46.025,54.042-94.563,69.349-147.296
		c6.087-20.971,10.871-42.255,13.605-64.036c2.526-20.121,4.141-40.21,3.77-60.473c-0.053-2.922-0.656-6.089,2.178-8.299
		c0-0.001-0.016,0.106-0.016,0.106c1.397,1.822,0.07,4.376,1.652,6.149c4.809,21.099,7.534,42.534,9.849,64.004
		c2.427,22.52,3.089,45.162,2.027,67.783c-1.789,38.108-8.193,75.299-23.503,110.569c-10.442,24.057-24.577,45.598-43.067,64.287
		c-38.426,38.842-79.469,74.775-121.435,109.693c-3.564,2.965-7.456,5.589-10.271,9.381c-4.077,7.638-11.492,11.834-17.892,16.972
		c-58.837,47.228-118.901,92.804-181.844,134.49C1073.661,2232.031,1067.291,2236.159,1059.956,2238.557z"/>
	<path fill="#FFFFFF" d="M1059.956,2238.557c1.506-1.269,2.893-2.724,4.536-3.779c72.907-46.819,141.655-99.277,208.812-153.896
		c2.045-1.664,3.808-3.762,6.48-4.542c7.471,2.321,15.247,3.047,22.924,4.254c2.307,0.363,4.561,0.384,5.956,2.619
		c4.491,4.81,4.601,10.927,4.698,16.883c0.489,29.922,1.747,59.808,3.781,89.664c0.25,3.675,0.194,7.337-1.762,10.672
		c-6.529,5.534-13.578,6.691-21.251,2.485c-4.533-6.654-4.508-6.597-11.988-3.205c-26.146,11.859-53.797,18.804-81.818,24.184
		c-44.056,8.458-88.609,12.847-133.41,14.795C1064.602,2238.792,1062.276,2238.608,1059.956,2238.557z"/>
	<path fill="#FFFFFF" d="M1324.01,2103.226c0.149-4.32,0.4-8.64,0.419-12.961c0.02-4.415,1.53-5.576,6.176-4.651
		c16.87,3.358,33.852,6.153,50.781,9.213c17.9,3.236,35.787,6.545,53.685,9.795c5.218,0.947,10.437,1.861,15.327,4.038
		c3.955,5.123,4.945,10.919,3.923,17.176c-1.554,4.907-6.005,6.054-10.09,7.168c-15.026,4.099-28.053,11.896-40.802,20.575
		c-19.262,13.114-38.456,26.355-58.415,38.419c-2.279,1.377-4.451,2.945-6.901,4.014c-7.966,3.476-10.614,2.162-12.397-6.368
		c-0.545-2.608-1.403-5.139-1.819-7.793c-0.465-21.813-3.566-43.506-2.646-65.357
		C1321.444,2111.932,1320.656,2107.14,1324.01,2103.226z"/>
	<path fill="#3B3B3B" d="M1324.01,2103.226c-0.232,27.381,2.062,54.674,2.867,82.018c2.112,16.271-1.647,16.181-9.151,16.925
		c-1.316,0.131-2.476-0.697-3.425-1.654c-1.463-33.811-2.901-67.623-4.414-101.431c-0.237-5.298-0.807-10.581-1.224-15.87
		c1.917-0.125,3.869-0.55,5.743-0.322c7.542,0.921,7.756,1.308,8.266,8.86C1322.933,2095.592,1322.328,2099.547,1324.01,2103.226z"
		/>
	<path fill="#FEFEFD" d="M1512.244,2120.399c-10.349,10.645-21.349,20.592-32.512,30.366c-0.75-0.108-1.599-0.584-1.44-1.05
		c3.628-10.663-2.567-17.404-9.456-23.895c-0.884-3.049-1.116-6.007,1.184-8.61c0.939-2.081-0.557-6.268,3.623-5.624
		c11.567,1.784,23.076,3.965,34.571,6.184C1509.672,2118.051,1510.906,2119.494,1512.244,2120.399z"/>
	<path fill="#9C9C9C" d="M1990.236,154.695c0.302-2.685,1.827-4.271,4.501-3.955c6.786,0.8,13.307-4.097,19.999-1.176
		c2.754,1.202,1.182,4.717,1.743,7.142c-0.017,1.318-0.034,2.637-0.052,3.955c-0.169,0.604-0.221,1.218-0.157,1.841
		C2005.281,167.044,1999.102,165.192,1990.236,154.695z"/>
	<path fill="#515151" d="M1470.02,2117.21c0.095,3.15,0.19,6.301,0.286,9.451c-5.904,3.126-11.824,5.226-17.857,0.286
		c-0.683-6.096-1.367-12.192-2.05-18.288c3.588-1.006,7.072,0.254,10.607,0.437
		C1466.313,2109.371,1469.034,2112.263,1470.02,2117.21z"/>
	<path fill="#E8985B" d="M1466.184,1650.622c-2.156-1.617-1.919-3.879-1.653-6.148
		C1466.678,1646.094,1466.459,1648.351,1466.184,1650.622z"/>
	<path fill="#FEBF96" d="M304.26,1809.304c0-7.333,0.237-14.675-0.042-21.997c-1.046-27.445,3.501-54.227,9.171-80.904
		c8.087-38.05,19.332-75.219,30.729-112.371c7.985-26.03,16.707-51.861,22.852-78.433c2.767-11.967,4.222-24.101,5.538-36.315
		c5.399-50.108,4.464-100.391,3.338-150.578c-0.582-25.926-1.068-51.87-1.721-77.803c-0.194-7.694,1.41-14.296,6.237-20.385
		c11.813-14.9,24.807-28.541,39.321-40.909c14.475-12.335,29.717-23.506,45.8-33.542c24.588-15.342,50.31-28.482,77.006-39.839
		c25.437-10.821,51.383-20.161,77.709-28.472c29.137-9.199,58.611-17.304,88.715-22.547c9.36-1.63,19.092-2.136,28.703-2.823
		c53.915-3.854,107.873-1.561,161.792-1.299c18.544,0.09,37.24,0.585,55.782,1.894c21.191,1.496,42.423,2.317,63.582,3.954
		c19.768,1.529,39.73,2.237,59.093,7.538c5.573,1.526,10.652,3.923,15.444,6.839c7.286,4.433,10.836,12.848,8.077,20.718
		c-5.323,15.186-3.326,30.109,0.163,45.137c5.809,25.018,14.995,48.891,24.386,72.719c13.361,33.901,31.037,65.422,50.872,95.918
		c14.508,22.305,29.358,44.342,45.425,65.533c22.319,29.437,48.3,54.985,81.142,72.594c17.529,9.398,29.304,23.824,37.998,40.994
		c21.577,42.617,37.64,87.229,46.653,134.221c7.249,37.793,7.962,76.094,5.883,114.27c-1.529,28.077-5.763,56.079-13.992,83.171
		c-3.475,11.442-8.204,22.482-13.256,33.346c-22.141,47.613-51.133,90.94-83.084,132.384
		c-16.632,21.574-34.148,42.407-52.309,62.739c-17.071,19.112-34.096,38.249-52.533,56.047
		c-40.755,39.34-83.843,75.784-132.904,104.551c-17.513,10.268-36.088,18.322-54.895,26.053
		c-18.504,7.607-37.099,5.867-55.693,3.389c-44.79-5.968-88.503-17.291-132.197-28.466c-36.026-9.214-71.677-19.845-107.536-29.669
		c-46.03-12.611-88.22-33.775-129.901-56.005c-44.887-23.939-88.764-49.714-131.621-77.197
		c-28.871-18.514-57.066-38.054-81.352-62.275c-25.71-25.642-40.161-57.227-44.499-93.592
		C304.621,1868.413,304.206,1838.892,304.26,1809.304z"/>
	<path fill="#B92929" d="M1014.419,2262.766c1.276-0.096,2.552-0.191,3.828-0.287c2.8,22.055-0.216,43.705-4.608,65.25
		c-0.331,1.623-1.163,3.125-2.192,4.456c-7.675,9.925-37.626,12.336-46.683,3.607c-10.349-9.975-16.17-22.802-21.014-35.93
		c-3.07-8.318-5.725-15.76-16.668-15.013c-2.135,0.146-4.719-0.808-4.728-3.988c4.706-0.146,9.411-0.291,14.118-0.438
		C964.495,2283.547,990.796,2279.072,1014.419,2262.766z"/>
	<path fill="#C34C2A" d="M150.425,1807.592c1.98-14.625,5.627-26.265,14.012-36.108c1.503-1.764,3.345-3.235,4.909-4.952
		c3.486-3.825,3.332-5.127-1.463-7.004c-9.356-3.663-19.062-5.604-29.185-4.991c-1.973,0.119-3.96,0.017-7.008,0.017
		c3.341-4.448,7.855-4.948,11.547-5.474c19.283-2.743,37.063,1.371,52.231,13.952c13.166,10.921,23.351,24.412,31.696,39.304
		c0.484,0.864,0.961,1.742-0.214,3.028c-11.032-8.564-23.002-14.754-37.636-14.935
		C174.429,1790.245,163.12,1797.925,150.425,1807.592z"/>
	<path fill="#D06F3C" d="M1441.585,1594.014c-4.76-12.771-5.142-25.126-6.884-37.18c-1.38-9.552,0.917-19.074,4.605-28.078
		c1.012-2.472,2.54-4.63,4.465-6.545c3.486-3.467,8.307-6.315,12.343-4.523c4.522,2.008,2.192,7.649,1.586,11.704
		c-1.561,10.443-3.472,20.833-5.147,31.259c-0.141,0.879,0.439,1.874,0.802,3.268c7.313-1.589,12.627-9.254,22.776-6.348
		c-7.337,5.26-12.483,11.405-18.484,16.606C1451.324,1579.659,1448.294,1587.716,1441.585,1594.014z"/>
	<path fill="#FBBF97" d="M107.145,1719.234c8.477-24.26,30.291-31.279,47.565-24.141c8.525,3.522,17.15,7.159,24.978,15.599
		C154.89,1710.715,131.016,1708.566,107.145,1719.234z"/>
	<path fill="#28272C" d="M1030.34,2518.636c-22.076,12.219-45.914,18.594-70.748,22.276c-18.997,2.817-37.969,4.941-57.161,6.145
		c-11.914,0.748-23.803,1.607-35.732,1.539c-18.888-0.107-37.608-2.808-56.426-4.024c-3.743-0.242-5.059-1.863-4.305-5.908
		c1.816-9.742,2.957-19.609,4.663-29.374c1.88-10.759,2.57-21.654,3.976-32.437c3.333-25.561,1.501-51.141,1.521-76.687
		c0.015-18.938-3.646-37.665-10.886-55.246c-6.712-16.299-18.886-27.967-34.999-35.211c-10.479-4.711-21.334-3.747-32.168-1.19
		c-1.109-5.551,2.234-9.118,6.311-11.282c23.235-12.331,47.947-20.561,73.767-25.48c1.607-0.306,3.302-0.017,4.904,0.486
		c2.301,0.174,4.318-1.177,6.769-0.823c22.468,3.24,44.954,6.359,67.639,7.735c1.595,0.096,3.146,0.9,4.718,1.375
		c5.057,7.377,3.176,16.129,4.278,24.16c6.513,47.444,26.814,88.181,58.271,123.757c8.922,14.068,22.947,23.027,34.609,34.351
		c2.383,2.314,5.128,4.228,6.751,7.233c3.885,6.649,11.493,8.717,16.922,13.547c3.439,3.059,7.178,5.881,10.424,9.198
		c6.059,6.19,6.637,12.614,1.822,19.615C1033.76,2514.567,1031.987,2516.559,1030.34,2518.636z"/>
	<path fill="#FEBF96" d="M1452.449,2126.947c5.952-0.095,11.905-0.191,17.857-0.286c2.232,1.306,4.791,2.263,6.632,3.986
		c4.266,3.991,6.799,8.655,3.929,14.744c-0.765,1.625-2.405,3.242-1.131,5.369c-1.408,3.28-4.397,4.515-7.394,5.738
		c-1.865,1.626-4.045,2.761-6.187,3.954l0.05-0.036c-2.88,2.377-5.819,4.667-9.261,6.209c-6.782,2.742-14.275,3.631-20.486,7.871
		c-12.102-2.352-22.674,1.674-32.714,7.872c-19.74,12.188-37.549,26.963-55.614,41.408c-8.251,6.597-16.821,12.795-25.268,19.147
		c-2.4,1.805-4.988,3.263-8.036,3.684c-7.326-14.361-14.63-28.733-20.696-43.691c6.819-0.01,13.527-0.944,20.172-2.4
		c1.618-0.213,3.275-0.273,4.85-0.664c7.352-1.823,7.325-1.856,7.382-9.76c0.012-1.623,0.223-3.244,0.343-4.857
		c1.617,1.606,1.162,3.699,1.342,5.638c0.151,1.63-0.071,3.346,1.312,4.989c5.156,0.33,9.131-2.788,13.191-5.442
		c21.393-13.983,42.924-27.766,64.004-42.208c11.379-7.796,23.392-13.779,36.566-17.656
		C1446.425,2129.634,1449.815,2129.2,1452.449,2126.947z"/>
	<path fill="#A42020" d="M1006.091,2470.028c-15.7-11.106-30.475-23.206-41.879-38.932c-1.766-5.307,1.501-9.703,2.736-14.427
		c2.621-10.025,4.307-20.195,5.481-30.473c2.641-6.917-0.644-14.665,2.979-21.439c8.607-5.43,18.137-2.418,27.247-2.662
		c5.176-0.139,9.874-0.604,14.054-3.775c7.073,5.91,8.479,15.529,14.551,22.188c3.238,3.551,6.627,7.334,7.161,12.57
		c-2.371,16.16-8.88,30.952-15.212,45.792C1018.539,2449.816,1011.939,2459.719,1006.091,2470.028z"/>
	<path fill="#FEFEFE" d="M1038.422,2393.077c-7.583-7.595-13.087-16.664-18.498-25.824c-1.626-2.752-2.13-5.508-1.663-8.56
		c-1.315-2.471-0.035-4.691,0.643-6.977c2.807-6.671,4.047-13.955,7.834-20.253c6.053-9.881,10.005-20.708,14.288-31.393
		c0.902-2.25,1.398-5.806,4.744-5.248c2.852,0.475,0.658,4.218,2.355,5.876c1.268,29.965-1.732,59.543-8.123,88.805
		C1039.729,2390.749,1038.96,2391.888,1038.422,2393.077z"/>
	<path fill="#C5C3C3" d="M1048.124,2300.697c-0.832-1.365-1.665-2.73-2.832-4.643c-5.38,12.598-8.829,25.728-16.839,36.69
		c-2.825-2.68-2.447-6.076-1.784-9.331c3.944-19.376,4.931-38.824,1.887-58.423c-0.359-2.311-0.295-4.666,1.356-6.628
		c2.189-6.684,8.642-7.397,13.831-9.883C1045.924,2265.822,1048.761,2283.114,1048.124,2300.697z"/>
	<path fill="#28272C" d="M1127.681,2721.362c20.098-11.272,39.3-18.313,59.48-22.825c15.313-3.424,30.581-3.525,46.107-0.781
		c8.089,1.43,16.334,2.443,24.627,3.068c29.128,2.198,58.316,4.535,84.461,19.781c11.805,6.884,23.195,14.286,32.924,23.983
		c9.894,9.861,21.036,18.349,30.718,28.484c5.309,5.558,9.493,11.982,14.871,17.44c1.337,1.357,2.12,3.39,2.788,5.245
		c1.022,2.841-0.262,4.547-3.217,4.737c-2.32,0.149-4.854,0.573-6.956-0.131c-7.173-2.402-14.51-1.654-21.795-1.666
		c-46.333-0.074-92.667-0.158-138.999,0.027c-7.148,0.029-12.188-1.831-17.21-7.533c-19.313-21.933-42.421-39.192-68.576-52.302
		C1154.727,2732.785,1142.637,2726.486,1127.681,2721.362z"/>
	<path fill="#292828" d="M850.342,2760.636c-6.73-0.947-13.105,1.584-19.64,2.34c-13.776,1.594-27.617,2.551-41.337,4.139
		c-16.948,1.961-33.787,0.616-50.63,1.619c-5.818,0.346-8.542-1.698-9.183-7.423c-0.88-7.853-2.964-15.663-3.005-23.499
		c-0.072-13.599-3.623-26.986-2.147-40.613c0.416-3.837-1.663-6.174-4.043-8.521c2.604-0.06,5.207-0.119,7.811-0.178
		c5.549,0.016,4.642,4.857,5.313,7.857c3.816,17.049,13.358,30.461,26.722,40.981c17.647,13.891,37.358,16.301,58.265,7.969
		c7.747-3.087,15.129-6.943,21.891-11.826c50.183-36.244,107.491-56.157,166.284-72.681c2.544-0.715,5.115-1.591,7.8-0.537
		c2.363,3.19,0.969,6.453-0.166,9.471c-4.774,12.685-9.287,25.559-19.967,34.877c-33.342,5.306-65.238,15.113-95.275,30.673
		C882.787,2743.702,866.572,2752.184,850.342,2760.636z"/>
	<path fill="#1A1A1A" d="M994.31,2704.611c7.659-14.207,16.714-27.776,20.047-43.955c-1.882-3.596-0.636-7.178,0.155-10.712
		c4.008-17.907,7.099-35.91,6.995-54.361c-0.038-6.703,0.95-13.356,4.911-19.06c1.928-2.776,4.564-5.518,8.228-4.439
		c4.357,1.282,3.348,5.417,2.734,8.484c-3.744,18.696-4.488,37.716-5.033,56.618c-0.428,14.869,0.464,29.917,3.199,44.705
		c0.78,4.219,2.137,8.453,0.753,12.82c0.695,2.636,1.39,5.271,2.085,7.907C1023.673,2702.84,1008.904,2701.796,994.31,2704.611z"/>
	<path fill="#6E3017" d="M259.567,1287.184c3.958,4.416,3.197,8.794,2.504,12.371c-2.948,15.214-0.954,30.539-1.764,45.78
		c-0.896,16.864-2.22,33.702-3.466,50.542c-1.15,15.544-3.005,30.989-4.643,46.457c-1.602,15.122-4.055,30.166-6.507,45.183
		c-4.168,25.531-10.367,50.617-17.091,75.581c-5.8,21.532-13.528,42.382-22.039,62.959c-0.482,1.166-1.37,2.164-2.498,3.902
		c-5.908-6.085-9.892-12.924-13.702-19.66c-15.605-27.586-28.087-56.519-34.891-87.597c-3.751-17.131-7.759-34.313-7.122-52.053
		c0.206-5.735-2.263-11.001-2.005-16.773c1.698-38.004,8.053-74.975,21.622-110.744c14.193-37.416,35.645-70.423,59.48-102.106
		c4.086-5.432,8.984-10.254,14.826-14.661c-1.608,6.666-3.054,13.375-4.853,19.989c-7.048,25.913-14.352,51.755-19.985,78.035
		c-5.165,24.097-8.473,48.344-7.034,73.06c0.073,1.259,0.442,2.501,0.809,4.487c4.489-1.478,5.236-5.306,6.435-8.319
		c7.73-19.438,15.291-38.943,22.814-58.463c5.613-14.563,11.071-29.185,16.647-43.761
		C257.558,1290.207,258.392,1289.166,259.567,1287.184z"/>
	<path fill="#5B5B67" d="M942.192,2760.002c7.902-5.293,17.007-6.96,25.757-9.146c25.237-6.305,50.924-9.624,76.964-8.045
		c36.01,2.184,69.021,13.115,97.718,35.549c3.296,2.576,6.721,5.279,9.511,10.828
		C1083.211,2765.278,1013.242,2759.337,942.192,2760.002z"/>
	<path fill="#D1D1D1" d="M1914.856,1746.874c-0.343,1.184-1.097,1.902-2.34,2.067
		C1912.833,1747.729,1913.611,1747.038,1914.856,1746.874z"/>
	<path fill="#FCF8F5" d="M1436.458,2174.496c-1.067-1.961-1.359-3.355,1.533-4.143c6.197-1.688,12.299-3.724,18.44-5.618
		c2.149,2.562,0.887,5.267,0.332,7.942c-3.074,2.777-6.148,5.553-9.228,8.334C1443.306,2179.747,1441.172,2174.93,1436.458,2174.496
		z"/>
	<path fill="#605D5B" d="M1456.762,2172.677c-0.11-2.648-0.221-5.296-0.332-7.943c3.174-1.629,6.057-3.917,9.774-4.317
		C1463.057,2164.504,1459.91,2168.591,1456.762,2172.677z"/>
	<path fill="#605D5B" d="M1466.155,2160.453c1.412-2.335,3.363-3.826,6.187-3.954
		C1471.175,2159.217,1469.306,2160.839,1466.155,2160.453z"/>
	<path fill="#FFFFFF" d="M974.728,2386.91c-0.769,15.379-3.682,30.248-10.514,44.186c-12.346-11.437-21.434-25.389-29.932-39.677
		c-20.306-34.136-31.811-70.913-32.099-110.89c2.004-0.508,3.962-0.233,5.901,0.351c8.176,12.126,13.969,25.633,21.929,37.883
		c11.42,17.573,22.107,35.828,41.95,45.655c2.816,1.394,3.542,3.714,3.36,6.6C974.991,2376.31,975.982,2381.651,974.728,2386.91z"/>
	<path fill="#FFFFFF" d="M823.057,2272.242c-23.119,6.043-46.102,12.465-68.047,22.16c-7.093,3.133-13.646,6.577-16.934,14.117
		c-13.402,2.026-23.53,10.122-33.685,18.167c-3.795,0.234-3.058-1.999-2.307-4.239c6.987-23.314,13.974-46.627,20.964-69.946
		c12.681,0.458,24.647,4.795,37.046,6.828c17.968,2.946,35.855,6.381,53.775,9.622
		C817.108,2269.537,820.48,2269.791,823.057,2272.242z"/>
	<path fill="#9B1111" d="M1029.912,2258.362c5.292,22.244,4.115,44.449-0.461,66.619c-0.532,2.575-1.473,5.069-0.997,7.763
		c-3.314,6.49-3.819,14.076-7.908,20.263c-14.004-6.792-27.229-1.651-40.442,2.771c-3.751,1.255-7.024,3.792-11.035,4.497
		c-3.722,0.43-6.302-1.469-8.599-4.106c-18.14-20.819-30.876-44.948-42.658-69.655c-0.87-1.825-1.105-3.854,0.198-5.714
		c1.447,0.019,2.894,0.039,4.342,0.059c2.766,2.73,6.275,1.623,9.496,1.742c8.832,0.326,9.037,0.196,11.76,8.841
		c3.821,12.132,9.237,23.437,16.062,34.156c2.19,3.439,4.955,6.222,7.724,9.078c4.756,4.906,9.897,7.196,16.989,4.432
		c5.507-2.146,11.461-3.536,17.338-4.241c7.112-0.854,9.623-5.362,10.379-11.298c2.09-16.407,5.27-32.732,4.296-49.413
		c-0.234-4.01-0.076-7.991,1.851-11.676C1021.803,2260.166,1024.856,2256.426,1029.912,2258.362z"/>
	<path fill="#C7C5C5" d="M918.01,2280.8c10.716,23.912,23.352,46.73,39.184,67.662c2.94,3.887,5.642,8.226,10.31,10.515
		c3.661,0.749,7.4,1.381,8.684,5.732c-0.116,7.426,1.303,14.953-1.461,22.203c-0.233-5.96,1.17-12.683-1.159-17.661
		c-2.329-4.979-9.634-6.22-14.418-9.819c-10.376-7.806-17.316-18.367-24.497-28.645c-9.326-13.347-17.043-27.733-24.292-42.335
		c-1.196-2.408-2.235-4.831-2.276-7.571C911.393,2280.854,914.701,2280.827,918.01,2280.8z"/>
	<path fill="#3A3A3A" d="M1036.298,2694.71c-4.671-6.579-4.852-14.742-5.106-21.898c-0.49-13.794-4.294-27.59-1.073-41.478
		c0.222-0.956,0.185-1.992,0.146-2.986c-0.709-18.275,1.976-36.238,5.48-55.035c-5.672,1.25-8.09,4.39-9.518,9.061
		c-2.188,7.159-1.516,14.476-1.928,21.754c-1.09,19.219-3.891,38.168-9.943,56.529c-21.167,6.705-42.477,12.993-63.467,20.213
		c-32.068,11.031-62.913,24.957-91.832,42.721c-12.119,7.444-22.982,16.87-36.104,22.824c-21.388,9.702-42.436,8.928-61.447-4.6
		c-16.315-11.61-27.962-27.384-31.106-48.056c-0.305-2.008-0.336-3.988-2.233-5.257c14.441-6.999,26.374-17.155,36.744-29.257
		c6.102-7.121,10.435-15.1,11.541-24.58c-0.884-2.605-0.713-5.244-0.009-7.819c5.334-19.483,6.582-39.7,10.694-59.395
		c0.602-0.984,1.493-1.473,2.646-1.469c3.521,6.583,9.049,7.898,16.334,8.297c19.915,1.091,39.924,0.959,59.742,3.698
		c10.15,1.403,11.346,3.504,4.869,11.618c-12.598,15.781-28.981,27.383-45.07,39.246c-2.145,1.582-4.431,2.967-6.548,4.593
		c-2.637,2.025-4.244,4.432-2.151,7.673c2.042,3.163,4.99,4.414,8.622,2.928c4.043-1.653,7.525-4.28,10.973-6.899
		c15.659-11.898,30.628-24.642,45.62-37.356c4.154-3.523,7.974-6.977,5.688-13.522c-2.108-6.036,2.16-7.606,6.975-8.017
		c8.291-0.709,16.714,0.642,24.921-1.238c32.136-7.364,64.426-14.064,95.818-24.442c16.397-5.421,29.951-15.772,44.79-23.893
		c18.173-5.769,34.104-15.844,49.98-26.023c-0.005,9.995,1.302,20.204-0.296,29.937c-3.031,18.465-0.271,37.106-3.268,55.577
		c-1.573,9.695-1.392,19.783-2.229,29.699c-1.592,18.853-4.008,37.502-8.893,55.786c-0.852,3.19-2.111,6.321-3.578,9.284
		c-1.71,3.455-4.431,5.997-8.631,5.677c-14.83-1.128-28.996,2.358-43.167,5.942
		C1039.023,2694.868,1037.63,2694.669,1036.298,2694.71z"/>
	<path fill="#353535" d="M792.32,2406.395c-1.061,18.152-1.917,36.324-3.659,54.479c-1.995,20.776-5.195,41.333-8.314,61.931
		c-1.248,8.241-5.18,12.459-13.708,14.44c-9.182,2.134-17.751,0.754-26.565-0.599c-10.847-1.665-21.463-4.083-31.499-8.778
		c-4.683-2.19-7.5-5.585-8.053-10.552c-1.903-17.086-5.546-33.895-6.632-51.168c-0.707-11.255-2.063-22.536-1.369-33.754
		c1.604-25.914,5.133-51.466,19.092-74.292c10.032-16.404,24.232-27.025,43.052-31.123c10.479-2.282,20.454,2.64,25.98,12.402
		c5.494,9.704,8.428,20.461,9.317,31.281C790.936,2382.524,794.11,2394.315,792.32,2406.395z"/>
	<path fill="#292828" d="M1060.366,2528.669c-8.06,9.117-18.398,15.328-29.138,20.231c-20.55,9.381-42.3,15.38-64.465,19.827
		c-6.807,1.365-13.649,2.814-20.24,4.951c-15.609,5.059-31.503,7.647-47.912,6.979c-1.661-0.068-3.327,0.037-4.99,0.001
		c-4.185-0.089-6.193,2.157-3.347,5.342c5.067,5.674,1.361,8.828-2.467,12.142c-13.512,11.699-26.799,23.674-41.165,34.349
		c-6.642,4.936-13.323,9.82-20.031,14.668c-2.706,1.955-5.643,2.1-8.325,0.061c-3.509-2.669-5.804-6.436-6.995-10.517
		c-0.588-2.013,2.467-2.804,3.981-3.924c8.255-6.104,17.043-11.561,24.844-18.186c11.73-9.962,25.111-18.424,33.173-33.582
		c-9.771,0.328-18.528-2.982-27.752-2.356c-16.294,1.105-32.344-3.08-48.666-2.158c-6.022,0.34-6.058-0.294-6.683-10.205
		c-0.474-0.654-0.394-1.229,0.243-1.726c29.917,0.023,59.862,0.87,89.743-0.152c33.033-1.13,65.812-4.973,97.75-14.471
		c16.811-4.999,33.909-9.085,50.384-15.146c6.989-2.571,14.381-1.819,21.445-3.798
		C1053.151,2530.047,1056.739,2529.019,1060.366,2528.669z"/>
	<path fill="#DC723F" d="M790.431,2564.565c-0.304,0.545-0.384,1.122-0.242,1.728c-0.417,0.148-0.846,0.234-1.287,0.257
		c-22.78,2.38-45.568,4.523-68.505,2.475c-3.792-1.053-7.648-1.792-11.598-2.004c-1.7-0.294-3.091-1.199-4.402-2.257
		c-7.123-2.39-14.995-2.179-21.639-6.233c-0.227-4.793-0.455-9.585-0.686-14.382c13.608,2.788,27.155,5.953,40.844,8.284
		c21.947,3.738,44.019,5.547,65.997,1.146C791.534,2557.281,789.252,2561.141,790.431,2564.565z"/>
	<path fill="#BCBCBC" d="M672.637,2432.995c-1.376-2.516,0.565-5.836-1.958-8.073c-0.609-2.681,0.745-5.125,1.827-7.154
		c1.782-3.343,1.363,0.826,2.242,1.026C674.007,2423.523,675.057,2428.517,672.637,2432.995z"/>
	<path fill="#AFAFAF" d="M702.084,2322.447c0.513,1.552,0.208,3.55,2.307,4.239c-0.66,2.02-2.22,3.214-3.925,4.274
		C698.696,2327.684,699.938,2324.979,702.084,2322.447z"/>
	<path fill="#FEBF96" d="M718.521,2566.463c20.079,0.424,40.134,0.256,60.15-1.765c3.426-0.346,7.314-1.407,10.23,1.857
		c-1.786,21.149-5.011,42.066-10.285,62.648c-0.492,1.919-0.698,3.936-2.163,5.462c-7.308,7.615-14.503,15.344-21.967,22.802
		c-4.433,4.429-8.254,9.643-14.268,12.266c-1.826,0.797-3.555,1.91-5.451,2.434c-4.342,1.201-6.112-0.232-6.397-4.845
		c-0.298-4.819,1.634-9.105,3.416-13.371c1.651-3.953,3.661-7.757,6.509-13.708c-7.324,3.978-13.056,6.735-18.418,10.086
		c-8.204,5.128-17.071,8.906-25.656,13.255c-2.345,1.188-4.956,1.906-7.506,2.618c-1.936,0.54-4.14,0.784-5.506-1.062
		c-1.058-1.43-0.436-3.139,0.268-4.723c2.042-4.591,4.57-8.766,8.268-12.312c2.974-2.851,6.626-5.344,8.403-10.583
		c-7.716-1.829-15.02-0.036-22.562-1.395c2.673-6.82,8.898-9.5,13.818-12.596c9.655-6.075,12.806-14.598,12.946-25.101
		c0.15-11.256,3.148-22.337,2.047-33.667c1.323,0.031,2.646,0.062,3.968,0.092C711.527,2566.804,715.349,2564.581,718.521,2566.463z
		"/>
	<path fill="#6E3017" d="M1157.774,1132.239c13.955,4.524,24.345,12.438,34.705,20c17.171,12.535,33.463,26.322,48.006,41.836
		c30.039,32.042,56.739,66.688,79.818,104.154c18.348,29.786,34.855,60.54,49.772,92.125c14.17,30.004,26.81,60.686,36.893,92.96
		c-6.075-5.1-12.257-10.078-18.207-15.32c-29.002-25.552-55.988-53.204-82.796-80.974c-28.834-29.869-55.297-61.811-79.366-95.719
		c-17.367-24.467-32.565-50.153-45.547-77.178c-10.403-21.657-18.087-44.223-22.349-67.887
		C1157.953,1142.069,1158.111,1137.74,1157.774,1132.239z"/>
	<path fill="#6E3017" d="M875.151,1203.46c7.604-19.155,16.214-37.767,30.495-53.114c26.892-28.898,70.069-33.785,103.848-11.843
		c22.176,14.405,35.321,35.694,44.828,59.616c3.414,8.59,6.315,17.389,7.455,26.405c-1.651,1.425-2.854,0.536-3.917,0.018
		c-25.847-12.599-53.616-17.308-81.88-19.912c-30.884-2.845-61.783-2.815-92.691-0.252
		C880.787,1204.586,878.091,1205.45,875.151,1203.46z"/>
	<path fill="#E8985B" d="M936.296,1920.608c13.798-8.563,28.325-15.938,41.43-25.633c14.802-10.95,27.998-23.096,36.701-39.905
		c10.4-20.088,4.641-37.751-8.119-53.302c-7.861-9.581-17.761-16.913-28.36-23.342c-28.123-17.059-52.227-39.034-73.903-63.43
		c-29.204-32.869-48.838-70.954-57.291-114.408c-0.502-2.579-0.269-5.301-0.379-7.956c5.018,0.334,4.766,4.945,5.985,7.942
		c14.437,35.505,33.462,67.929,61.337,94.796c25.509,24.587,54.807,43.083,87.522,56.374c8.339,3.388,16.556,7.101,24.135,11.929
		c20.042,12.768,29.762,31.843,31.448,54.962c1.064,14.591,0.485,29.26-3.26,43.615c-6.942,26.609-24.641,42.792-50.081,50.966
		c-19.408,6.236-39.525,8.925-59.88,9.752C940.877,1923.079,938.237,1922.9,936.296,1920.608z"/>
	<path fill="#6D2F16" d="M417.056,1311.282c-3.085-17.959-4.066-34.403-0.978-50.992c4.821-25.906,19.276-44.202,43.312-54.691
		c15.643-6.826,32.082-11.01,49.142-12.398c37.505-3.053,69.414,19.104,80.125,55.545c1.937,6.59,1.851,6.99-4.749,7.175
		c-13.648,0.382-27.305,0.438-40.958,0.672c-6.66,0.114-13.317,0.435-19.977,0.474c-17.436,0.102-33.322,5.269-48.315,13.969
		c-17.62,10.224-34.092,22.054-50.08,34.612C422.526,1307.259,420.404,1308.779,417.056,1311.282z"/>
	<path fill="#DD723E" d="M796.973,2178.717c-25.037-0.792-49.468-5.305-73.58-11.899c-29.243-7.999-58.179-17.038-85.361-30.556
		c-27.692-13.772-51.216-33.123-71.855-56.252c-38.747-43.423-64.906-93.962-85.129-147.965
		c-12.732-34-22.589-68.814-29.556-104.463c-0.857-4.385-0.789-7.886,2.752-10.742c3.764-3.036,7.421-1.649,11.109,0.428
		c56.435,31.781,116.127,56.33,176.428,79.552c64.289,24.759,129.292,47.491,194.807,68.757
		c29.414,9.547,58.998,18.577,88.542,27.719c12.126,3.752,13.122,6.131,11.755,19.58c-2.233,21.963-7.058,43.247-14.325,64.037
		c-8.71,24.921-22.39,46.75-41.02,65.415c-11.385,11.407-25.178,19.829-39.013,27.541
		C828.751,2177.546,812.809,2178.965,796.973,2178.717z"/>
	<path fill="#DD723E" d="M936.296,1920.608c26.037-0.375,51.612-3.603,75.833-13.705c23.457-9.783,36.116-27.928,40.403-52.781
		c1.83-10.61,2.16-21.167,1.766-31.765c-1-26.962-12.16-47.843-37.049-60.297c-10.421-5.214-21.398-9.17-31.869-14.177
		c-20.118-9.621-39.06-21.229-56.43-35.397c-6.986-5.698-13.503-11.803-19.893-18.104c-27.259-26.877-46.121-58.998-59.352-94.678
		c-0.893-2.409-0.865-5.365-3.33-7.072c-0.083-0.636-0.11-1.274-0.08-1.914c-0.706-2.996-3.251-6.442,1.957-7.989
		c7.523,21.152,17.808,40.814,31.639,58.556c13.6,17.446,29.407,32.552,47.7,45.038c15.693,10.712,32.231,19.931,49.106,28.642
		c21.272,10.98,42.911,21.292,62.706,34.995c16.506,11.426,29.817,25.5,38.33,43.735c8.998,19.273,11.324,39.927,7.931,60.506
		c-3.681,22.328-17.677,38.364-37.251,49.288c-20.341,11.353-42.539,16.659-65.517,19.24c-19.476,2.188-39.026,3.134-58.594,3.853
		l0.11,0.11c-3.9-4.061-9.517-0.614-14.498-3.454C919.128,1921.971,927.971,1923.557,936.296,1920.608z"/>
	<path fill="#DD723E" d="M756.718,1558.446c-0.637,50.113-8.962,92.815-30.47,132.275c-13.458,24.692-31.252,45.635-56.333,59.21
		c-37.187,20.128-73.618,16.84-108.71-5.405c-22.65-14.358-39.63-34.299-53.443-57.064c-19.64-32.368-30.469-67.717-35.655-105.011
		c-2.292-16.481-4.309-33.01-3.496-49.643c2.406-49.234,12.718-96.227,41.478-137.489c15.135-21.713,34.024-39.032,59.392-48.415
		c30.021-11.104,58.955-7.904,86.637,7.002c28.735,15.473,48.666,39.677,64.763,67.531c18.098,31.315,27.656,65.438,32.986,100.796
		C755.939,1535.964,757.589,1549.96,756.718,1558.446z"/>
	<path fill="#DD723E" d="M870.222,1456.976c0.715-40.756,7.99-79.966,27.968-116.09c12.837-23.213,29.883-42.206,53.985-54.41
		c29.717-15.046,59.522-14.311,89.434-1.205c26.262,11.506,47.058,29.978,64.143,52.645c28.247,37.476,44.217,80.258,52.118,126.083
		c3.039,17.623,5.029,35.563,4.32,53.591c-1.356,34.493-7.058,68.146-21.482,99.745c-11.237,24.618-26.918,46.085-49.925,61.067
		c-32.075,20.887-65.907,22.641-100.652,7.197c-29.485-13.105-51.679-34.716-69.832-60.932
		c-24.92-35.99-39.06-76.114-46.037-119.032C871.646,1489.528,869.799,1473.368,870.222,1456.976z"/>
	<path fill="#FEDCC1" d="M918.471,1782.377c10.155,1.415,20.468,1.785,29.932,6.312c2.089,1,4.232,2.006,6.08,3.374
		c10.098,7.471,9.812,15.859-0.737,22.904c-7.024,4.691-14.823,6.849-23.216,7.803c-10.906,1.24-21.54,0.503-32.26-1.656
		c-5.369-1.082-10.073-3.347-14.662-5.943c-9.438-5.34-9.98-16.404-0.976-22.597
		C893.368,1785.189,905.873,1783.637,918.471,1782.377z"/>
	<path fill="#E58653" d="M848.253,1582.729c-2.903,2.112-1.478,5.282-1.956,7.988c-3.952-11.745-6.686-23.73-7.458-36.107
		C842.909,1563.721,846.689,1572.87,848.253,1582.729z"/>
	<path fill="#DD723E" d="M924.301,1926.581c-0.132,0.272-0.328,0.794-0.387,0.779c-0.629-0.161-0.454-0.42,0.497-0.669
		C924.411,1926.691,924.301,1926.581,924.301,1926.581z"/>
	<path fill="#353535" d="M794.945,2305.184c24.517-4.87,47.812-9.491,71.104-14.129c4.232-0.842,6.043,0.766,6.328,5.158
		c2.044,31.509,13.807,59.708,28.966,86.969c18.792,33.793,43.636,62.595,71.628,88.802c8.663,8.11,17.567,16.156,27.542,22.826
		c4.081,2.729,9.761,5.748,9.166,10.887c-0.721,6.218-7.943,4.951-12.373,6.08c-6.678,1.702-13.763,2.959-20.6,2.665
		c-21.992-0.948-43.777,2.774-65.726,2.229c-23.935-0.595-47.75,3.427-71.715,1.99c-1.66-0.099-3.332,0.032-4.997-0.02
		c-7.586-0.237-9.447-1.839-7.632-9.929c2.007-8.947,1.811-17.847,1.625-26.778c-0.209-10.004,1.314-19.834,1.947-29.746
		c1.252-19.598-1.605-39.135-2.39-58.694c-0.764-19.028-4.449-38.073-10.291-56.481
		C813.5,2324.322,806.335,2313.871,794.945,2305.184z"/>
	<path fill="#B92929" d="M999.468,2372.665c2.664,0.212,6.278-0.67,6.7,3.737c1.164,12.148,9.278,19.526,18.184,26.125
		c3.704,2.744,4.414,5.185,2.467,9.208c-5.213,10.77-9.994,21.751-15.308,32.469c-4.738,9.559-8.802,10.705-18.417,5.792
		c-2.344-1.198-4.565-2.711-6.643-4.335c-4.205-3.286-5.284-7.665-3.232-12.485c6.114-14.362,7.742-29.393,7.151-44.805
		c-0.089-2.328-0.087-4.666,0.012-6.993C990.702,2373.841,991.948,2372.645,999.468,2372.665z"/>
	<path fill="#840C0C" d="M976.189,2364.708c-3.123-1.564-6.745-2.374-8.684-5.732c10.641-6.152,22.12-10.096,34.235-11.68
		c6.824-0.892,14.609-2.927,18.806,5.711c0.079,2.232-0.812,4.075-2.285,5.684c-2.413,5.625-5.599,7.483-12.527,6.372
		C996.114,2363.521,986.058,2364.697,976.189,2364.708z"/>
	<path fill="#5B5B67" d="M1363.179,2763.75c-36.894-2.635-162.089-37.747-177.248-49.76c1.805-2.213,4.276-1.215,6.359-1.236
		c20.937-0.21,41.899-0.677,62.731,2.009c40.031,5.16,76.754,18.236,107.423,45.53
		C1363.204,2760.967,1363.698,2761.819,1363.179,2763.75z"/>
	<path fill="#2A2929" d="M1093.921,2584.681c-9.086,11.667-16.526,13.241-26.626,5.183c-6.715-5.358-12.467-11.925-18.64-17.96
		c-2.14-2.092-2.7-4.479-1.284-7.225c1.948-3.777,3.871-7.567,6.164-12.055C1066.345,2565.091,1076.546,2579.335,1093.921,2584.681z
		"/>
	<path fill="#E8A980" d="M718.521,2566.463c-3.459-0.075-7.153,1.334-10.156-1.608
		C711.837,2564.842,715.481,2563.746,718.521,2566.463z"/>
	<path fill="#FFFFFF" d="M459.955,1825.148c1.819-0.968,3.16,0.156,4.572,0.943c56.29,31.389,115.824,55.554,175.805,78.674
		c91.969,35.449,185.523,66.287,279.619,95.525c1.906,0.592,3.782,1.334,5.728,1.737c3.853,0.797,4.35,3.19,3.961,6.659
		c-3.399,30.302-9.722,59.803-23.952,87.096c-12.555,24.079-30.347,42.815-52.894,58.575c-22.715,15.877-46.755,17.64-72.289,15.239
		c-44.549-4.189-86.523-18.278-127.54-35.185c-33.273-13.715-60.482-36.105-83.955-63.089
		c-40.46-46.514-66.575-100.915-86.488-158.637c-9.341-27.077-17.172-54.592-22.422-82.789
		C459.812,1828.345,458.881,1826.73,459.955,1825.148z"/>
	<path fill="#FFFFFF" d="M748.549,1564.08c-0.278,41.161-7.693,80.718-26.491,117.713c-7.9,15.547-17.746,29.729-30.169,42.02
		c-39.237,38.82-92.208,41.794-135.663,7.698c-21.927-17.204-38.376-38.874-50.214-63.834
		c-34.095-71.888-38.838-145.842-13.282-221.269c9.417-27.795,24.353-52.536,46.753-72.134
		c21.268-18.608,45.801-28.184,74.314-25.523c24.493,2.285,45.076,13.418,63.076,29.609c26.686,24.005,43.76,54.217,55.47,87.693
		C743.431,1497.754,748.626,1530.486,748.549,1564.08z"/>
	<path fill="#FFFFFF" d="M878.252,1457.785c0.38-40.532,7.608-79.426,27.992-115.09c8.506-14.882,19.052-28.141,32.769-38.589
		c30.213-23.013,63.006-26.831,97.86-12.254c27.257,11.4,47.942,31.019,65.085,54.492c26.669,36.516,41.62,77.789,48.482,122.237
		c6.024,39.023,4.577,77.648-6.1,115.757c-6.718,23.982-17.143,46.137-33.291,65.348c-19.363,23.036-43.518,37.031-74.039,38.036
		c-18.331,0.604-35.554-4.328-51.668-13.081c-23.33-12.673-41.675-30.845-56.912-52.258
		c-24.789-34.838-39.099-73.931-46.081-115.879C879.667,1490.391,878.017,1474.173,878.252,1457.785z"/>
	<path fill="#353535" d="M656.319,1560.735c-0.092,13.101-2.669,27.075-8.768,40.272c-2.956,6.396-6.808,12.221-12.458,16.627
		c-8.895,6.938-18.635,6.918-27.437-0.078c-5.043-4.008-8.877-9.058-11.483-14.894c-13.059-29.25-13.136-58.594-0.164-87.893
		c2.443-5.518,5.927-10.405,10.567-14.367c9.552-8.157,20.204-8.136,29.774,0.081c5.425,4.658,9.043,10.624,11.873,17.068
		C654.07,1530.861,656.388,1544.881,656.319,1560.735z"/>
	<path fill="#353535" d="M964.518,1516.966c0.354-11.529,1.661-22.412,6.59-32.482c8.629-17.631,24.141-20.705,39.144-7.905
		c4.604,3.927,8.475,8.532,11.522,13.706c13.85,23.516,19.048,48.751,14.256,75.758c-1.224,6.9-3.705,13.483-7.864,19.259
		c-7.727,10.733-19.327,13.073-30.69,6.165c-6.681-4.061-11.714-9.805-15.915-16.295
		C970.012,1557.326,965.41,1537.456,964.518,1516.966z"/>
</g>
</svg>
